<svg width="24" height="25" viewBox="0 0 24 25" fill="none" xmlns="http://www.w3.org/2000/svg">
<path d="M1 11.9219C1 13.3172 1.27482 14.6988 1.80878 15.9879C2.34274 17.277 3.12537 18.4483 4.11199 19.4349C5.09861 20.4215 6.2699 21.2041 7.55899 21.7381C8.84807 22.2721 10.2297 22.5469 11.625 22.5469C13.0203 22.5469 14.4019 22.2721 15.691 21.7381C16.9801 21.2041 18.1514 20.4215 19.138 19.4349C20.1246 18.4483 20.9073 17.277 21.4412 15.9879C21.9752 14.6988 22.25 13.3172 22.25 11.9219C22.25 10.5266 21.9752 9.14495 21.4412 7.85586C20.9073 6.56678 20.1246 5.39549 19.138 4.40887C18.1514 3.42224 16.9801 2.63961 15.691 2.10566C14.4019 1.5717 13.0203 1.29688 11.625 1.29688C10.2297 1.29688 8.84807 1.5717 7.55899 2.10566C6.2699 2.63961 5.09861 3.42224 4.11199 4.40887C3.12537 5.39549 2.34274 6.56678 1.80878 7.85586C1.27482 9.14495 1 10.5266 1 11.9219Z" stroke="#0C1732" stroke-linecap="round" stroke-linejoin="round"/>
<path d="M5.625 18.1094C5.625 16.4525 6.96815 15.1094 8.625 15.1094H14.625C16.2819 15.1094 17.625 16.4525 17.625 18.1094V20.9219L12.3526 22.24C11.8749 22.3594 11.3751 22.3594 10.8974 22.24L5.625 20.9219V18.1094Z" fill="#0C1732"/>
<path d="M8.08301 9.56071C8.08301 10.5 8.45615 11.4009 9.12034 12.065C9.78453 12.7292 10.6854 13.1024 11.6247 13.1024C12.564 13.1024 13.4648 12.7292 14.129 12.065C14.7932 11.4009 15.1663 10.5 15.1663 9.56071C15.1663 8.6214 14.7932 7.72056 14.129 7.05637C13.4648 6.39218 12.564 6.01904 11.6247 6.01904C10.6854 6.01904 9.78453 6.39218 9.12034 7.05637C8.45615 7.72056 8.08301 8.6214 8.08301 9.56071Z" fill="#0C1732"/>
<path d="M14 19.7031C14 20.3597 14.1293 21.0099 14.3806 21.6165C14.6319 22.2232 15.0002 22.7744 15.4645 23.2387C15.9288 23.703 16.48 24.0712 17.0866 24.3225C17.6932 24.5738 18.3434 24.7031 19 24.7031C19.6566 24.7031 20.3068 24.5738 20.9134 24.3225C21.52 24.0712 22.0712 23.703 22.5355 23.2387C22.9998 22.7744 23.3681 22.2232 23.6194 21.6165C23.8707 21.0099 24 20.3597 24 19.7031C24 19.0465 23.8707 18.3963 23.6194 17.7897C23.3681 17.1831 22.9998 16.6319 22.5355 16.1676C22.0712 15.7033 21.52 15.335 20.9134 15.0837C20.3068 14.8325 19.6566 14.7031 19 14.7031C18.3434 14.7031 17.6932 14.8325 17.0866 15.0837C16.48 15.335 15.9288 15.7033 15.4645 16.1676C15.0002 16.6319 14.6319 17.1831 14.3806 17.7897C14.1293 18.3963 14 19.0465 14 19.7031Z" fill="#0C1732"/>
<path d="M19 17.7031V21.7028" stroke="white" stroke-linecap="round" stroke-linejoin="round"/>
<path d="M17 19.7029H20.9997" stroke="white" stroke-linecap="round" stroke-linejoin="round"/>
</svg>
