<svg width="19" height="27" viewBox="0 0 19 27" fill="none" xmlns="http://www.w3.org/2000/svg">
<path d="M19 5.5V27H0V0H13.5L19 5.5Z" fill="#D22630"/>
<path d="M15.5307 14.681C15.2869 14.6101 15.0287 14.5448 14.7774 14.5555C14.0789 14.5838 13.3832 14.659 12.6853 14.6973C12.5559 14.7067 12.4271 14.6715 12.319 14.5973C11.4852 13.9226 10.7195 13.1621 10.0338 12.3275C9.9821 12.2768 9.94693 12.2107 9.93318 12.1384C9.91944 12.066 9.92779 11.9911 9.95709 11.9239C10.0591 11.6324 10.1475 11.3344 10.231 11.0358C10.4241 10.33 10.6748 9.63631 10.6809 8.88159C10.6351 8.55601 10.6083 8.22618 10.5405 7.90556C10.4036 7.24944 10.0386 6.81887 9.36886 6.69545C8.39028 6.51528 7.62332 6.93024 7.34255 7.8701C7.10082 8.68014 7.05357 9.5214 7.41103 10.3045C7.71029 10.9656 8.11021 11.577 8.45809 12.2154C8.51014 12.3112 8.56765 12.4516 8.53821 12.5417C8.16066 13.7007 7.7726 14.8565 7.37405 16.0089C7.31925 16.133 7.2243 16.2333 7.10562 16.2926C6.22497 16.7444 5.32513 17.1608 4.45818 17.6325C3.96298 17.8907 3.49638 18.2039 3.06665 18.5667C2.14628 19.3732 2.38188 20.5776 3.50769 21.0181C4.36916 21.3551 5.07518 21.0245 5.7278 20.4833C6.73513 19.6484 7.448 18.5681 8.03076 17.3949C8.06887 17.3059 8.12613 17.227 8.19818 17.1645C8.27023 17.1019 8.35514 17.0572 8.44642 17.0338C9.63249 16.7104 10.8151 16.3756 12.0026 16.0578C12.1145 16.042 12.2281 16.0701 12.321 16.1366C12.7394 16.4203 13.1428 16.7288 13.5598 17.0147C14.1638 17.4275 14.7959 17.6829 15.5389 17.4204C16.1518 17.2076 16.5051 16.6863 16.4976 15.9429C16.4935 15.3031 16.1662 14.8619 15.5307 14.681ZM4.64239 19.8087C4.54007 19.88 4.42315 19.9258 4.30086 19.9423C4.17857 19.9587 4.05426 19.9456 3.93773 19.9038C3.64121 19.8016 3.61587 19.7116 3.822 19.4782C3.85651 19.4342 3.89711 19.3957 3.94251 19.364C4.69578 18.9195 5.44906 18.4764 6.20234 18.0347L6.25577 18.122C5.8086 18.7717 5.31416 19.3789 4.64442 19.8116L4.64239 19.8087ZM8.40877 8.37158C8.49163 8.02118 8.63339 7.88712 8.91485 7.87506C9.28327 7.86371 9.43459 7.96728 9.4476 8.35102C9.46599 8.80008 9.44306 9.24992 9.37912 9.69448C9.31544 10.1059 9.16341 10.5024 9.03673 10.9464C8.50532 10.1435 8.18484 9.32846 8.40877 8.37158ZM8.79226 15.618C9.01893 14.9087 9.23737 14.2271 9.46198 13.5234C9.94271 14.0582 10.4022 14.5701 10.8405 15.0591L8.79226 15.618ZM15.0383 16.3103C14.8266 16.2858 14.6192 16.2311 14.422 16.1479C14.2337 16.0649 14.0686 15.9252 13.8933 15.8103L13.9159 15.7173C14.3021 15.7457 14.6897 15.7599 15.0732 15.8131C15.1289 15.8288 15.1801 15.8585 15.2222 15.8994C15.2644 15.9403 15.2962 15.9913 15.315 16.0479C15.3444 16.2273 15.1972 16.3302 15.0383 16.3103Z" fill="white"/>
</svg>
