<svg width="20" height="13" viewBox="0 0 20 13" fill="none" xmlns="http://www.w3.org/2000/svg">
<path fill-rule="evenodd" clip-rule="evenodd" d="M7.37949 0.922306C7.29284 0.758624 7.12281 0.65625 6.9376 0.65625C6.7524 0.65625 6.58236 0.758624 6.49571 0.922306L1.15196 11.0161C1.02275 11.2601 1.11585 11.5627 1.35991 11.6919C1.60396 11.8211 1.90654 11.728 2.03574 11.4839L3.46658 8.78125H10.4086L11.8395 11.4839C11.9687 11.728 12.2712 11.8211 12.5153 11.6919C12.7593 11.5627 12.8524 11.2601 12.7232 11.0161L7.37949 0.922306ZM9.87921 7.78125L6.9376 2.22488L3.99599 7.78125H9.87921Z" fill="#CAD2DE"/>
<path fill-rule="evenodd" clip-rule="evenodd" d="M16.4375 6.80908C17.1366 6.80908 17.7997 7.03952 18.3125 7.43243V6.71525C18.3125 5.90176 17.54 5.13712 16.4375 5.13712H16.4319C15.8997 5.13114 15.3864 5.33428 15.0025 5.70287C14.8033 5.89412 14.4868 5.88768 14.2956 5.68849C14.1043 5.4893 14.1108 5.17278 14.31 4.98153C14.8822 4.43208 15.6471 4.12895 16.4403 4.13712C17.964 4.13846 19.3125 5.22886 19.3125 6.71525V11.25C19.3125 11.5262 19.0886 11.75 18.8125 11.75C18.5658 11.75 18.3608 11.5713 18.3199 11.3363C17.8061 11.7327 17.14 11.9653 16.4375 11.9653C14.9145 11.9653 13.5625 10.8717 13.5625 9.38721C13.5625 7.90272 14.9145 6.80908 16.4375 6.80908ZM14.5625 9.38721C14.5625 8.57626 15.3372 7.80908 16.4375 7.80908C17.5378 7.80908 18.3125 8.57626 18.3125 9.38721C18.3125 10.1982 17.5378 10.9653 16.4375 10.9653C15.3372 10.9653 14.5625 10.1982 14.5625 9.38721Z" fill="#CAD2DE"/>
<path fill-rule="evenodd" clip-rule="evenodd" d="M7.37949 0.922306C7.29284 0.758624 7.12281 0.65625 6.9376 0.65625C6.7524 0.65625 6.58236 0.758624 6.49571 0.922306L1.15196 11.0161C1.02275 11.2601 1.11585 11.5627 1.35991 11.6919C1.60396 11.8211 1.90654 11.728 2.03574 11.4839L3.46658 8.78125H10.4086L11.8395 11.4839C11.9687 11.728 12.2712 11.8211 12.5153 11.6919C12.7593 11.5627 12.8524 11.2601 12.7232 11.0161L7.37949 0.922306ZM9.87921 7.78125L6.9376 2.22488L3.99599 7.78125H9.87921Z" stroke="#001F27" stroke-width="0.5" stroke-linecap="round" stroke-linejoin="round"/>
<path fill-rule="evenodd" clip-rule="evenodd" d="M16.4375 6.80908C17.1366 6.80908 17.7997 7.03952 18.3125 7.43243V6.71525C18.3125 5.90176 17.54 5.13712 16.4375 5.13712H16.4319C15.8997 5.13114 15.3864 5.33428 15.0025 5.70287C14.8033 5.89412 14.4868 5.88768 14.2956 5.68849C14.1043 5.4893 14.1108 5.17278 14.31 4.98153C14.8822 4.43208 15.6471 4.12895 16.4403 4.13712C17.964 4.13846 19.3125 5.22886 19.3125 6.71525V11.25C19.3125 11.5262 19.0886 11.75 18.8125 11.75C18.5658 11.75 18.3608 11.5713 18.3199 11.3363C17.8061 11.7327 17.14 11.9653 16.4375 11.9653C14.9145 11.9653 13.5625 10.8717 13.5625 9.38721C13.5625 7.90272 14.9145 6.80908 16.4375 6.80908ZM14.5625 9.38721C14.5625 8.57626 15.3372 7.80908 16.4375 7.80908C17.5378 7.80908 18.3125 8.57626 18.3125 9.38721C18.3125 10.1982 17.5378 10.9653 16.4375 10.9653C15.3372 10.9653 14.5625 10.1982 14.5625 9.38721Z" stroke="#001F27" stroke-width="0.5" stroke-linecap="round" stroke-linejoin="round"/>
</svg>
