<svg width="98" height="126" viewBox="0 0 98 126" fill="none" xmlns="http://www.w3.org/2000/svg">
<g opacity="0.15">
<path d="M41.9 33.5H2V128H41.9V33.5Z" stroke="white" stroke-width="4" stroke-linecap="round" stroke-linejoin="round"/>
<path d="M116 2H41.9V128H116V2Z" stroke="white" stroke-width="4" stroke-linecap="round" stroke-linejoin="round"/>
<path d="M70.4 27.2002H59V33.5002H70.4V27.2002Z" stroke="white" stroke-width="4" stroke-linecap="round"/>
<path d="M98.9 27.2002H87.5V33.5002H98.9V27.2002Z" stroke="white" stroke-width="4" stroke-linecap="round"/>
<path d="M70.4 77.6001H59V83.9001H70.4V77.6001Z" stroke="white" stroke-width="4" stroke-linecap="round"/>
<path d="M98.9 77.6001H87.5V83.9001H98.9V77.6001Z" stroke="white" stroke-width="4" stroke-linecap="round"/>
<path d="M70.4 52.3999H59V58.6999H70.4V52.3999Z" stroke="white" stroke-width="4" stroke-linecap="round"/>
<path d="M98.9 52.3999H87.5V58.6999H98.9V52.3999Z" stroke="white" stroke-width="4" stroke-linecap="round"/>
<path d="M70.4 102.8H59V109.1H70.4V102.8Z" stroke="white" stroke-width="4" stroke-linecap="round"/>
<path d="M98.9 102.8H87.5V109.1H98.9V102.8Z" stroke="white" stroke-width="4" stroke-linecap="round"/>
<path d="M24.8 77.6001H19.1V83.9001H24.8V77.6001Z" stroke="white" stroke-width="4" stroke-linecap="round"/>
<path d="M24.8 52.3999H19.1V58.6999H24.8V52.3999Z" stroke="white" stroke-width="4" stroke-linecap="round"/>
<path d="M24.8 102.8H19.1V109.1H24.8V102.8Z" stroke="white" stroke-width="4" stroke-linecap="round"/>
</g>
</svg>
