<svg width="18" height="18" viewBox="0 0 18 18" fill="none" xmlns="http://www.w3.org/2000/svg">
<path d="M5.21053 2.6H2.68421C1.75405 2.6 1 3.31634 1 4.2V6.6M5.21053 2.6H11.9474M5.21053 2.6V1M5.21053 2.6V4.2M11.9474 2.6H14.4737C15.4039 2.6 16.1579 3.31634 16.1579 4.2V6.6H1M11.9474 2.6V1M11.9474 2.6V4.2M1 6.6V15.4C1 16.2837 1.75405 17 2.68421 17H6.89474M12.7895 11.6V13L13.8421 14M17 13C17 15.2091 15.1149 17 12.7895 17C10.4641 17 8.57895 15.2091 8.57895 13C8.57895 10.7909 10.4641 9 12.7895 9C15.1149 9 17 10.7909 17 13Z" stroke="#989898" stroke-linecap="round" stroke-linejoin="round"/>
</svg>
