<svg width="66" height="66" viewBox="0 0 66 66" fill="none" xmlns="http://www.w3.org/2000/svg">
<circle cx="33" cy="33" r="33" fill="#D22630"/>
<path d="M41 35C40.17 34.37 39.13 34 38 34C35.24 34 33 36.24 33 39C33 40.13 33.37 41.17 34 42H25C23.9 42 23 41.1 23 40V31H41V35Z" stroke="white" stroke-miterlimit="10" stroke-linecap="round"/>
<path d="M39 26H25C23.9 26 23 26.9 23 28V31H41V28C41 26.9 40.1 26 39 26Z" stroke="white" stroke-miterlimit="10" stroke-linecap="round"/>
<path d="M36 24V28" stroke="white" stroke-miterlimit="10" stroke-linecap="round" stroke-linejoin="round"/>
<path d="M28 24V28" stroke="white" stroke-miterlimit="10" stroke-linecap="round" stroke-linejoin="round"/>
<path d="M25 35H27" stroke="white" stroke-miterlimit="10" stroke-linejoin="round"/>
<path d="M29 35H31" stroke="white" stroke-miterlimit="10" stroke-linejoin="round"/>
<path d="M33 35H35" stroke="white" stroke-miterlimit="10" stroke-linejoin="round"/>
<path d="M25 39H27" stroke="white" stroke-miterlimit="10" stroke-linejoin="round"/>
<path d="M29 39H31" stroke="white" stroke-miterlimit="10" stroke-linejoin="round"/>
<path d="M38 44C40.7614 44 43 41.7614 43 39C43 36.2386 40.7614 34 38 34C35.2386 34 33 36.2386 33 39C33 41.7614 35.2386 44 38 44Z" stroke="white" stroke-miterlimit="10" stroke-linecap="round" stroke-linejoin="round"/>
<path d="M38 36V39" stroke="white" stroke-miterlimit="10" stroke-linejoin="round"/>
<path d="M38 41H38.01" stroke="white" stroke-miterlimit="10" stroke-linecap="round" stroke-linejoin="round"/>
</svg>
