<svg width="38" height="31" viewBox="0 0 38 31" fill="none" xmlns="http://www.w3.org/2000/svg">
<path d="M6.40039 2.7998V6.3998" stroke="white" stroke-linecap="round" stroke-linejoin="round"/>
<path d="M37 26.2C37 28.1883 35.3883 29.8 33.4 29.8H4.6C2.61177 29.8 1 28.1883 1 26.2V10C1 8.01177 2.61177 6.4 4.6 6.4H8.50884C9.46362 6.4 10.3793 6.02072 11.0544 5.34558L14.3456 2.05442C15.0207 1.37928 15.9364 1 16.8911 1H21.1089C22.0636 1 22.9793 1.37928 23.6544 2.05442L26.9456 5.34558C27.6207 6.02072 28.5364 6.4 29.4911 6.4H33.4C35.3883 6.4 37 8.01177 37 10V26.2Z" stroke="white" stroke-linecap="round"/>
<path d="M11.8 17.2002H1" stroke="white" stroke-linecap="round" stroke-linejoin="round"/>
<path d="M36.9992 17.2002H26.1992" stroke="white" stroke-linecap="round" stroke-linejoin="round"/>
<path d="M19.0008 24.4C22.9772 24.4 26.2008 21.1765 26.2008 17.2C26.2008 13.2235 22.9772 10 19.0008 10C15.0243 10 11.8008 13.2235 11.8008 17.2C11.8008 21.1765 15.0243 24.4 19.0008 24.4Z" stroke="white" stroke-linecap="round"/>
</svg>
