<svg width="16" height="16" viewBox="0 0 16 16" fill="none" xmlns="http://www.w3.org/2000/svg">
<path fill-rule="evenodd" clip-rule="evenodd" d="M0.862253 8.02191C1.12261 7.76158 1.54471 7.76158 1.80507 8.02191L5.89173 12.1086C6.15208 12.3689 6.15208 12.791 5.89173 13.0514C5.63138 13.3117 5.20927 13.3117 4.94892 13.0514L0.862253 8.96471C0.601905 8.70438 0.601905 8.28224 0.862253 8.02191Z" fill="#2DBE20"/>
<path fill-rule="evenodd" clip-rule="evenodd" d="M15.1377 2.86195C15.398 3.1223 15.398 3.54441 15.1377 3.80476L5.891 13.0514C5.63065 13.3118 5.20854 13.3118 4.94819 13.0514C4.68784 12.7911 4.68784 12.369 4.94819 12.1086L14.1949 2.86195C14.4552 2.6016 14.8773 2.6016 15.1377 2.86195Z" fill="#2DBE20"/>
</svg>
