<svg width="22" height="22" viewBox="0 0 22 22" fill="none" xmlns="http://www.w3.org/2000/svg">
<path d="M8 6H1V21H8V6Z" stroke="#B8B8B8" stroke-linecap="round" stroke-linejoin="round"/>
<path d="M21 1H8V21H21V1Z" stroke="#B8B8B8" stroke-linecap="round" stroke-linejoin="round"/>
<path d="M13 5H11V6H13V5Z" stroke="#B8B8B8" stroke-linecap="round"/>
<path d="M18 5H16V6H18V5Z" stroke="#B8B8B8" stroke-linecap="round"/>
<path d="M13 13H11V14H13V13Z" stroke="#B8B8B8" stroke-linecap="round"/>
<path d="M18 13H16V14H18V13Z" stroke="#B8B8B8" stroke-linecap="round"/>
<path d="M13 9H11V10H13V9Z" stroke="#B8B8B8" stroke-linecap="round"/>
<path d="M18 9H16V10H18V9Z" stroke="#B8B8B8" stroke-linecap="round"/>
<path d="M13 17H11V18H13V17Z" stroke="#B8B8B8" stroke-linecap="round"/>
<path d="M18 17H16V18H18V17Z" stroke="#B8B8B8" stroke-linecap="round"/>
<path d="M5 13H4V14H5V13Z" stroke="#B8B8B8" stroke-linecap="round"/>
<path d="M5 9H4V10H5V9Z" stroke="#B8B8B8" stroke-linecap="round"/>
<path d="M5 17H4V18H5V17Z" stroke="#B8B8B8" stroke-linecap="round"/>
</svg>
