<svg width="22" height="22" viewBox="0 0 22 22" fill="none" xmlns="http://www.w3.org/2000/svg">
<path d="M11 16H11.01" stroke="#FE5000" stroke-miterlimit="10" stroke-linecap="round" stroke-linejoin="round"/>
<path d="M9 9.04C9.04 8.75 9.16 8.21 9.56 7.73C9.67 7.6 9.86 7.37 10.19 7.2C10.58 7 10.94 7 11.1 7C11.29 7 11.71 7.02 12.15 7.31C12.69 7.67 12.86 8.19 12.91 8.35C12.94 8.43 13.09 8.96 12.91 9.57C12.8 9.95 12.6 10.19 12.42 10.39C11.72 11.22 11.11 11.15 11 11.69C10.99 11.73 11 12.03 11 12.62C11 12.78 11 12.91 11 13" stroke="#FE5000" stroke-miterlimit="10" stroke-linecap="round" stroke-linejoin="round"/>
<path d="M11 21C16.5228 21 21 16.5228 21 11C21 5.47715 16.5228 1 11 1C5.47715 1 1 5.47715 1 11C1 16.5228 5.47715 21 11 21Z" stroke="#FE5000" stroke-miterlimit="10" stroke-linecap="round" stroke-linejoin="round"/>
</svg>
