<svg width="21" height="18" viewBox="0 0 21 18" fill="none" xmlns="http://www.w3.org/2000/svg">
<g id="Cloud_Ico">
<path id="Vector" d="M16.7229 13.2369C17.5921 13.2369 18.4256 12.8916 19.0402 12.2771C19.6547 11.6625 20 10.8289 20 9.95981C20 9.09067 19.6547 8.25713 19.0402 7.64256C18.4256 7.02799 17.5921 6.68273 16.7229 6.68273H15.7866C15.9232 6.07409 15.9253 5.44719 15.7927 4.83782C15.6602 4.22846 15.3955 3.64856 15.0139 3.13125C14.6323 2.61393 14.1413 2.16932 13.5688 1.8228C12.9963 1.47629 12.3535 1.23466 11.6773 1.1117C11.001 0.98874 10.3044 0.986866 9.62737 1.10618C8.9503 1.2255 8.30597 1.46368 7.73117 1.80711C6.57031 2.50069 5.76314 3.58091 5.48723 4.81011C4.48908 4.77013 3.50744 5.06329 2.71039 5.6394C1.91334 6.21551 1.35045 7.03873 1.11811 7.96812C0.885762 8.8975 0.998408 9.87524 1.43676 10.7339C1.87511 11.5926 2.6119 12.2788 3.52098 12.6751" stroke="white" stroke-width="1.5" stroke-linecap="round" stroke-linejoin="round"/>
<path id="Vector_2" d="M10.1689 8.55518V16.9819" stroke="white" stroke-width="1.5" stroke-linecap="round" stroke-linejoin="round"/>
<path id="Vector_3" d="M7.36035 14.1733L10.1693 16.9823L12.9782 14.1733" stroke="white" stroke-width="1.5" stroke-linecap="round" stroke-linejoin="round"/>
</g>
</svg>
