<svg width="24" height="24" viewBox="0 0 24 24" fill="none" xmlns="http://www.w3.org/2000/svg">
<path d="M18 15C18 13.344 16.656 12 15 12C13.344 12 12 13.344 12 15C12 15.204 12.018 15.408 12.06 15.6H6V7.2V6H10.8L12 7.8H18V9.6V15Z" fill="#0C1732"/>
<path d="M15 18C16.6568 18 18 16.6568 18 15C18 13.3432 16.6568 12 15 12C13.3432 12 12 13.3432 12 15C12 16.6568 13.3432 18 15 18Z" stroke="#0C1732" stroke-miterlimit="10" stroke-linecap="round" stroke-linejoin="round"/>
<path d="M13.1982 15H16.7982" stroke="#0C1732" stroke-miterlimit="10" stroke-linejoin="round"/>
<path d="M15 13.2V16.8" stroke="#0C1732" stroke-miterlimit="10" stroke-linejoin="round"/>
<rect opacity="0.5" x="0.5" y="0.5" width="23" height="23" stroke="#0C1732"/>
</svg>
