<svg width="32" height="32" viewBox="0 0 32 32" fill="none" xmlns="http://www.w3.org/2000/svg">
<circle cx="16" cy="16" r="16" fill="#FFF2F3"/>
<path fill-rule="evenodd" clip-rule="evenodd" d="M20.56 26H11.44C10.91 26 10.47 25.59 10.44 25.06L9.5 10H22.5L21.56 25.06C21.53 25.59 21.09 26 20.56 26Z" stroke="#D22630" stroke-miterlimit="10" stroke-linecap="round" stroke-linejoin="round"/>
<path d="M18.5 6H13.5V7H18.5V6Z" stroke="#D22630" stroke-miterlimit="10" stroke-linecap="round" stroke-linejoin="round"/>
<path fill-rule="evenodd" clip-rule="evenodd" d="M23.5 10H8.5C8.22 10 8 9.78 8 9.5V7.5C8 7.22 8.22 7 8.5 7H23.5C23.78 7 24 7.22 24 7.5V9.5C24 9.78 23.78 10 23.5 10Z" stroke="#D22630" stroke-miterlimit="10" stroke-linecap="round" stroke-linejoin="round"/>
</svg>
