<svg width="41" height="40" viewBox="0 0 41 40" fill="none" xmlns="http://www.w3.org/2000/svg">
<rect width="41" height="40" fill="#FFD7D9"/>
<path d="M24.0054 29.82C24.0054 29.82 23.9959 29.83 24.0054 29.82C21.9819 29.24 20.4999 27.3 20.4999 25C20.4999 23.87 20.8514 22.83 21.4499 22C22.3144 20.79 23.7014 20 25.2499 20C25.3829 20 25.5159 20.01 25.6489 20.02L26.1999 16H12.8999L14.6859 29.14C14.7524 29.63 15.1514 30 15.6264 30H23.4734C23.6729 30 23.8534 29.94 24.0054 29.82Z" stroke="#D22630" stroke-miterlimit="10" stroke-linecap="round" stroke-linejoin="round"/>
<path d="M11.4751 16H27.6251" stroke="#D22630" stroke-miterlimit="10" stroke-linecap="round" stroke-linejoin="round"/>
<path d="M17.6499 20V26" stroke="#D22630" stroke-miterlimit="10" stroke-linecap="round" stroke-linejoin="round"/>
<path d="M21.4502 22V20" stroke="#D22630" stroke-miterlimit="10" stroke-linecap="round" stroke-linejoin="round"/>
<path d="M23.35 13H15.75L17.365 10.45C17.5455 10.17 17.84 10 18.163 10H20.9465C21.26 10 21.564 10.17 21.735 10.45L23.35 13Z" stroke="#D22630" stroke-miterlimit="10" stroke-linecap="round" stroke-linejoin="round"/>
<path d="M11 13H28.1" stroke="#D22630" stroke-miterlimit="10" stroke-linecap="round" stroke-linejoin="round"/>
<path d="M25.25 30C27.8733 30 30 27.7614 30 25C30 22.2386 27.8733 20 25.25 20C22.6267 20 20.5 22.2386 20.5 25C20.5 27.7614 22.6267 30 25.25 30Z" stroke="#D22630" stroke-miterlimit="10" stroke-linecap="round" stroke-linejoin="round"/>
<path d="M23.2358 22.8799L27.2638 27.1199" stroke="#D22630" stroke-miterlimit="10" stroke-linejoin="round"/>
<path d="M27.2638 22.8799L23.2358 27.1199" stroke="#D22630" stroke-miterlimit="10" stroke-linejoin="round"/>
</svg>
