<svg width="21" height="20" viewBox="0 0 21 20" fill="none" xmlns="http://www.w3.org/2000/svg">
<path d="M8.38896 13.167H2.05557C1.77561 13.167 1.50713 13.0558 1.30917 12.8578C1.11121 12.6599 1 12.3914 1 12.1114V3.66689C1 3.38694 1.11121 3.11845 1.30917 2.9205C1.50713 2.72254 1.77561 2.61133 2.05557 2.61133H8.38896" stroke="white" stroke-width="1.5" stroke-linecap="round" stroke-linejoin="round"/>
<path d="M11.5557 2.61123C11.5557 2.33128 11.6669 2.06279 11.8648 1.86483C12.0628 1.66688 12.3313 1.55566 12.6112 1.55566H18.9446C19.2246 1.55566 19.4931 1.66688 19.691 1.86483C19.889 2.06279 20.0002 2.33128 20.0002 2.61123V17.3892C20.0002 17.6691 19.889 17.9376 19.691 18.1356C19.4931 18.3335 19.2246 18.4447 18.9446 18.4447H12.6112C12.3313 18.4447 12.0628 18.3335 11.8648 18.1356C11.6669 17.9376 11.5557 17.6691 11.5557 17.3892V2.61123Z" stroke="white" stroke-width="1.5" stroke-linecap="round" stroke-linejoin="round"/>
<path d="M5.22168 17.3892H8.38838" stroke="white" stroke-width="1.5" stroke-linecap="round" stroke-linejoin="round"/>
<path d="M15.7783 5.77783V5.78874" stroke="white" stroke-width="1.5" stroke-linecap="round" stroke-linejoin="round"/>
<path d="M14.7227 14.2221C14.7227 14.502 14.8339 14.7705 15.0318 14.9685C15.2298 15.1664 15.4983 15.2776 15.7782 15.2776C16.0582 15.2776 16.3267 15.1664 16.5246 14.9685C16.7226 14.7705 16.8338 14.502 16.8338 14.2221C16.8338 13.9421 16.7226 13.6736 16.5246 13.4757C16.3267 13.2777 16.0582 13.1665 15.7782 13.1665C15.4983 13.1665 15.2298 13.2777 15.0318 13.4757C14.8339 13.6736 14.7227 13.9421 14.7227 14.2221Z" stroke="white" stroke-width="1.5" stroke-linecap="round" stroke-linejoin="round"/>
<path d="M7.33301 13.1665V17.3888" stroke="white" stroke-width="1.5" stroke-linecap="round" stroke-linejoin="round"/>
</svg>
