<svg width="20" height="22" viewBox="0 0 20 22" fill="none" xmlns="http://www.w3.org/2000/svg">
<path d="M9 17V10C9 9.45 9.45 9 10 9H15V4C15 3.45 14.55 3 14 3H11V4C11 4.55 10.55 5 10 5H6C5.45 5 5 4.55 5 4V3H2C1.45 3 1 3.45 1 4V16C1 16.55 1.45 17 2 17H9Z" stroke="#B8B8B8" stroke-linecap="round" stroke-linejoin="round"/>
<path d="M10 5H6C5.45 5 5 4.55 5 4V2C5 1.45 5.45 1 6 1H10C10.55 1 11 1.45 11 2V4C11 4.55 10.55 5 10 5Z" stroke="#B8B8B8" stroke-linecap="round" stroke-linejoin="round"/>
<path d="M10 9H18C18.55 9 19 9.45 19 10V20C19 20.55 18.55 21 18 21H10C9.45 21 9 20.55 9 20V10C9 9.45 9.45 9 10 9Z" stroke="#B8B8B8" stroke-linecap="round" stroke-linejoin="round"/>
</svg>
