<svg width="105" height="134" viewBox="0 0 105 134" fill="none" xmlns="http://www.w3.org/2000/svg">
<g id="Doc">
<path id="Vector" d="M66.8213 2V30.8094C66.8213 32.7196 67.5801 34.5516 68.9308 35.9023C70.2815 37.253 72.1135 38.0118 74.0236 38.0118H102.833" stroke="#9DB1BC" stroke-width="3" stroke-linecap="round" stroke-linejoin="round"/>
<path id="Vector_2" d="M88.4283 131.642H16.4047C12.5843 131.642 8.92045 130.125 6.21904 127.423C3.51763 124.722 2 121.058 2 117.238V16.4047C2 12.5843 3.51763 8.92045 6.21904 6.21904C8.92045 3.51763 12.5843 2 16.4047 2H66.8212L102.833 38.0118V117.238C102.833 121.058 101.315 124.722 98.614 127.423C95.9126 130.125 92.2487 131.642 88.4283 131.642Z" stroke="#9DB1BC" stroke-width="3" stroke-linecap="round" stroke-linejoin="round"/>
<path id="Vector_3" d="M38.0088 102.832L52.4135 81.2251" stroke="#9DB1BC" stroke-width="3" stroke-linecap="round" stroke-linejoin="round"/>
<path id="Vector_4" d="M74.0206 102.832C56.0147 102.832 56.0147 59.6182 38.0088 59.6182" stroke="#9DB1BC" stroke-width="3" stroke-linecap="round" stroke-linejoin="round"/>
</g>
</svg>
