<svg width="18" height="20" viewBox="0 0 18 20" fill="none" xmlns="http://www.w3.org/2000/svg">
<mask id="path-1-inside-1_1582_7060" fill="white">
<path d="M15.3902 10.0018V18.1019C15.3902 18.5969 15.0054 19.0019 14.5352 19.0019H0.855011C0.384755 19.0019 0 18.5969 0 18.1019V3.70177C0 3.20676 0.384755 2.80176 0.855011 2.80176H8.55011"/>
</mask>
<path d="M16.3902 10.0018C16.3902 9.44955 15.9425 9.00184 15.3902 9.00184C14.8379 9.00184 14.3902 9.44955 14.3902 10.0018H16.3902ZM8.55011 3.80176C9.1024 3.80176 9.55011 3.35404 9.55011 2.80176C9.55011 2.24947 9.1024 1.80176 8.55011 1.80176V3.80176ZM14.3902 10.0018V18.1019H16.3902V10.0018H14.3902ZM14.3902 18.1019C14.3902 18.0878 14.3962 18.0676 14.414 18.0488C14.4326 18.0293 14.4748 18.0019 14.5352 18.0019V20.0019C15.6054 20.0019 16.3902 19.1003 16.3902 18.1019H14.3902ZM14.5352 18.0019H0.855011V20.0019H14.5352V18.0019ZM0.855011 18.0019C0.915382 18.0019 0.95759 18.0293 0.976158 18.0488C0.994049 18.0676 1 18.0878 1 18.1019H-1C-1 19.1003 -0.215242 20.0019 0.855011 20.0019V18.0019ZM1 18.1019V3.70177H-1V18.1019H1ZM1 3.70177C1 3.71593 0.994049 3.73605 0.976158 3.75489C0.95759 3.77443 0.915382 3.80176 0.855011 3.80176V1.80176C-0.215242 1.80176 -1 2.70343 -1 3.70177H1ZM0.855011 3.80176H8.55011V1.80176H0.855011V3.80176Z" fill="#2DBE20" mask="url(#path-1-inside-1_1582_7060)"/>
<path d="M14.6637 1.34374L6.19058 10.2628L5.13037 13.6019L8.30246 12.4859L16.7756 3.56677C17.1604 3.16176 17.2117 2.54076 16.8782 2.18975L15.9719 1.23574C15.6385 0.884739 15.0485 0.92974 14.6637 1.34374Z" stroke="#2DBE20" stroke-miterlimit="10" stroke-linecap="round" stroke-linejoin="round"/>
</svg>
