<svg width="18" height="22" viewBox="0 0 18 22" fill="none" xmlns="http://www.w3.org/2000/svg">
<path d="M5 3V4C5 4.55 5.45 5 6 5H12C12.55 5 13 4.55 13 4V3H16C16.55 3 17 3.45 17 4V20C17 20.55 16.55 21 16 21H2C1.45 21 1 20.55 1 20V4C1 3.45 1.45 3 2 3H5Z" stroke="#B8B8B8" stroke-linecap="round" stroke-linejoin="round"/>
<path d="M12 5H6C5.45 5 5 4.55 5 4V2C5 1.45 5.45 1 6 1H12C12.55 1 13 1.45 13 2V4C13 4.55 12.55 5 12 5Z" stroke="#B8B8B8" stroke-linecap="round" stroke-linejoin="round"/>
<path d="M9.8398 10.1L7.3598 14.39L7.2998 15.5L8.2198 14.89L10.6998 10.6L9.8398 10.1Z" stroke="#B8B8B8" stroke-miterlimit="10" stroke-linecap="round"/>
</svg>
