<svg width="20" height="22" viewBox="0 0 20 22" fill="none" xmlns="http://www.w3.org/2000/svg">
<mask id="path-1-inside-1_316_554" fill="white">
<path d="M16.9333 11.002V20.002C16.9333 20.552 16.5133 21.002 16 21.002H1.06663C0.553301 21.002 0.133301 20.552 0.133301 20.002V4.00195C0.133301 3.45195 0.553301 3.00195 1.06663 3.00195H9.46663"/>
</mask>
<path d="M17.9333 11.002C17.9333 10.4497 17.4856 10.002 16.9333 10.002C16.381 10.002 15.9333 10.4497 15.9333 11.002H17.9333ZM9.46663 4.00195C10.0189 4.00195 10.4666 3.55424 10.4666 3.00195C10.4666 2.44967 10.0189 2.00195 9.46663 2.00195V4.00195ZM15.9333 11.002V20.002H17.9333V11.002H15.9333ZM15.9333 20.002C15.9333 20.0208 15.9264 20.0277 15.9281 20.0259C15.9293 20.0246 15.9351 20.0188 15.9481 20.0129C15.962 20.0066 15.9804 20.002 16 20.002V22.002C17.1294 22.002 17.9333 21.0381 17.9333 20.002H15.9333ZM16 20.002H1.06663V22.002H16V20.002ZM1.06663 20.002C1.08619 20.002 1.10459 20.0066 1.11852 20.0129C1.13148 20.0188 1.13732 20.0246 1.13852 20.0259C1.14019 20.0277 1.1333 20.0208 1.1333 20.002H-0.866699C-0.866699 21.0381 -0.0628467 22.002 1.06663 22.002V20.002ZM1.1333 20.002V4.00195H-0.866699V20.002H1.1333ZM1.1333 4.00195C1.1333 3.98315 1.14019 3.97624 1.13852 3.97802C1.13732 3.97931 1.13148 3.98511 1.11852 3.99101C1.10459 3.99735 1.08619 4.00195 1.06663 4.00195V2.00195C-0.0628467 2.00195 -0.866699 2.96577 -0.866699 4.00195H1.1333ZM1.06663 4.00195H9.46663V2.00195H1.06663V4.00195Z" fill="#78BE20" mask="url(#path-1-inside-1_316_554)"/>
<path d="M16.1401 1.38193L6.89073 11.2919L5.7334 15.0019L9.19606 13.7619L18.4454 3.85193C18.8654 3.40193 18.9214 2.71193 18.5574 2.32193L17.5681 1.26193C17.2041 0.871934 16.5601 0.921934 16.1401 1.38193Z" stroke="#78BE20" stroke-miterlimit="10" stroke-linecap="round" stroke-linejoin="round"/>
</svg>
