<svg width="137" height="154" viewBox="0 0 137 154" fill="none" xmlns="http://www.w3.org/2000/svg">
<g filter="url(#filter0_f_5162_1275)">
<path d="M68.5 150C104.122 150 133 147.09 133 143.5C133 139.91 104.122 137 68.5 137C32.8776 137 4 139.91 4 143.5C4 147.09 32.8776 150 68.5 150Z" fill="black" fill-opacity="0.1"/>
</g>
<path d="M25.5243 12.4222L24.5892 13.7758C24.806 13.8482 25.041 13.9207 25.2849 13.9931L25.9852 12.9791L27.2366 14.4956C27.5844 14.5771 27.9504 14.654 28.3344 14.731L26.4008 12.386L28.6913 9.07227C28.3479 9.14017 28.0227 9.20807 27.7019 9.27598L25.94 11.8247L24.535 10.1225C24.2865 10.2085 24.0561 10.2946 23.8438 10.3806L25.5243 12.4222Z" fill="black"/>
<path d="M106.853 14.7349C107.232 14.658 107.598 14.581 107.946 14.4995L109.198 12.983L109.898 13.997C110.142 13.9246 110.377 13.8522 110.594 13.7797L109.659 12.4261L111.344 10.3845C111.131 10.2985 110.901 10.2124 110.652 10.1264L109.247 11.8286L107.485 9.27989C107.165 9.21198 106.839 9.14408 106.496 9.07617L108.787 12.3854L106.853 14.7349Z" fill="black"/>
<path d="M34.8749 8.12101L34.911 8.16628L32.3404 11.8286L29.9144 8.84986C29.6478 8.89513 29.3903 8.94492 29.1328 8.99472L31.9248 12.4217L30.0725 15.0609C30.321 15.1062 30.574 15.1469 30.836 15.1876L32.3856 12.983L34.6219 15.7264C34.9517 15.7671 35.2815 15.8078 35.6203 15.8486L32.8012 12.39L35.3673 8.73216L38.3309 12.4171L35.8688 15.8758C36.1308 15.9074 36.3928 15.9346 36.6594 15.9663L38.7872 12.983L41.5701 16.4416C41.918 16.4688 42.2749 16.5005 42.6318 16.5276L45.1934 12.983L48.0712 16.6091L47.8724 16.8807C48.3242 16.9079 48.7804 16.9305 49.2367 16.9532L48.9476 16.591L51.595 12.983L54.4367 16.6046L54.0165 17.1705C54.2966 17.1795 54.5812 17.1886 54.8613 17.1976L54.8794 17.1705L54.8975 17.2022C55.2001 17.2112 55.5028 17.2248 55.8055 17.2338L55.3041 16.5955L57.9876 12.983L60.7886 16.6046L60.2284 17.347C60.513 17.3516 60.8021 17.3561 61.0913 17.3606L61.2313 17.1705L61.3804 17.3651C61.6786 17.3697 61.9722 17.3742 62.2704 17.3787L61.665 16.5955L64.3892 12.9785L67.1496 16.5955L66.5261 17.4104C66.8198 17.4104 67.1089 17.4149 67.4025 17.4149L67.5878 17.1705L67.773 17.4149C68.0667 17.4149 68.3558 17.4149 68.6494 17.4104L68.026 16.5955L70.7863 12.9785L73.5105 16.5955L72.9052 17.3787C73.2033 17.3742 73.5015 17.3697 73.7951 17.3651L73.9442 17.1705L74.0843 17.3606C74.3734 17.3561 74.658 17.3516 74.9472 17.347L74.387 16.6046L77.188 12.983L79.8715 16.5955L79.37 17.2338C79.6727 17.2248 79.9754 17.2157 80.2781 17.2022L80.3007 17.175L80.3188 17.2022C80.5989 17.1931 80.888 17.1841 81.1636 17.175L80.7434 16.6091L83.5851 12.9875L86.228 16.6001L85.9388 16.9622C86.3951 16.9396 86.8559 16.9124 87.3032 16.8898L87.0999 16.6182L89.9777 12.9921L92.5392 16.5367C92.8961 16.5095 93.2485 16.4778 93.6009 16.4507L96.3838 12.9921L98.5117 15.9753C98.7782 15.9437 99.0403 15.9165 99.3023 15.8848L96.8401 12.4262L99.8037 8.74121L102.37 12.399L99.5508 15.8576C99.8896 15.8169 100.219 15.7762 100.549 15.7354L102.785 12.9921L104.335 15.1967C104.597 15.156 104.846 15.1107 105.099 15.0699L103.246 12.4307L106.038 9.00377C105.781 8.95398 105.528 8.90871 105.257 8.85891L102.831 11.8377L100.26 8.17534L100.296 8.13007C99.9664 8.08932 99.6321 8.04858 99.2932 8.01236L99.3881 8.14817L96.42 11.8377L93.8087 8.17534L94.3328 7.51439C94.0572 7.49176 93.7816 7.4646 93.5015 7.44196L93.3886 7.5823L93.2756 7.41933C92.9775 7.39669 92.6702 7.36953 92.3676 7.3469L92.9368 8.14817L90.0093 11.8331L87.3619 8.16628L88.2293 7.0617C87.9492 7.04359 87.6691 7.02548 87.3845 7.00737L86.9372 7.57777L86.49 6.95757C86.1918 6.93947 85.8982 6.92589 85.5955 6.90778L86.49 8.14817L83.6031 11.8331L80.9151 8.16175L82.0084 6.74481C81.7238 6.73575 81.4437 6.72217 81.1545 6.70859L80.4859 7.57325L79.8173 6.66332C79.5236 6.65427 79.23 6.64068 78.9318 6.63163L80.0432 8.14817L77.197 11.8286L74.4683 8.15723L75.6926 6.55014C75.4035 6.54562 75.1188 6.53656 74.8297 6.53204L74.0346 7.57325L73.2395 6.50487C72.9458 6.50035 72.6567 6.49582 72.363 6.49129L73.5964 8.14817L70.7909 11.8241L68.0215 8.14817L69.291 6.45961C69.0018 6.45961 68.7127 6.45961 68.419 6.45508L67.5833 7.56419L66.7475 6.45508C66.4583 6.45508 66.1647 6.45508 65.8756 6.45961L67.145 8.14817L64.3757 11.8241L61.5702 8.14817L62.8035 6.49129C62.5098 6.49582 62.2162 6.50035 61.9271 6.50487L61.1319 7.57325L60.3368 6.53204C60.0477 6.53656 59.7631 6.54562 59.4739 6.55014L60.6982 8.15723L57.9695 11.8286L55.1279 8.14817L56.2392 6.63163C55.9411 6.64068 55.6474 6.64974 55.3537 6.66332L54.6851 7.57325L54.0165 6.70859C53.7274 6.71764 53.4473 6.73122 53.1626 6.74481L54.2605 8.16175L51.5724 11.8331L48.6811 8.14817L49.5756 6.90778C49.2729 6.92136 48.9792 6.93947 48.6811 6.95757L48.2338 7.57777L47.7865 7.00284C47.5019 7.02095 47.2263 7.03906 46.9417 7.05717L47.8091 8.16175L45.1617 11.8286L42.2342 8.14365L42.8035 7.34237C42.5008 7.365 42.1936 7.38764 41.8954 7.4148L41.7825 7.57777L41.6695 7.43744C41.3894 7.46007 41.1138 7.48271 40.8383 7.50987L41.3623 8.17081L38.7511 11.8286L35.7829 8.13912L35.8778 8.00331C35.539 8.04405 35.2046 8.08027 34.8749 8.12101ZM93.366 8.73216L95.9727 12.39L93.0497 16.0206L90.4385 12.4081L93.366 8.73216ZM86.9237 8.73216L89.5711 12.3945L86.6888 16.0251L84.0414 12.4126L86.9237 8.73216ZM80.4769 8.73216L83.1604 12.399L80.3188 16.0251L77.6307 12.4081L80.4769 8.73216ZM74.0346 8.73216L76.7588 12.399L73.9533 16.0251L71.2246 12.4081L74.0346 8.73216ZM67.5878 8.73216L70.3526 12.4035L67.5878 16.0251L64.8229 12.4035L67.5878 8.73216ZM61.1455 8.73216L63.951 12.4035L61.2268 16.0206L58.4213 12.3945L61.1455 8.73216ZM54.7032 8.73216L57.5494 12.4081L54.8613 16.0251L52.0197 12.399L54.7032 8.73216ZM48.2564 8.73216L51.1387 12.4126L48.4913 16.0251L45.609 12.3945L48.2564 8.73216ZM41.8141 8.73216L44.7371 12.4126L42.1303 16.0251L39.2028 12.3945L41.8141 8.73216Z" fill="#080F20"/>
<path d="M98.0435 137.974L98.414 135.941L96.4352 132.591L98.9877 128.766L99.5479 129.725L99.7603 128.567L99.4621 128.055L100.004 127.245L100.357 125.307L99.0239 127.304L96.7785 123.46L99.3717 119.526L100.921 122.215L101.134 121.047L99.8416 118.811L102.191 115.248L102.548 113.288L102.512 113.342L100.235 109.336L102.905 105.234L103.745 106.728L103.962 105.551L103.379 104.515L104.454 102.867L104.816 100.889L102.954 103.75L100.641 99.63L103.356 95.4154L105.209 98.7563L105.425 97.5702L103.831 94.6866L106.587 90.4085L106.699 90.6123L107.16 88.0862L106.636 88.9011L104.287 84.6049L107.088 80.2047L108.217 82.2962L108.434 81.0965L107.558 79.4668L109.207 76.8774L109.577 74.8538L107.138 78.6836L104.757 74.2608L107.603 69.7338L109.767 73.8081L109.988 72.6039L108.073 68.9959L110.964 64.401L111.353 65.1434L111.574 63.9302L111.434 63.6585L111.705 63.233L112.08 61.1823L111.023 62.8663L108.606 58.2488L111.547 53.5181L112.975 56.2886L113.196 55.0708L112.012 52.7711L114.285 49.1178L114.849 46.0123L112.6 41.5895L115.636 36.646L116.313 37.995L116.539 36.7591L116.101 35.8854L116.95 34.5047L117.334 32.4042L115.699 35.0706L113.21 30.0999L116.3 25.0026L118.044 28.5336L118.269 27.2887L116.76 24.2375L119.711 19.371L120.099 17.2433L119.964 17.4696L118.852 15.1835H118.016L119.503 18.2347L116.363 23.4136L113.833 18.289L115.694 15.179H114.795L113.426 17.4651L112.297 15.179H111.457L112.966 18.2347L109.866 23.409L107.296 18.28L109.135 15.1744H108.24L106.885 17.4606L105.737 15.1744H104.892L106.424 18.2347L103.365 23.409L100.754 18.2754L102.566 15.1744H101.676L100.339 17.4606L99.173 15.1744H98.3236L99.8822 18.2392L96.8644 23.409L94.2125 18.2709L95.997 15.1744H95.1115L93.7923 17.4606L92.6087 15.1744H91.7548L93.3406 18.2438L90.3634 23.409L87.6708 18.2709L89.4327 15.179H88.5518L87.2506 17.4651L86.0534 15.179H85.1951L86.8034 18.2483L83.8669 23.409L81.1336 18.2664L82.8684 15.1744H81.992L80.709 17.4606L79.4937 15.1744H78.6308L80.2662 18.2483L77.3704 23.4045L74.5965 18.2573L76.3087 15.1699H75.4368L74.1718 17.4561L72.9385 15.1699H72.0756L73.7336 18.2483L70.8784 23.4045L68.0638 18.2528L69.7489 15.1699H68.8815L67.6301 17.4561L66.3787 15.1699H65.5113L67.1964 18.2528L64.3819 23.4045L61.5267 18.2483L63.1847 15.1699H62.3218L61.0884 17.4561L59.819 15.1699H58.947L60.6547 18.2573L57.8808 23.4045L54.985 18.2483L56.6204 15.1744H55.7575L54.5422 17.4606L53.2592 15.1744H52.3828L54.1176 18.2664L51.3843 23.409L48.4478 18.2483L50.0561 15.1744H49.1978L48.0006 17.4606L46.6995 15.1744H45.8185L47.5804 18.2664L44.8878 23.4045L41.9107 18.2392L43.4964 15.1699H42.6425L41.4634 17.4561L40.1081 15.1971H39.2226L41.0071 18.2935L38.3552 23.4317L35.3373 18.2619L36.896 15.1971H36.0466L34.8811 17.4832L33.5438 15.1971H32.6538L34.4654 18.2981L31.8542 23.4272L28.7957 18.2528L30.3317 15.1926H29.4914L28.3439 17.4787L26.9886 15.1926H26.0941L27.9328 18.2981L25.3622 23.4272L22.263 18.2528L23.7719 15.1971H22.9316L21.8022 17.4832L20.4333 15.1971H19.5343L21.3956 18.3071L18.8657 23.4317L15.7259 18.2483L17.2122 15.1971H16.3719L15.2605 17.4832L15.125 17.2569L15.5135 19.3846L18.4636 24.2511L16.9547 27.3023L17.1806 28.5472L18.9244 25.0161L22.0145 30.1135L19.5253 35.0842L17.8899 32.4178L18.2739 34.5183L19.1232 35.899L18.685 36.7727L18.9109 38.0086L19.5885 36.6596L22.6244 41.603L20.3746 46.0259L20.9393 49.1269L23.2117 52.7802L22.0236 55.0799L22.245 56.3022L23.6726 53.5317L26.6136 58.2624L24.1966 62.8799L23.1395 61.1959L23.5144 63.2466L23.7855 63.6721L23.6454 63.9437L23.8668 65.157L24.2553 64.4191L27.1467 69.014L25.2312 72.622L25.4525 73.8262L27.6165 69.7519L30.4627 74.2789L28.0819 78.7017L25.6423 74.8719L26.0127 76.8955L27.6617 79.4849L26.7853 81.1146L27.0021 82.3143L28.1316 80.2228L30.9326 84.623L28.5833 88.9192L28.0593 88.1043L28.5201 90.6304L28.633 90.4267L31.3888 94.7047L29.7896 97.5884L30.0064 98.7744L31.8587 95.4335L34.5738 99.6481L32.2608 103.768L30.3995 100.907L30.7609 102.885L31.8361 104.533L31.2533 105.569L31.4702 106.746L32.3105 105.253L34.9804 109.354L32.699 113.36L32.6628 113.306L33.0197 115.266L35.369 118.829L34.0769 121.065L34.2892 122.233L35.8388 119.544L38.432 123.478L36.1867 127.322L34.8539 125.325L35.2063 127.263L35.7485 128.073L35.4503 128.585L35.6626 129.744L36.2228 128.779L38.7753 132.605L36.7966 135.955L37.167 137.987H37.6685L37.0405 137.055L39.2497 133.315L41.7661 137.086L41.2285 137.983H42.1275L42.2404 137.797L42.3669 137.983H43.3066L42.6877 137.055L44.9285 133.315L47.4133 137.086L46.8666 137.987H47.7702L47.8831 137.802L48.0051 137.987H48.9403L48.3304 137.059L50.6028 133.315L53.0559 137.082L52.5002 137.987H53.4083L53.5257 137.802L53.6477 137.987H54.5784L53.9775 137.064L56.2771 133.315L58.6986 137.077L58.1338 137.987H59.0464L59.1639 137.802L59.2859 137.987H60.212L59.6202 137.068L61.9513 133.315L64.3457 137.073L63.772 137.983H64.6891L64.8065 137.793L64.9285 137.983H65.8501L65.2673 137.068L67.6301 133.315L69.9929 137.073L69.4101 137.987H70.3317L70.4537 137.797L70.5712 137.987H71.4883L70.9145 137.077L73.3089 133.32L75.6401 137.073L75.0482 137.992H75.9744L76.0964 137.806L76.2138 137.992H77.1264L76.5617 137.082L78.9877 133.32L81.2872 137.068L80.6864 137.992H81.617L81.739 137.806L81.8565 137.992H82.76L82.2043 137.086L84.6575 133.32L86.9299 137.064L86.32 137.992H87.2552L87.3817 137.806L87.4946 137.992H88.3981L87.8515 137.091L90.3363 133.32L92.5771 137.059L91.9581 137.987H92.8978L93.0243 137.802L93.1373 137.987H94.0363L93.4987 137.091L96.0151 133.32L98.2242 137.059L97.5963 137.992H98.0435V137.974ZM96.3358 122.713L94.0589 118.811L96.6566 114.827L98.9335 118.775L96.3358 122.713ZM46.0579 69.7474L48.7957 74.2653L46.3064 78.6972L43.5687 74.2381L46.0579 69.7474ZM43.1124 73.4866L40.334 68.9597L42.8232 64.4055L45.6016 68.9913L43.1124 73.4866ZM91.6103 74.2381L88.8725 78.6972L86.3832 74.2653L89.121 69.7474L91.6103 74.2381ZM89.5773 68.9913L92.3602 64.41L94.8495 68.9642L92.0711 73.4912L89.5773 68.9913ZM52.4099 80.2138L55.0708 84.6004L52.5861 88.9146L49.9251 84.5823L52.4099 80.2138ZM49.4688 83.8354L46.7717 79.4396L49.2565 75.0122L51.9581 79.4623L49.4688 83.8354ZM52.8436 79.4442L55.3645 75.0122L58.0299 79.4578L55.509 83.8354L52.8436 79.4442ZM58.4817 80.2138L61.1065 84.5959L58.5856 88.9101L55.9608 84.5823L58.4817 80.2138ZM58.9199 79.4487L61.477 75.0122L64.1063 79.4532L61.5492 83.8354L58.9199 79.4487ZM64.5535 80.2138L67.1422 84.5914L64.5852 88.9101L61.9965 84.5868L64.5535 80.2138ZM65.0008 79.4532L67.594 75.0122L70.1872 79.4532L67.594 83.8354L65.0008 79.4532ZM70.6299 80.2138L73.1869 84.5868L70.5983 88.9101L68.0412 84.5914L70.6299 80.2138ZM71.0772 79.4532L73.7065 75.0122L76.2635 79.4487L73.6342 83.8354L71.0772 79.4532ZM76.7017 80.2138L79.2226 84.5868L76.5978 88.9146L74.0769 84.6004L76.7017 80.2138ZM77.1535 79.4578L79.819 75.0122L82.3399 79.4442L79.6744 83.8354L77.1535 79.4578ZM82.7736 80.2138L85.2583 84.5823L82.5974 88.9146L80.1126 84.6004L82.7736 80.2138ZM83.2299 79.4623L85.9315 75.0122L88.4162 79.4396L85.7191 83.8354L83.2299 79.4623ZM88.8454 80.2138L91.294 84.5778L88.6014 88.9101L86.1528 84.6004L88.8454 80.2138ZM85.9495 73.4866L83.4241 68.9868L86.1664 64.4055L88.6918 68.9642L85.9495 73.4866ZM85.4932 74.2381L82.7916 78.6927L80.2662 74.2562L82.9678 69.7428L85.4932 74.2381ZM79.8325 73.4912L77.271 68.9868L79.9771 64.41L82.5386 68.9732L79.8325 73.4912ZM79.3807 74.2427L76.7153 78.6927L74.1537 74.2517L76.8237 69.7428L79.3807 74.2427ZM73.711 73.4912L71.1133 68.9823L73.7833 64.41L76.381 68.9778L73.711 73.4912ZM73.2637 74.2472L70.6344 78.6972L68.0367 74.2517L70.6706 69.7474L73.2637 74.2472ZM67.5895 73.4912L64.9556 68.9778L67.5895 64.41L70.2233 68.9778L67.5895 73.4912ZM67.1467 74.2517L64.549 78.6972L61.9197 74.2472L64.5129 69.7428L67.1467 74.2517ZM61.4724 73.4912L58.8025 68.9778L61.4002 64.41L64.0701 68.9823L61.4724 73.4912ZM61.0297 74.2562L58.4682 78.6972L55.8027 74.2472L58.3642 69.7474L61.0297 74.2562ZM55.3509 73.4866L52.6448 68.9687L55.2063 64.4055L57.9125 68.9823L55.3509 73.4866ZM54.9172 74.2562L52.3918 78.6927L49.6902 74.2381L52.2156 69.7428L54.9172 74.2562ZM49.2339 73.4866L46.4916 68.9642L49.0171 64.4055L51.7593 68.9868L49.2339 73.4866ZM46.3335 80.2138L49.0306 84.6049L46.582 88.9146L43.8894 84.5823L46.3335 80.2138ZM46.6046 90.4131L49.2565 94.6775L46.844 98.865L44.1921 94.6503L46.6046 90.4131ZM47.0383 89.648L49.4869 85.3428L52.1433 89.6661L49.6947 93.917L47.0383 89.648ZM52.5996 90.4131L55.2154 94.6775L52.7668 98.8695L50.151 94.6594L52.5996 90.4131ZM53.0378 89.6525L55.5226 85.3474L58.1429 89.6706L55.6581 93.926L53.0378 89.6525ZM58.5946 90.4131L61.1788 94.673L58.6986 98.8695L56.1144 94.6639L58.5946 90.4131ZM59.0374 89.6571L61.5538 85.3474L64.1424 89.6661L61.626 93.9215L59.0374 89.6571ZM64.5942 90.4131L67.1422 94.6684L64.6258 98.865L62.0778 94.6639L64.5942 90.4131ZM65.0415 89.6616L67.594 85.3474L70.1465 89.6616L67.594 93.9215L65.0415 89.6616ZM70.5892 90.4131L73.1056 94.6639L70.5576 98.865L68.0412 94.6684L70.5892 90.4131ZM71.041 89.6616L73.6297 85.3428L76.1461 89.6525L73.5619 93.917L71.041 89.6616ZM76.5843 90.4131L79.0645 94.6594L76.4804 98.865L74.0001 94.6684L76.5843 90.4131ZM77.0406 89.6661L79.6609 85.3428L82.1456 89.6525L79.5253 93.9215L77.0406 89.6661ZM82.5838 90.4131L85.0324 94.6594L82.4167 98.8695L79.9681 94.6775L82.5838 90.4131ZM83.0401 89.6706L85.6965 85.3474L88.1452 89.6525L85.4887 93.9215L83.0401 89.6706ZM88.5789 90.4131L90.9913 94.6549L88.3394 98.8695L85.9269 94.682L88.5789 90.4131ZM89.0397 89.6752L91.7322 85.3474L94.1447 89.648L91.4567 93.9215L89.0397 89.6752ZM89.3062 79.4668L92.0394 75.0122L94.4881 79.4351L91.7548 83.8308L89.3062 79.4668ZM92.5003 74.2653L95.2741 69.7474L97.7273 74.2336L94.9534 78.6972L92.5003 74.2653ZM92.8165 63.654L95.6401 59.0003L98.1293 63.6223L95.3103 68.2172L92.8165 63.654ZM92.3873 62.8708L89.8574 58.2443L92.6855 53.5271L95.2109 58.2171L92.3873 62.8708ZM91.931 63.6269L89.1481 68.2172L86.6227 63.654L89.4056 59.0048L91.931 63.6269ZM86.189 62.8708L83.6229 58.2397L86.4103 53.5226L88.9764 58.2171L86.189 62.8708ZM85.7372 63.6314L82.9904 68.2172L80.4243 63.6495L83.1711 59.0048L85.7372 63.6314ZM79.9906 62.8708L77.3884 58.2352L80.1397 53.5226L82.7419 58.2216L79.9906 62.8708ZM79.5389 63.6359L76.8282 68.2172L74.226 63.645L76.9367 59.0048L79.5389 63.6359ZM73.7923 62.8754L71.154 58.2352L73.8691 53.5271L76.5075 58.2307L73.7923 62.8754ZM73.3451 63.6404L70.6706 68.2172L68.0322 63.6404L70.7067 59.0003L73.3451 63.6404ZM67.5895 62.8754L64.9104 58.2307L67.5895 53.5271L70.264 58.2307L67.5895 62.8754ZM67.1467 63.6404L64.5084 68.2172L61.8339 63.6404L64.4722 59.0048L67.1467 63.6404ZM61.3911 62.8754L58.676 58.2262L61.3143 53.5226L64.0295 58.2307L61.3911 62.8754ZM60.9529 63.645L58.3507 68.2172L55.64 63.6359L58.2377 59.0048L60.9529 63.645ZM55.1928 62.8754L52.4415 58.2262L55.0437 53.5271L57.795 58.2397L55.1928 62.8754ZM54.7591 63.6495L52.193 68.2172L49.4462 63.6314L52.0078 59.0048L54.7591 63.6495ZM48.9945 62.8708L46.207 58.2171L48.7731 53.5226L51.5605 58.2397L48.9945 62.8708ZM48.5608 63.654L46.0353 68.2172L43.2524 63.6269L45.7778 59.0048L48.5608 63.654ZM42.7961 62.8708L39.9725 58.2126L42.498 53.5226L45.3261 58.2397L42.7961 62.8708ZM42.3669 63.654L39.8777 68.2127L37.0586 63.6223L39.5479 59.0003L42.3669 63.654ZM39.9093 69.7474L42.6832 74.2698L40.2301 78.6972L37.4562 74.2336L39.9093 69.7474ZM43.144 75.0122L45.8772 79.4668L43.4241 83.8354L40.6909 79.4396L43.144 75.0122ZM43.4512 85.3474L46.1438 89.6752L43.7268 93.9215L41.0387 89.648L43.4512 85.3474ZM43.7584 95.4199L46.4058 99.63L44.025 103.759L41.3776 99.6029L43.7584 95.4199ZM46.8666 100.363L49.4779 104.51L47.1015 108.584L44.4948 104.487L46.8666 100.363ZM47.3048 99.6029L49.7173 95.4199L52.3331 99.6255L49.9206 103.754L47.3048 99.6029ZM52.7894 100.363L55.3645 104.51L52.952 108.584L50.3769 104.492L52.7894 100.363ZM53.2276 99.6074L55.6717 95.4199L58.2513 99.621L55.8072 103.754L53.2276 99.6074ZM58.7076 100.363L61.2511 104.506L58.807 108.584L56.2635 104.497L58.7076 100.363ZM59.1549 99.6074L61.6351 95.4154L64.1831 99.6119L61.7029 103.75L59.1549 99.6074ZM64.6303 100.363L67.1422 104.501L64.6665 108.584L62.1591 104.497L64.6303 100.363ZM65.0776 99.6119L67.5895 95.4154L70.1013 99.6074L67.5895 103.75L65.0776 99.6119ZM70.5531 100.363L73.0288 104.497L70.5215 108.584L68.0458 104.501L70.5531 100.363ZM71.0049 99.6164L73.5529 95.4199L76.0331 99.6119L73.4851 103.759L71.0049 99.6164ZM76.4758 100.363L78.9199 104.492L76.3765 108.58L73.9324 104.501L76.4758 100.363ZM76.9276 99.621L79.5072 95.4199L81.9513 99.6074L79.3717 103.759L76.9276 99.621ZM82.3941 100.363L84.802 104.492L82.2269 108.584L79.8145 104.51L82.3941 100.363ZM82.8549 99.6255L85.4707 95.4199L87.8831 99.6029L85.2719 103.754L82.8549 99.6255ZM88.3168 100.363L90.6932 104.487L88.0864 108.584L85.7101 104.51L88.3168 100.363ZM88.7776 99.63L91.425 95.4199L93.8014 99.5983L91.154 103.754L88.7776 99.63ZM94.2396 100.363L96.5843 104.483L93.9414 108.584L91.5967 104.515L94.2396 100.363ZM91.8904 94.682L94.5784 90.4131L96.9593 94.6503L94.2757 98.8695L91.8904 94.682ZM92.1885 84.6049L94.9172 80.2138L97.3297 84.5733L94.601 88.9101L92.1885 84.6049ZM95.3826 79.4713L98.1519 75.0168L100.569 79.4396L97.7996 83.8399L95.3826 79.4713ZM95.735 68.9959L98.554 64.41L101.007 68.9597L98.1926 73.4866L95.735 68.9959ZM96.0964 58.2488L98.9606 53.5271L101.45 58.2126L98.5856 62.8754L96.0964 58.2488ZM99.4214 52.7711L102.331 47.977L104.82 52.7304L101.915 57.4611L99.4214 52.7711ZM98.9968 51.9744L96.4668 47.212L99.3808 42.35L101.911 47.1758L98.9968 51.9744ZM98.5405 52.7304L95.6717 57.4566L93.1418 52.7621L96.0105 47.9725L98.5405 52.7304ZM92.7171 51.9744L90.1465 47.2075L93.0198 42.3455L95.5859 47.1758L92.7171 51.9744ZM92.2608 52.7349L89.4282 57.4611L86.8621 52.7621L89.6947 47.9725L92.2608 52.7349ZM86.4375 51.9789L83.8307 47.2075L86.6679 42.35L89.2746 47.1848L86.4375 51.9789ZM85.9857 52.7394L83.1937 57.4611L80.5915 52.7575L83.3835 47.9725L85.9857 52.7394ZM80.1533 51.9789L77.5104 47.2029L80.3069 42.35L82.9498 47.1893L80.1533 51.9789ZM79.706 52.744L76.9502 57.4611L74.3073 52.753L77.0632 47.9725L79.706 52.744ZM73.8736 51.9789L71.1901 47.2029L73.9504 42.3545L76.634 47.1984L73.8736 51.9789ZM73.4309 52.7485L70.7157 57.4611L68.0367 52.7485L70.7519 47.9725L73.4309 52.7485ZM67.5895 51.9789L64.8698 47.1984L67.5895 42.3545L70.3091 47.1984L67.5895 51.9789ZM67.1512 52.753L64.4722 57.4656L61.7571 52.753L64.4361 47.9816L67.1512 52.753ZM61.3098 51.9789L58.5495 47.1939L61.233 42.35L63.9933 47.1984L61.3098 51.9789ZM60.8716 52.753L58.2287 57.4611L55.4729 52.744L58.1158 47.9725L60.8716 52.753ZM55.0302 51.9789L52.2337 47.1893L54.8766 42.35L57.673 47.2029L55.0302 51.9789ZM54.5965 52.7575L51.9897 57.4611L49.1978 52.7394L51.8 47.9725L54.5965 52.7575ZM48.746 51.9789L45.9134 47.1848L48.5201 42.35L51.3572 47.2075L48.746 51.9789ZM48.3168 52.7621L45.7507 57.4611L42.9226 52.7349L45.4887 47.9725L48.3168 52.7621ZM42.4663 51.9789L39.5931 47.1848L42.1591 42.3545L45.0324 47.212L42.4663 51.9789ZM42.0417 52.7666L39.5117 57.4611L36.643 52.7349L39.1729 47.977L42.0417 52.7666ZM36.1822 51.9789L33.2727 47.1803L35.8027 42.3545L38.7166 47.2165L36.1822 51.9789ZM35.762 52.7711L33.2682 57.4611L30.3633 52.7304L32.8526 47.977L35.762 52.7711ZM36.2228 53.5271L39.0871 58.2488L36.5933 62.8754L33.729 58.2126L36.2228 53.5271ZM36.6294 64.41L39.4485 68.9959L36.9954 73.4866L34.1808 68.9597L36.6294 64.41ZM37.0315 75.0122L39.8009 79.4713L37.3839 83.8354L34.6145 79.4351L37.0315 75.0122ZM40.2617 80.2138L42.9904 84.6049L40.5734 88.9101L37.8492 84.5733L40.2617 80.2138ZM40.6095 90.4131L43.2976 94.682L40.9168 98.865L38.2332 94.6458L40.6095 90.4131ZM40.9439 100.363L43.5867 104.515L41.242 108.584L38.5992 104.483L40.9439 100.363ZM44.0521 105.243L46.6588 109.336L44.3141 113.351L41.7119 109.309L44.0521 105.243ZM47.1196 110.065L49.6902 114.098L47.3455 118.059L44.7794 114.076L47.1196 110.065ZM47.5623 109.309L49.9387 105.243L52.5093 109.331L50.1329 113.351L47.5623 109.309ZM52.9701 110.065L55.5045 114.094L53.1282 118.059L50.5937 114.076L52.9701 110.065ZM53.4128 109.313L55.8208 105.243L58.3597 109.327L55.9518 113.347L53.4128 109.313ZM58.8205 110.065L61.3234 114.094L58.9154 118.059L56.4126 114.08L58.8205 110.065ZM59.2678 109.318L61.7074 105.243L64.2147 109.327L61.7751 113.351L59.2678 109.318ZM64.6665 110.065L67.1377 114.089L64.6981 118.059L62.2269 114.085L64.6665 110.065ZM65.1183 109.322L67.594 105.243L70.0697 109.322L67.594 113.351L65.1183 109.322ZM70.517 110.065L72.9565 114.085L70.4853 118.059L68.0458 114.089L70.517 110.065ZM70.9687 109.327L73.4761 105.243L75.9156 109.318L73.4083 113.351L70.9687 109.327ZM76.3629 110.065L78.7709 114.08L76.268 118.059L73.8601 114.094L76.3629 110.065ZM76.8237 109.327L79.3627 105.243L81.7706 109.313L79.2317 113.347L76.8237 109.327ZM82.2134 110.065L84.5852 114.08L82.0507 118.064L79.6744 114.098L82.2134 110.065ZM82.6742 109.331L85.2448 105.243L87.6211 109.309L85.0505 113.347L82.6742 109.331ZM88.0593 110.065L90.3995 114.076L87.8334 118.059L85.4887 114.098L88.0593 110.065ZM88.5246 109.336L91.1314 105.243L93.4761 109.309L90.8739 113.351L88.5246 109.336ZM93.9098 110.065L96.2183 114.071L93.6206 118.059L91.3121 114.103L93.9098 110.065ZM94.3751 109.34L97.0135 105.243L99.322 109.304L96.6837 113.351L94.3751 109.34ZM94.7049 99.63L97.3884 95.4199L99.7331 99.5983L97.0541 103.759L94.7049 99.63ZM95.0392 89.6797L97.7634 85.3474L100.144 89.6435L97.4201 93.9215L95.0392 89.6797ZM98.2287 84.6095L100.994 80.2138L103.374 84.5687L100.61 88.9101L98.2287 84.6095ZM98.6127 74.2698L101.423 69.7474L103.84 74.2291L101.03 78.6972L98.6127 74.2698ZM99.0148 63.6585L101.875 59.0003L104.328 63.6178L101.472 68.2127L99.0148 63.6585ZM102.335 58.2533L105.236 53.5271L107.689 58.208L104.788 62.8754L102.335 58.2533ZM102.787 47.2165L105.737 42.35L108.226 47.1712L105.276 51.9744L102.787 47.2165ZM106.198 41.5895L109.198 36.646L111.687 41.5397L108.692 46.4152L106.198 41.5895ZM105.787 40.7882L103.257 35.8854L106.261 30.8695L108.787 35.8402L105.787 40.7882ZM105.326 41.5487L102.372 46.4198L99.8416 41.5895L102.801 36.6505L105.326 41.5487ZM99.4214 40.7882L96.8508 35.8809L99.8145 30.8695L102.381 35.8447L99.4214 40.7882ZM98.9651 41.5487L96.0467 46.4198L93.4761 41.5849L96.3945 36.6505L98.9651 41.5487ZM93.0559 40.7882L90.4447 35.8764L93.3677 30.8695L95.9744 35.8492L93.0559 40.7882ZM92.5996 41.5532L89.7218 46.4198L87.1151 41.5804L89.9929 36.6505L92.5996 41.5532ZM86.6904 40.7882L84.0431 35.8719L86.9254 30.8695L89.5728 35.8492L86.6904 40.7882ZM86.2387 41.5578L83.4015 46.4198L80.7541 41.5759L83.5958 36.646L86.2387 41.5578ZM80.325 40.7882L77.6369 35.8719L80.4831 30.8741L83.1666 35.8583L80.325 40.7882ZM79.8777 41.5623L77.0767 46.4198L74.3932 41.5713L77.1942 36.646L79.8777 41.5623ZM73.9595 40.7882L71.2308 35.8673L74.0363 30.8741L76.7605 35.8628L73.9595 40.7882ZM73.5167 41.5668L70.7564 46.4198L68.0322 41.5668L70.7925 36.646L73.5167 41.5668ZM67.5895 40.7882L64.8246 35.8628L67.5895 30.8695L70.3543 35.8628L67.5895 40.7882ZM67.1512 41.5668L64.427 46.4198L61.6667 41.5668L64.3909 36.6505L67.1512 41.5668ZM61.224 40.7882L58.4185 35.8583L61.1427 30.8695L63.9482 35.8628L61.224 40.7882ZM60.7903 41.5713L58.1067 46.4198L55.3057 41.5623L57.9893 36.6505L60.7903 41.5713ZM54.8585 40.7882L52.0168 35.8538L54.7049 30.8695L57.5511 35.8673L54.8585 40.7882ZM54.4293 41.5759L51.7819 46.4198L48.9448 41.5578L51.5922 36.646L54.4293 41.5759ZM48.493 40.7882L45.6107 35.8538L48.2581 30.8741L51.1404 35.8764L48.493 40.7882ZM48.0683 41.5804L45.4616 46.4198L42.5838 41.5532L45.1905 36.646L48.0683 41.5804ZM42.1275 40.7882L39.2045 35.8492L41.8113 30.8741L44.7342 35.8809L42.1275 40.7882ZM41.7074 41.5849L39.1368 46.4198L36.2183 41.5487L38.7844 36.646L41.7074 41.5849ZM35.762 40.7882L32.7984 35.8447L35.3645 30.8695L38.3281 35.8809L35.762 40.7882ZM35.3464 41.5895L32.8165 46.4198L29.8619 41.5487L32.3918 36.6505L35.3464 41.5895ZM29.3965 40.7882L26.3967 35.8402L28.9267 30.8695L31.931 35.8854L29.3965 40.7882ZM28.9809 41.5895L26.4871 46.4198L23.4918 41.5442L25.9811 36.6505L28.9809 41.5895ZM29.4417 42.35L32.3963 47.2165L29.9025 51.9744L26.9524 47.1712L29.4417 42.35ZM29.9477 53.5271L32.8481 58.2533L30.3949 62.8754L27.4946 58.2126L29.9477 53.5271ZM33.3134 59.0048L36.1731 63.6585L33.72 68.2127L30.8648 63.6178L33.3134 59.0048ZM33.7561 69.7474L36.5662 74.2698L34.1492 78.6972L31.3392 74.2291L33.7561 69.7474ZM34.1898 80.2138L36.9547 84.6095L34.5738 88.9101L31.809 84.5687L34.1898 80.2138ZM37.42 85.3474L40.1442 89.6797L37.7634 93.9215L35.0392 89.6435L37.42 85.3474ZM37.7995 95.4199L40.483 99.63L38.1383 103.754L35.4548 99.5938L37.7995 95.4199ZM38.1654 105.243L40.8038 109.34L38.4907 113.351L35.8524 109.304L38.1654 105.243ZM41.2737 110.065L43.8759 114.103L41.5673 118.059L38.9696 114.071L41.2737 110.065ZM41.5944 119.531L44.156 123.46L41.879 127.308L39.322 123.428L41.5944 119.531ZM42.0326 118.779L44.3412 114.827L46.9073 118.806L44.5987 122.709L42.0326 118.779ZM47.3726 119.531L49.9025 123.456L47.594 127.308L45.0686 123.428L47.3726 119.531ZM47.8153 118.779L50.1555 114.823L52.69 118.802L50.3498 122.709L47.8153 118.779ZM53.1508 119.531L55.6491 123.451L53.3089 127.308L50.8151 123.433L53.1508 119.531ZM53.5935 118.784L55.9653 114.823L58.4636 118.797L56.0918 122.709L53.5935 118.784ZM58.9244 119.531L61.3911 123.451L59.0193 127.313L56.5526 123.442L58.9244 119.531ZM59.3762 118.788L61.7797 114.827L64.2463 118.797L61.8429 122.713L59.3762 118.788ZM64.7026 119.531L67.1377 123.447L64.7343 127.308L62.2992 123.442L64.7026 119.531ZM65.1544 118.793L67.5895 114.827L70.0245 118.793L67.5895 122.713L65.1544 118.793ZM70.4808 119.531L72.8842 123.442L70.4492 127.308L68.0458 123.447L70.4808 119.531ZM70.9371 118.797L73.4038 114.827L75.8072 118.788L73.3405 122.709L70.9371 118.797ZM76.259 119.531L78.6308 123.437L76.1686 127.308L73.7968 123.447L76.259 119.531ZM76.7153 118.797L79.2181 114.823L81.5899 118.784L79.0916 122.709L76.7153 118.797ZM82.0327 119.531L84.3728 123.433L81.8791 127.308L79.5389 123.451L82.0327 119.531ZM82.498 118.802L85.0279 114.823L87.3681 118.779L84.8382 122.709L82.498 118.802ZM87.8108 119.531L90.1194 123.428L87.594 127.308L85.2854 123.456L87.8108 119.531ZM88.2762 118.806L90.8422 114.827L93.1508 118.779L90.5893 122.713L88.2762 118.806ZM93.589 119.531L95.866 123.428L93.3089 127.308L91.032 123.46L93.589 119.531ZM102.037 114.067L99.4034 118.059L97.1264 114.107L99.7603 110.065L102.037 114.067ZM102.471 104.478L99.7964 108.584L97.4833 104.519L100.162 100.363L102.471 104.478ZM100.198 98.8695L97.8538 94.6866L100.573 90.4131L102.918 94.6458L100.198 98.8695ZM106.144 89.639L103.383 93.9215L101.034 89.6842L103.795 85.3474L106.144 89.639ZM106.645 79.4306L103.84 83.8354L101.459 79.4759L104.264 75.0168L106.645 79.4306ZM104.31 73.4866L101.893 68.9959L104.748 64.4055L107.165 68.9506L104.31 73.4866ZM110.521 63.6178L107.626 68.2172L105.209 63.6676L108.105 59.0093L110.521 63.6178ZM108.154 57.4611L105.701 52.7757L108.647 47.977L111.1 52.7259L108.154 57.4611ZM114.551 47.1712L111.565 51.9789L109.112 47.2256L112.103 42.3545L114.551 47.1712ZM115.193 35.8356L112.152 40.7882L109.659 35.89L112.704 30.8741L115.193 35.8356ZM113.322 19.0767L115.848 24.1967L112.753 29.2987L110.223 24.2511L113.322 19.0767ZM112.297 30.0547L109.252 35.0796L106.722 30.1045L109.772 25.0116L112.297 30.0547ZM106.79 19.0767L109.356 24.2013L106.302 29.2987L103.731 24.2465L106.79 19.0767ZM105.846 30.0592L102.837 35.0796L100.266 30.0999L103.275 25.0116L105.846 30.0592ZM100.257 19.0767L102.864 24.2013L99.8506 29.2941L97.2394 24.2375L100.257 19.0767ZM99.3988 30.0637L96.4307 35.0796L93.8194 30.0954L96.7876 25.0116L99.3988 30.0637ZM93.7246 19.0767L96.3719 24.2058L93.3993 29.2941L90.7474 24.233L93.7246 19.0767ZM92.9475 30.0683L90.02 35.0796L87.3726 30.0909L90.3001 25.0116L92.9475 30.0683ZM87.1919 19.0767L89.88 24.2103L86.948 29.2941L84.2554 24.2284L87.1919 19.0767ZM86.5007 30.0728L83.6139 35.0796L80.9258 30.0909L83.8127 25.0161L86.5007 30.0728ZM80.6593 19.0767L83.388 24.2149L80.4966 29.2987L77.7679 24.233L80.6593 19.0767ZM80.0539 30.0728L77.2077 35.0796L74.479 30.0864L77.3252 25.0116L80.0539 30.0728ZM74.1266 19.0767L76.896 24.2194L74.0453 29.2987L71.2759 24.2284L74.1266 19.0767ZM73.6026 30.0773L70.7971 35.0796L68.0277 30.0818L70.8377 25.0116L73.6026 30.0773ZM67.5895 19.0767L70.3995 24.2239L67.5895 29.2987L64.7794 24.2239L67.5895 19.0767ZM64.3457 25.0116L67.1558 30.0818L64.3864 35.0796L61.5809 30.0773L64.3457 25.0116ZM61.0568 19.0767L63.9075 24.2239L61.1381 29.2941L58.2874 24.2149L61.0568 19.0767ZM57.8583 25.0116L60.7044 30.0864L57.9757 35.0796L55.1295 30.0773L57.8583 25.0116ZM54.5242 19.0767L57.4155 24.2284L54.6868 29.2941L51.7955 24.2103L54.5242 19.0767ZM51.3708 25.0116L54.2576 30.0864L51.5696 35.0751L48.6827 30.0683L51.3708 25.0116ZM47.9915 19.0767L50.9235 24.233L48.231 29.2987L45.3035 24.2103L47.9915 19.0767ZM44.8833 25.0116L47.8108 30.0909L45.1634 35.0796L42.2359 30.0683L44.8833 25.0116ZM41.4589 19.0767L44.4315 24.2375L41.7796 29.2987L38.807 24.2103L41.4589 19.0767ZM38.3913 25.0116L41.3595 30.0954L38.7528 35.0796L35.7846 30.0637L38.3913 25.0116ZM34.9262 19.0767L37.9396 24.242L35.3283 29.2987L32.315 24.2058L34.9262 19.0767ZM31.9039 25.0116L34.9127 30.0999L32.3421 35.0796L29.3378 30.0592L31.9039 25.0116ZM28.3936 19.0767L31.4521 24.242L28.8815 29.2941L25.8275 24.1967L28.3936 19.0767ZM25.4164 25.0116L28.4659 30.1045L25.9359 35.0796L22.891 30.0547L25.4164 25.0116ZM19.331 24.1922L21.8564 19.0722L24.9556 24.242L22.4257 29.2896L19.331 24.1922ZM19.9906 35.8356L22.4799 30.8695L25.5248 35.8854L23.031 40.7882L19.9906 35.8356ZM23.6229 51.9744L20.6366 47.1667L23.0898 42.35L26.0805 47.221L23.6229 51.9744ZM24.0882 52.7259L26.5413 47.977L29.4869 52.7757L27.0338 57.4611L24.0882 52.7259ZM27.5578 68.2172L24.6619 63.6178L27.0789 59.0048L29.9748 63.6631L27.5578 68.2172ZM28.0231 68.9551L30.4401 64.41L33.2953 69.0004L30.8783 73.4866L28.0231 68.9551ZM28.5382 79.4306L30.919 75.0122L33.7245 79.4713L31.3437 83.8308L28.5382 79.4306ZM31.7954 93.9215L29.0396 89.639L31.3843 85.3474L34.1447 89.6842L31.7954 93.9215ZM32.2653 94.6503L34.61 90.4176L37.3297 94.6911L34.9804 98.874L32.2653 94.6503ZM32.7125 104.478L35.0211 100.363L37.6956 104.519L35.3825 108.584L32.7125 104.478ZM35.7801 118.059L33.1462 114.067L35.4232 110.065L38.057 114.107L35.7801 118.059ZM36.2499 118.775L38.5269 114.827L41.1246 118.811L38.8476 122.713L36.2499 118.775ZM39.191 131.849L36.6385 128.019L38.8793 124.18L41.4363 128.055L39.191 131.849ZM42.1817 136.335L39.6608 132.559L41.9016 128.77L44.4225 132.591L42.1817 136.335ZM44.8698 131.849L42.3489 128.023L44.6213 124.18L47.1467 128.055L44.8698 131.849ZM47.8289 136.335L45.3396 132.564L47.612 128.77L50.1013 132.591L47.8289 136.335ZM50.5531 131.849L48.0593 128.023L50.3633 124.175L52.8571 128.046L50.5531 131.849ZM53.4761 136.335L51.0184 132.564L53.3225 128.766L55.7801 132.582L53.4761 136.335ZM56.2319 131.849L53.7697 128.028L56.1054 124.175L58.5675 128.041L56.2319 131.849ZM59.1232 136.335L56.6972 132.568L59.0329 128.766L61.4589 132.577L59.1232 136.335ZM61.9107 131.849L59.4801 128.032L61.8474 124.175L64.278 128.037L61.9107 131.849ZM64.7659 136.335L62.3715 132.573L64.7388 128.766L67.1332 132.573L64.7659 136.335ZM65.1905 128.037L67.5895 124.175L69.9884 128.037L67.5895 131.849L65.1905 128.037ZM70.413 136.335L68.0458 132.577L70.4402 128.77L72.8074 132.577L70.413 136.335ZM70.9055 128.041L73.336 124.18L75.7033 128.037L73.2728 131.853L70.9055 128.041ZM76.0602 136.335L73.7245 132.577L76.1506 128.766L78.4862 132.568L76.0602 136.335ZM76.6159 128.041L79.0781 124.175L81.4137 128.028L78.9516 131.849L76.6159 128.041ZM81.7074 136.335L79.4033 132.582L81.861 128.766L84.165 132.564L81.7074 136.335ZM82.3263 128.046L84.8201 124.175L87.1242 128.023L84.6304 131.849L82.3263 128.046ZM87.3546 136.335L85.0821 132.587L87.5714 128.766L89.8438 132.559L87.3546 136.335ZM88.0367 128.05L90.5621 124.175L92.8346 128.019L90.3137 131.844L88.0367 128.05ZM93.0017 136.335L90.7564 132.591L93.2773 128.77L95.5181 132.559L93.0017 136.335ZM93.7471 128.055L96.3042 124.18L98.545 128.023L95.9925 131.853L93.7471 128.055Z" fill="#0C1732"/>
<path d="M101.167 132.963H34.0156V141.754H101.167V132.963Z" fill="#0C1732"/>
<path d="M67.5875 137.662C86.1309 137.662 101.163 135.558 101.163 132.963C101.163 130.367 86.1309 128.264 67.5875 128.264C49.0441 128.264 34.0117 130.367 34.0117 132.963C34.0117 135.558 49.0441 137.662 67.5875 137.662Z" fill="#0C1732"/>
<path d="M101.163 141.754C101.163 144.348 86.1328 146.453 67.5875 146.453C49.0467 146.453 34.0117 144.348 34.0117 141.754C34.0117 139.16 49.0422 137.055 67.5875 137.055C86.1328 137.055 101.163 139.16 101.163 141.754Z" fill="#0C1732"/>
<path d="M67.5865 137.381C85.3764 137.381 99.7979 135.618 99.7979 133.442C99.7979 131.267 85.3764 129.504 67.5865 129.504C49.7966 129.504 35.375 131.267 35.375 133.442C35.375 135.618 49.7966 137.381 67.5865 137.381Z" fill="black"/>
<path d="M98.5797 138.372H36.6009L14.0664 14.7988H121.114L98.5797 138.372ZM37.4457 137.358H97.7349L119.903 15.8129H15.2772L37.4457 137.358Z" fill="#0C1732"/>
<path d="M22.4827 11.9422C32.3133 9.9277 48.8437 8.60581 67.5878 8.60581C86.3319 8.60581 102.862 9.9277 112.693 11.9422C118.674 10.7154 122.176 9.23507 122.176 7.64156C122.18 3.41788 97.7392 0 67.5878 0C37.4409 0 13 3.41788 13 7.63704C13 9.23507 16.5012 10.7154 22.4827 11.9422Z" fill="black"/>
<path d="M15.2137 15.2783C15.2137 11.8378 38.6653 9.05367 67.5878 9.05367C96.5149 9.05367 119.962 11.8423 119.962 15.2783H122.176V7.63672H13V15.2738H15.2137V15.2783Z" fill="black"/>
<path d="M112.697 10.9727C102.867 12.9872 86.3364 14.3091 67.5923 14.3091C48.8482 14.3091 32.3178 12.9872 22.4872 10.9727C16.5012 12.1995 13 13.6798 13 15.2778C13 19.497 37.4409 22.9149 67.5878 22.9149C97.7347 22.9149 122.176 19.497 122.176 15.2778C122.18 13.6798 118.679 12.1995 112.697 10.9727Z" fill="#222323"/>
<path d="M119.966 7.63672C119.966 11.0772 96.5149 13.8613 67.5923 13.8613C38.6653 13.8659 15.2137 11.0772 15.2137 7.63672H13V15.2738H122.18V7.63672H119.966Z" fill="#222323"/>
<path d="M67.5878 0C37.4409 0 13 3.41788 13 7.63704C13 11.8562 37.4409 15.2741 67.5878 15.2741C97.7347 15.2741 122.176 11.8562 122.176 7.63704C122.18 3.41788 97.7392 0 67.5878 0ZM67.5878 13.744C39.2209 13.744 16.2302 11.0096 16.2302 7.63704C16.2302 4.26443 39.2255 1.53012 67.5878 1.53012C95.9501 1.53012 118.945 4.26443 118.945 7.63704C118.95 11.0096 95.9547 13.744 67.5878 13.744Z" fill="#1F2A47"/>
<path d="M98.0435 137.974L98.414 135.941L96.4352 132.591L98.9877 128.766L99.5479 129.725L99.7603 128.567L99.4621 128.055L100.004 127.245L100.357 125.307L99.0239 127.304L96.7785 123.46L99.3717 119.526L100.921 122.215L101.134 121.047L99.8416 118.811L102.191 115.248L102.548 113.288L102.512 113.342L100.235 109.336L102.905 105.234L103.745 106.728L103.962 105.551L103.379 104.515L104.454 102.867L104.816 100.889L102.954 103.75L100.641 99.63L103.356 95.4154L105.209 98.7563L105.425 97.5702L103.831 94.6866L106.587 90.4085L106.699 90.6123L107.16 88.0862L106.636 88.9011L104.287 84.6049L107.088 80.2047L108.217 82.2962L108.434 81.0965L107.558 79.4668L109.207 76.8774L109.577 74.8538L107.138 78.6836L104.757 74.2608L107.603 69.7338L109.767 73.8081L109.988 72.6039L108.073 68.9959L110.964 64.401L111.353 65.1434L111.574 63.9302L111.434 63.6585L111.705 63.233L112.08 61.1823L111.023 62.8663L108.606 58.2488L111.547 53.5181L112.975 56.2886L113.196 55.0708L112.012 52.7711L114.285 49.1178L114.849 46.0123L112.6 41.5895L115.636 36.646L116.313 37.995L116.539 36.7591L116.101 35.8854L116.95 34.5047L117.334 32.4042L115.699 35.0706L113.21 30.0999L116.3 25.0026L118.044 28.5336L118.269 27.2887L116.76 24.2375L119.711 19.371L120.099 17.2433L119.964 17.4696L118.852 15.1835H118.016L119.503 18.2347L116.363 23.4136L113.833 18.289L115.694 15.179H114.795L113.426 17.4651L112.297 15.179H111.457L112.966 18.2347L109.866 23.409L107.296 18.28L109.135 15.1744H108.24L106.885 17.4606L105.737 15.1744H104.892L106.424 18.2347L103.365 23.409L100.754 18.2754L102.566 15.1744H101.676L100.339 17.4606L99.173 15.1744H98.3236L99.8822 18.2392L96.8644 23.409L94.2125 18.2709L95.997 15.1744H95.1115L93.7923 17.4606L92.6087 15.1744H91.7548L93.3406 18.2438L90.3634 23.409L87.6708 18.2709L89.4327 15.179H88.5518L87.2506 17.4651L86.0534 15.179H85.1951L86.8034 18.2483L83.8669 23.409L81.1336 18.2664L82.8684 15.1744H81.992L80.709 17.4606L79.4937 15.1744H78.6308L80.2662 18.2483L77.3704 23.4045L74.5965 18.2573L76.3087 15.1699H75.4368L74.1718 17.4561L72.9385 15.1699H72.0756L73.7336 18.2483L70.8784 23.4045L68.0638 18.2528L69.7489 15.1699H68.8815L67.6301 17.4561L66.3787 15.1699H65.5113L67.1964 18.2528L64.3819 23.4045L61.5267 18.2483L63.1847 15.1699H62.3218L61.0884 17.4561L59.819 15.1699H58.947L60.6547 18.2573L57.8808 23.4045L54.985 18.2483L56.6204 15.1744H55.7575L54.5422 17.4606L53.2592 15.1744H52.3828L54.1176 18.2664L51.3843 23.409L48.4478 18.2483L50.0561 15.1744H49.1978L48.0006 17.4606L46.6995 15.1744H45.8185L47.5804 18.2664L44.8878 23.4045L41.9107 18.2392L43.4964 15.1699H42.6425L41.4634 17.4561L40.1081 15.1971H39.2226L41.0071 18.2935L38.3552 23.4317L35.3373 18.2619L36.896 15.1971H36.0466L34.8811 17.4832L33.5438 15.1971H32.6538L34.4654 18.2981L31.8542 23.4272L28.7957 18.2528L30.3317 15.1926H29.4914L28.3439 17.4787L26.9886 15.1926H26.0941L27.9328 18.2981L25.3622 23.4272L22.263 18.2528L23.7719 15.1971H22.9316L21.8022 17.4832L20.4333 15.1971H19.5343L21.3956 18.3071L18.8657 23.4317L15.7259 18.2483L17.2122 15.1971H16.3719L15.2605 17.4832L15.125 17.2569L15.5135 19.3846L18.4636 24.2511L16.9547 27.3023L17.1806 28.5472L18.9244 25.0161L22.0145 30.1135L19.5253 35.0842L17.8899 32.4178L18.2739 34.5183L19.1232 35.899L18.685 36.7727L18.9109 38.0086L19.5885 36.6596L22.6244 41.603L20.3746 46.0259L20.9393 49.1269L23.2117 52.7802L22.0236 55.0799L22.245 56.3022L23.6726 53.5317L26.6136 58.2624L24.1966 62.8799L23.1395 61.1959L23.5144 63.2466L23.7855 63.6721L23.6454 63.9437L23.8668 65.157L24.2553 64.4191L27.1467 69.014L25.2312 72.622L25.4525 73.8262L27.6165 69.7519L30.4627 74.2789L28.0819 78.7017L25.6423 74.8719L26.0127 76.8955L27.6617 79.4849L26.7853 81.1146L27.0021 82.3143L28.1316 80.2228L30.9326 84.623L28.5833 88.9192L28.0593 88.1043L28.5201 90.6304L28.633 90.4267L31.3888 94.7047L29.7896 97.5884L30.0064 98.7744L31.8587 95.4335L34.5738 99.6481L32.2608 103.768L30.3995 100.907L30.7609 102.885L31.8361 104.533L31.2533 105.569L31.4702 106.746L32.3105 105.253L34.9804 109.354L32.699 113.36L32.6628 113.306L33.0197 115.266L35.369 118.829L34.0769 121.065L34.2892 122.233L35.8388 119.544L38.432 123.478L36.1867 127.322L34.8539 125.325L35.2063 127.263L35.7485 128.073L35.4503 128.585L35.6626 129.744L36.2228 128.779L38.7753 132.605L36.7966 135.955L37.167 137.987H37.6685L37.0405 137.055L39.2497 133.315L41.7661 137.086L41.2285 137.983H42.1275L42.2404 137.797L42.3669 137.983H43.3066L42.6877 137.055L44.9285 133.315L47.4133 137.086L46.8666 137.987H47.7702L47.8831 137.802L48.0051 137.987H48.9403L48.3304 137.059L50.6028 133.315L53.0559 137.082L52.5002 137.987H53.4083L53.5257 137.802L53.6477 137.987H54.5784L53.9775 137.064L56.2771 133.315L58.6986 137.077L58.1338 137.987H59.0464L59.1639 137.802L59.2859 137.987H60.212L59.6202 137.068L61.9513 133.315L64.3457 137.073L63.772 137.983H64.6891L64.8065 137.793L64.9285 137.983H65.8501L65.2673 137.068L67.6301 133.315L69.9929 137.073L69.4101 137.987H70.3317L70.4537 137.797L70.5712 137.987H71.4883L70.9145 137.077L73.3089 133.32L75.6401 137.073L75.0482 137.992H75.9744L76.0964 137.806L76.2138 137.992H77.1264L76.5617 137.082L78.9877 133.32L81.2872 137.068L80.6864 137.992H81.617L81.739 137.806L81.8565 137.992H82.76L82.2043 137.086L84.6575 133.32L86.9299 137.064L86.32 137.992H87.2552L87.3817 137.806L87.4946 137.992H88.3981L87.8515 137.091L90.3363 133.32L92.5771 137.059L91.9581 137.987H92.8978L93.0243 137.802L93.1373 137.987H94.0363L93.4987 137.091L96.0151 133.32L98.2242 137.059L97.5963 137.992H98.0435V137.974ZM96.3358 122.713L94.0589 118.811L96.6566 114.827L98.9335 118.775L96.3358 122.713ZM46.0579 69.7474L48.7957 74.2653L46.3064 78.6972L43.5687 74.2381L46.0579 69.7474ZM43.1124 73.4866L40.334 68.9597L42.8232 64.4055L45.6016 68.9913L43.1124 73.4866ZM91.6103 74.2381L88.8725 78.6972L86.3832 74.2653L89.121 69.7474L91.6103 74.2381ZM89.5773 68.9913L92.3602 64.41L94.8495 68.9642L92.0711 73.4912L89.5773 68.9913ZM52.4099 80.2138L55.0708 84.6004L52.5861 88.9146L49.9251 84.5823L52.4099 80.2138ZM49.4688 83.8354L46.7717 79.4396L49.2565 75.0122L51.9581 79.4623L49.4688 83.8354ZM52.8436 79.4442L55.3645 75.0122L58.0299 79.4578L55.509 83.8354L52.8436 79.4442ZM58.4817 80.2138L61.1065 84.5959L58.5856 88.9101L55.9608 84.5823L58.4817 80.2138ZM58.9199 79.4487L61.477 75.0122L64.1063 79.4532L61.5492 83.8354L58.9199 79.4487ZM64.5535 80.2138L67.1422 84.5914L64.5852 88.9101L61.9965 84.5868L64.5535 80.2138ZM65.0008 79.4532L67.594 75.0122L70.1872 79.4532L67.594 83.8354L65.0008 79.4532ZM70.6299 80.2138L73.1869 84.5868L70.5983 88.9101L68.0412 84.5914L70.6299 80.2138ZM71.0772 79.4532L73.7065 75.0122L76.2635 79.4487L73.6342 83.8354L71.0772 79.4532ZM76.7017 80.2138L79.2226 84.5868L76.5978 88.9146L74.0769 84.6004L76.7017 80.2138ZM77.1535 79.4578L79.819 75.0122L82.3399 79.4442L79.6744 83.8354L77.1535 79.4578ZM82.7736 80.2138L85.2583 84.5823L82.5974 88.9146L80.1126 84.6004L82.7736 80.2138ZM83.2299 79.4623L85.9315 75.0122L88.4162 79.4396L85.7191 83.8354L83.2299 79.4623ZM88.8454 80.2138L91.294 84.5778L88.6014 88.9101L86.1528 84.6004L88.8454 80.2138ZM85.9495 73.4866L83.4241 68.9868L86.1664 64.4055L88.6918 68.9642L85.9495 73.4866ZM85.4932 74.2381L82.7916 78.6927L80.2662 74.2562L82.9678 69.7428L85.4932 74.2381ZM79.8325 73.4912L77.271 68.9868L79.9771 64.41L82.5386 68.9732L79.8325 73.4912ZM79.3807 74.2427L76.7153 78.6927L74.1537 74.2517L76.8237 69.7428L79.3807 74.2427ZM73.711 73.4912L71.1133 68.9823L73.7833 64.41L76.381 68.9778L73.711 73.4912ZM73.2637 74.2472L70.6344 78.6972L68.0367 74.2517L70.6706 69.7474L73.2637 74.2472ZM67.5895 73.4912L64.9556 68.9778L67.5895 64.41L70.2233 68.9778L67.5895 73.4912ZM67.1467 74.2517L64.549 78.6972L61.9197 74.2472L64.5129 69.7428L67.1467 74.2517ZM61.4724 73.4912L58.8025 68.9778L61.4002 64.41L64.0701 68.9823L61.4724 73.4912ZM61.0297 74.2562L58.4682 78.6972L55.8027 74.2472L58.3642 69.7474L61.0297 74.2562ZM55.3509 73.4866L52.6448 68.9687L55.2063 64.4055L57.9125 68.9823L55.3509 73.4866ZM54.9172 74.2562L52.3918 78.6927L49.6902 74.2381L52.2156 69.7428L54.9172 74.2562ZM49.2339 73.4866L46.4916 68.9642L49.0171 64.4055L51.7593 68.9868L49.2339 73.4866ZM46.3335 80.2138L49.0306 84.6049L46.582 88.9146L43.8894 84.5823L46.3335 80.2138ZM46.6046 90.4131L49.2565 94.6775L46.844 98.865L44.1921 94.6503L46.6046 90.4131ZM47.0383 89.648L49.4869 85.3428L52.1433 89.6661L49.6947 93.917L47.0383 89.648ZM52.5996 90.4131L55.2154 94.6775L52.7668 98.8695L50.151 94.6594L52.5996 90.4131ZM53.0378 89.6525L55.5226 85.3474L58.1429 89.6706L55.6581 93.926L53.0378 89.6525ZM58.5946 90.4131L61.1788 94.673L58.6986 98.8695L56.1144 94.6639L58.5946 90.4131ZM59.0374 89.6571L61.5538 85.3474L64.1424 89.6661L61.626 93.9215L59.0374 89.6571ZM64.5942 90.4131L67.1422 94.6684L64.6258 98.865L62.0778 94.6639L64.5942 90.4131ZM65.0415 89.6616L67.594 85.3474L70.1465 89.6616L67.594 93.9215L65.0415 89.6616ZM70.5892 90.4131L73.1056 94.6639L70.5576 98.865L68.0412 94.6684L70.5892 90.4131ZM71.041 89.6616L73.6297 85.3428L76.1461 89.6525L73.5619 93.917L71.041 89.6616ZM76.5843 90.4131L79.0645 94.6594L76.4804 98.865L74.0001 94.6684L76.5843 90.4131ZM77.0406 89.6661L79.6609 85.3428L82.1456 89.6525L79.5253 93.9215L77.0406 89.6661ZM82.5838 90.4131L85.0324 94.6594L82.4167 98.8695L79.9681 94.6775L82.5838 90.4131ZM83.0401 89.6706L85.6965 85.3474L88.1452 89.6525L85.4887 93.9215L83.0401 89.6706ZM88.5789 90.4131L90.9913 94.6549L88.3394 98.8695L85.9269 94.682L88.5789 90.4131ZM89.0397 89.6752L91.7322 85.3474L94.1447 89.648L91.4567 93.9215L89.0397 89.6752ZM89.3062 79.4668L92.0394 75.0122L94.4881 79.4351L91.7548 83.8308L89.3062 79.4668ZM92.5003 74.2653L95.2741 69.7474L97.7273 74.2336L94.9534 78.6972L92.5003 74.2653ZM92.8165 63.654L95.6401 59.0003L98.1293 63.6223L95.3103 68.2172L92.8165 63.654ZM92.3873 62.8708L89.8574 58.2443L92.6855 53.5271L95.2109 58.2171L92.3873 62.8708ZM91.931 63.6269L89.1481 68.2172L86.6227 63.654L89.4056 59.0048L91.931 63.6269ZM86.189 62.8708L83.6229 58.2397L86.4103 53.5226L88.9764 58.2171L86.189 62.8708ZM85.7372 63.6314L82.9904 68.2172L80.4243 63.6495L83.1711 59.0048L85.7372 63.6314ZM79.9906 62.8708L77.3884 58.2352L80.1397 53.5226L82.7419 58.2216L79.9906 62.8708ZM79.5389 63.6359L76.8282 68.2172L74.226 63.645L76.9367 59.0048L79.5389 63.6359ZM73.7923 62.8754L71.154 58.2352L73.8691 53.5271L76.5075 58.2307L73.7923 62.8754ZM73.3451 63.6404L70.6706 68.2172L68.0322 63.6404L70.7067 59.0003L73.3451 63.6404ZM67.5895 62.8754L64.9104 58.2307L67.5895 53.5271L70.264 58.2307L67.5895 62.8754ZM67.1467 63.6404L64.5084 68.2172L61.8339 63.6404L64.4722 59.0048L67.1467 63.6404ZM61.3911 62.8754L58.676 58.2262L61.3143 53.5226L64.0295 58.2307L61.3911 62.8754ZM60.9529 63.645L58.3507 68.2172L55.64 63.6359L58.2377 59.0048L60.9529 63.645ZM55.1928 62.8754L52.4415 58.2262L55.0437 53.5271L57.795 58.2397L55.1928 62.8754ZM54.7591 63.6495L52.193 68.2172L49.4462 63.6314L52.0078 59.0048L54.7591 63.6495ZM48.9945 62.8708L46.207 58.2171L48.7731 53.5226L51.5605 58.2397L48.9945 62.8708ZM48.5608 63.654L46.0353 68.2172L43.2524 63.6269L45.7778 59.0048L48.5608 63.654ZM42.7961 62.8708L39.9725 58.2126L42.498 53.5226L45.3261 58.2397L42.7961 62.8708ZM42.3669 63.654L39.8777 68.2127L37.0586 63.6223L39.5479 59.0003L42.3669 63.654ZM39.9093 69.7474L42.6832 74.2698L40.2301 78.6972L37.4562 74.2336L39.9093 69.7474ZM43.144 75.0122L45.8772 79.4668L43.4241 83.8354L40.6909 79.4396L43.144 75.0122ZM43.4512 85.3474L46.1438 89.6752L43.7268 93.9215L41.0387 89.648L43.4512 85.3474ZM43.7584 95.4199L46.4058 99.63L44.025 103.759L41.3776 99.6029L43.7584 95.4199ZM46.8666 100.363L49.4779 104.51L47.1015 108.584L44.4948 104.487L46.8666 100.363ZM47.3048 99.6029L49.7173 95.4199L52.3331 99.6255L49.9206 103.754L47.3048 99.6029ZM52.7894 100.363L55.3645 104.51L52.952 108.584L50.3769 104.492L52.7894 100.363ZM53.2276 99.6074L55.6717 95.4199L58.2513 99.621L55.8072 103.754L53.2276 99.6074ZM58.7076 100.363L61.2511 104.506L58.807 108.584L56.2635 104.497L58.7076 100.363ZM59.1549 99.6074L61.6351 95.4154L64.1831 99.6119L61.7029 103.75L59.1549 99.6074ZM64.6303 100.363L67.1422 104.501L64.6665 108.584L62.1591 104.497L64.6303 100.363ZM65.0776 99.6119L67.5895 95.4154L70.1013 99.6074L67.5895 103.75L65.0776 99.6119ZM70.5531 100.363L73.0288 104.497L70.5215 108.584L68.0458 104.501L70.5531 100.363ZM71.0049 99.6164L73.5529 95.4199L76.0331 99.6119L73.4851 103.759L71.0049 99.6164ZM76.4758 100.363L78.9199 104.492L76.3765 108.58L73.9324 104.501L76.4758 100.363ZM76.9276 99.621L79.5072 95.4199L81.9513 99.6074L79.3717 103.759L76.9276 99.621ZM82.3941 100.363L84.802 104.492L82.2269 108.584L79.8145 104.51L82.3941 100.363ZM82.8549 99.6255L85.4707 95.4199L87.8831 99.6029L85.2719 103.754L82.8549 99.6255ZM88.3168 100.363L90.6932 104.487L88.0864 108.584L85.7101 104.51L88.3168 100.363ZM88.7776 99.63L91.425 95.4199L93.8014 99.5983L91.154 103.754L88.7776 99.63ZM94.2396 100.363L96.5843 104.483L93.9414 108.584L91.5967 104.515L94.2396 100.363ZM91.8904 94.682L94.5784 90.4131L96.9593 94.6503L94.2757 98.8695L91.8904 94.682ZM92.1885 84.6049L94.9172 80.2138L97.3297 84.5733L94.601 88.9101L92.1885 84.6049ZM95.3826 79.4713L98.1519 75.0168L100.569 79.4396L97.7996 83.8399L95.3826 79.4713ZM95.735 68.9959L98.554 64.41L101.007 68.9597L98.1926 73.4866L95.735 68.9959ZM96.0964 58.2488L98.9606 53.5271L101.45 58.2126L98.5856 62.8754L96.0964 58.2488ZM99.4214 52.7711L102.331 47.977L104.82 52.7304L101.915 57.4611L99.4214 52.7711ZM98.9968 51.9744L96.4668 47.212L99.3808 42.35L101.911 47.1758L98.9968 51.9744ZM98.5405 52.7304L95.6717 57.4566L93.1418 52.7621L96.0105 47.9725L98.5405 52.7304ZM92.7171 51.9744L90.1465 47.2075L93.0198 42.3455L95.5859 47.1758L92.7171 51.9744ZM92.2608 52.7349L89.4282 57.4611L86.8621 52.7621L89.6947 47.9725L92.2608 52.7349ZM86.4375 51.9789L83.8307 47.2075L86.6679 42.35L89.2746 47.1848L86.4375 51.9789ZM85.9857 52.7394L83.1937 57.4611L80.5915 52.7575L83.3835 47.9725L85.9857 52.7394ZM80.1533 51.9789L77.5104 47.2029L80.3069 42.35L82.9498 47.1893L80.1533 51.9789ZM79.706 52.744L76.9502 57.4611L74.3073 52.753L77.0632 47.9725L79.706 52.744ZM73.8736 51.9789L71.1901 47.2029L73.9504 42.3545L76.634 47.1984L73.8736 51.9789ZM73.4309 52.7485L70.7157 57.4611L68.0367 52.7485L70.7519 47.9725L73.4309 52.7485ZM67.5895 51.9789L64.8698 47.1984L67.5895 42.3545L70.3091 47.1984L67.5895 51.9789ZM67.1512 52.753L64.4722 57.4656L61.7571 52.753L64.4361 47.9816L67.1512 52.753ZM61.3098 51.9789L58.5495 47.1939L61.233 42.35L63.9933 47.1984L61.3098 51.9789ZM60.8716 52.753L58.2287 57.4611L55.4729 52.744L58.1158 47.9725L60.8716 52.753ZM55.0302 51.9789L52.2337 47.1893L54.8766 42.35L57.673 47.2029L55.0302 51.9789ZM54.5965 52.7575L51.9897 57.4611L49.1978 52.7394L51.8 47.9725L54.5965 52.7575ZM48.746 51.9789L45.9134 47.1848L48.5201 42.35L51.3572 47.2075L48.746 51.9789ZM48.3168 52.7621L45.7507 57.4611L42.9226 52.7349L45.4887 47.9725L48.3168 52.7621ZM42.4663 51.9789L39.5931 47.1848L42.1591 42.3545L45.0324 47.212L42.4663 51.9789ZM42.0417 52.7666L39.5117 57.4611L36.643 52.7349L39.1729 47.977L42.0417 52.7666ZM36.1822 51.9789L33.2727 47.1803L35.8027 42.3545L38.7166 47.2165L36.1822 51.9789ZM35.762 52.7711L33.2682 57.4611L30.3633 52.7304L32.8526 47.977L35.762 52.7711ZM36.2228 53.5271L39.0871 58.2488L36.5933 62.8754L33.729 58.2126L36.2228 53.5271ZM36.6294 64.41L39.4485 68.9959L36.9954 73.4866L34.1808 68.9597L36.6294 64.41ZM37.0315 75.0122L39.8009 79.4713L37.3839 83.8354L34.6145 79.4351L37.0315 75.0122ZM40.2617 80.2138L42.9904 84.6049L40.5734 88.9101L37.8492 84.5733L40.2617 80.2138ZM40.6095 90.4131L43.2976 94.682L40.9168 98.865L38.2332 94.6458L40.6095 90.4131ZM40.9439 100.363L43.5867 104.515L41.242 108.584L38.5992 104.483L40.9439 100.363ZM44.0521 105.243L46.6588 109.336L44.3141 113.351L41.7119 109.309L44.0521 105.243ZM47.1196 110.065L49.6902 114.098L47.3455 118.059L44.7794 114.076L47.1196 110.065ZM47.5623 109.309L49.9387 105.243L52.5093 109.331L50.1329 113.351L47.5623 109.309ZM52.9701 110.065L55.5045 114.094L53.1282 118.059L50.5937 114.076L52.9701 110.065ZM53.4128 109.313L55.8208 105.243L58.3597 109.327L55.9518 113.347L53.4128 109.313ZM58.8205 110.065L61.3234 114.094L58.9154 118.059L56.4126 114.08L58.8205 110.065ZM59.2678 109.318L61.7074 105.243L64.2147 109.327L61.7751 113.351L59.2678 109.318ZM64.6665 110.065L67.1377 114.089L64.6981 118.059L62.2269 114.085L64.6665 110.065ZM65.1183 109.322L67.594 105.243L70.0697 109.322L67.594 113.351L65.1183 109.322ZM70.517 110.065L72.9565 114.085L70.4853 118.059L68.0458 114.089L70.517 110.065ZM70.9687 109.327L73.4761 105.243L75.9156 109.318L73.4083 113.351L70.9687 109.327ZM76.3629 110.065L78.7709 114.08L76.268 118.059L73.8601 114.094L76.3629 110.065ZM76.8237 109.327L79.3627 105.243L81.7706 109.313L79.2317 113.347L76.8237 109.327ZM82.2134 110.065L84.5852 114.08L82.0507 118.064L79.6744 114.098L82.2134 110.065ZM82.6742 109.331L85.2448 105.243L87.6211 109.309L85.0505 113.347L82.6742 109.331ZM88.0593 110.065L90.3995 114.076L87.8334 118.059L85.4887 114.098L88.0593 110.065ZM88.5246 109.336L91.1314 105.243L93.4761 109.309L90.8739 113.351L88.5246 109.336ZM93.9098 110.065L96.2183 114.071L93.6206 118.059L91.3121 114.103L93.9098 110.065ZM94.3751 109.34L97.0135 105.243L99.322 109.304L96.6837 113.351L94.3751 109.34ZM94.7049 99.63L97.3884 95.4199L99.7331 99.5983L97.0541 103.759L94.7049 99.63ZM95.0392 89.6797L97.7634 85.3474L100.144 89.6435L97.4201 93.9215L95.0392 89.6797ZM98.2287 84.6095L100.994 80.2138L103.374 84.5687L100.61 88.9101L98.2287 84.6095ZM98.6127 74.2698L101.423 69.7474L103.84 74.2291L101.03 78.6972L98.6127 74.2698ZM99.0148 63.6585L101.875 59.0003L104.328 63.6178L101.472 68.2127L99.0148 63.6585ZM102.335 58.2533L105.236 53.5271L107.689 58.208L104.788 62.8754L102.335 58.2533ZM102.787 47.2165L105.737 42.35L108.226 47.1712L105.276 51.9744L102.787 47.2165ZM106.198 41.5895L109.198 36.646L111.687 41.5397L108.692 46.4152L106.198 41.5895ZM105.787 40.7882L103.257 35.8854L106.261 30.8695L108.787 35.8402L105.787 40.7882ZM105.326 41.5487L102.372 46.4198L99.8416 41.5895L102.801 36.6505L105.326 41.5487ZM99.4214 40.7882L96.8508 35.8809L99.8145 30.8695L102.381 35.8447L99.4214 40.7882ZM98.9651 41.5487L96.0467 46.4198L93.4761 41.5849L96.3945 36.6505L98.9651 41.5487ZM93.0559 40.7882L90.4447 35.8764L93.3677 30.8695L95.9744 35.8492L93.0559 40.7882ZM92.5996 41.5532L89.7218 46.4198L87.1151 41.5804L89.9929 36.6505L92.5996 41.5532ZM86.6904 40.7882L84.0431 35.8719L86.9254 30.8695L89.5728 35.8492L86.6904 40.7882ZM86.2387 41.5578L83.4015 46.4198L80.7541 41.5759L83.5958 36.646L86.2387 41.5578ZM80.325 40.7882L77.6369 35.8719L80.4831 30.8741L83.1666 35.8583L80.325 40.7882ZM79.8777 41.5623L77.0767 46.4198L74.3932 41.5713L77.1942 36.646L79.8777 41.5623ZM73.9595 40.7882L71.2308 35.8673L74.0363 30.8741L76.7605 35.8628L73.9595 40.7882ZM73.5167 41.5668L70.7564 46.4198L68.0322 41.5668L70.7925 36.646L73.5167 41.5668ZM67.5895 40.7882L64.8246 35.8628L67.5895 30.8695L70.3543 35.8628L67.5895 40.7882ZM67.1512 41.5668L64.427 46.4198L61.6667 41.5668L64.3909 36.6505L67.1512 41.5668ZM61.224 40.7882L58.4185 35.8583L61.1427 30.8695L63.9482 35.8628L61.224 40.7882ZM60.7903 41.5713L58.1067 46.4198L55.3057 41.5623L57.9893 36.6505L60.7903 41.5713ZM54.8585 40.7882L52.0168 35.8538L54.7049 30.8695L57.5511 35.8673L54.8585 40.7882ZM54.4293 41.5759L51.7819 46.4198L48.9448 41.5578L51.5922 36.646L54.4293 41.5759ZM48.493 40.7882L45.6107 35.8538L48.2581 30.8741L51.1404 35.8764L48.493 40.7882ZM48.0683 41.5804L45.4616 46.4198L42.5838 41.5532L45.1905 36.646L48.0683 41.5804ZM42.1275 40.7882L39.2045 35.8492L41.8113 30.8741L44.7342 35.8809L42.1275 40.7882ZM41.7074 41.5849L39.1368 46.4198L36.2183 41.5487L38.7844 36.646L41.7074 41.5849ZM35.762 40.7882L32.7984 35.8447L35.3645 30.8695L38.3281 35.8809L35.762 40.7882ZM35.3464 41.5895L32.8165 46.4198L29.8619 41.5487L32.3918 36.6505L35.3464 41.5895ZM29.3965 40.7882L26.3967 35.8402L28.9267 30.8695L31.931 35.8854L29.3965 40.7882ZM28.9809 41.5895L26.4871 46.4198L23.4918 41.5442L25.9811 36.6505L28.9809 41.5895ZM29.4417 42.35L32.3963 47.2165L29.9025 51.9744L26.9524 47.1712L29.4417 42.35ZM29.9477 53.5271L32.8481 58.2533L30.3949 62.8754L27.4946 58.2126L29.9477 53.5271ZM33.3134 59.0048L36.1731 63.6585L33.72 68.2127L30.8648 63.6178L33.3134 59.0048ZM33.7561 69.7474L36.5662 74.2698L34.1492 78.6972L31.3392 74.2291L33.7561 69.7474ZM34.1898 80.2138L36.9547 84.6095L34.5738 88.9101L31.809 84.5687L34.1898 80.2138ZM37.42 85.3474L40.1442 89.6797L37.7634 93.9215L35.0392 89.6435L37.42 85.3474ZM37.7995 95.4199L40.483 99.63L38.1383 103.754L35.4548 99.5938L37.7995 95.4199ZM38.1654 105.243L40.8038 109.34L38.4907 113.351L35.8524 109.304L38.1654 105.243ZM41.2737 110.065L43.8759 114.103L41.5673 118.059L38.9696 114.071L41.2737 110.065ZM41.5944 119.531L44.156 123.46L41.879 127.308L39.322 123.428L41.5944 119.531ZM42.0326 118.779L44.3412 114.827L46.9073 118.806L44.5987 122.709L42.0326 118.779ZM47.3726 119.531L49.9025 123.456L47.594 127.308L45.0686 123.428L47.3726 119.531ZM47.8153 118.779L50.1555 114.823L52.69 118.802L50.3498 122.709L47.8153 118.779ZM53.1508 119.531L55.6491 123.451L53.3089 127.308L50.8151 123.433L53.1508 119.531ZM53.5935 118.784L55.9653 114.823L58.4636 118.797L56.0918 122.709L53.5935 118.784ZM58.9244 119.531L61.3911 123.451L59.0193 127.313L56.5526 123.442L58.9244 119.531ZM59.3762 118.788L61.7797 114.827L64.2463 118.797L61.8429 122.713L59.3762 118.788ZM64.7026 119.531L67.1377 123.447L64.7343 127.308L62.2992 123.442L64.7026 119.531ZM65.1544 118.793L67.5895 114.827L70.0245 118.793L67.5895 122.713L65.1544 118.793ZM70.4808 119.531L72.8842 123.442L70.4492 127.308L68.0458 123.447L70.4808 119.531ZM70.9371 118.797L73.4038 114.827L75.8072 118.788L73.3405 122.709L70.9371 118.797ZM76.259 119.531L78.6308 123.437L76.1686 127.308L73.7968 123.447L76.259 119.531ZM76.7153 118.797L79.2181 114.823L81.5899 118.784L79.0916 122.709L76.7153 118.797ZM82.0327 119.531L84.3728 123.433L81.8791 127.308L79.5389 123.451L82.0327 119.531ZM82.498 118.802L85.0279 114.823L87.3681 118.779L84.8382 122.709L82.498 118.802ZM87.8108 119.531L90.1194 123.428L87.594 127.308L85.2854 123.456L87.8108 119.531ZM88.2762 118.806L90.8422 114.827L93.1508 118.779L90.5893 122.713L88.2762 118.806ZM93.589 119.531L95.866 123.428L93.3089 127.308L91.032 123.46L93.589 119.531ZM102.037 114.067L99.4034 118.059L97.1264 114.107L99.7603 110.065L102.037 114.067ZM102.471 104.478L99.7964 108.584L97.4833 104.519L100.162 100.363L102.471 104.478ZM100.198 98.8695L97.8538 94.6866L100.573 90.4131L102.918 94.6458L100.198 98.8695ZM106.144 89.639L103.383 93.9215L101.034 89.6842L103.795 85.3474L106.144 89.639ZM106.645 79.4306L103.84 83.8354L101.459 79.4759L104.264 75.0168L106.645 79.4306ZM104.31 73.4866L101.893 68.9959L104.748 64.4055L107.165 68.9506L104.31 73.4866ZM110.521 63.6178L107.626 68.2172L105.209 63.6676L108.105 59.0093L110.521 63.6178ZM108.154 57.4611L105.701 52.7757L108.647 47.977L111.1 52.7259L108.154 57.4611ZM114.551 47.1712L111.565 51.9789L109.112 47.2256L112.103 42.3545L114.551 47.1712ZM115.193 35.8356L112.152 40.7882L109.659 35.89L112.704 30.8741L115.193 35.8356ZM113.322 19.0767L115.848 24.1967L112.753 29.2987L110.223 24.2511L113.322 19.0767ZM112.297 30.0547L109.252 35.0796L106.722 30.1045L109.772 25.0116L112.297 30.0547ZM106.79 19.0767L109.356 24.2013L106.302 29.2987L103.731 24.2465L106.79 19.0767ZM105.846 30.0592L102.837 35.0796L100.266 30.0999L103.275 25.0116L105.846 30.0592ZM100.257 19.0767L102.864 24.2013L99.8506 29.2941L97.2394 24.2375L100.257 19.0767ZM99.3988 30.0637L96.4307 35.0796L93.8194 30.0954L96.7876 25.0116L99.3988 30.0637ZM93.7246 19.0767L96.3719 24.2058L93.3993 29.2941L90.7474 24.233L93.7246 19.0767ZM92.9475 30.0683L90.02 35.0796L87.3726 30.0909L90.3001 25.0116L92.9475 30.0683ZM87.1919 19.0767L89.88 24.2103L86.948 29.2941L84.2554 24.2284L87.1919 19.0767ZM86.5007 30.0728L83.6139 35.0796L80.9258 30.0909L83.8127 25.0161L86.5007 30.0728ZM80.6593 19.0767L83.388 24.2149L80.4966 29.2987L77.7679 24.233L80.6593 19.0767ZM80.0539 30.0728L77.2077 35.0796L74.479 30.0864L77.3252 25.0116L80.0539 30.0728ZM74.1266 19.0767L76.896 24.2194L74.0453 29.2987L71.2759 24.2284L74.1266 19.0767ZM73.6026 30.0773L70.7971 35.0796L68.0277 30.0818L70.8377 25.0116L73.6026 30.0773ZM67.5895 19.0767L70.3995 24.2239L67.5895 29.2987L64.7794 24.2239L67.5895 19.0767ZM64.3457 25.0116L67.1558 30.0818L64.3864 35.0796L61.5809 30.0773L64.3457 25.0116ZM61.0568 19.0767L63.9075 24.2239L61.1381 29.2941L58.2874 24.2149L61.0568 19.0767ZM57.8583 25.0116L60.7044 30.0864L57.9757 35.0796L55.1295 30.0773L57.8583 25.0116ZM54.5242 19.0767L57.4155 24.2284L54.6868 29.2941L51.7955 24.2103L54.5242 19.0767ZM51.3708 25.0116L54.2576 30.0864L51.5696 35.0751L48.6827 30.0683L51.3708 25.0116ZM47.9915 19.0767L50.9235 24.233L48.231 29.2987L45.3035 24.2103L47.9915 19.0767ZM44.8833 25.0116L47.8108 30.0909L45.1634 35.0796L42.2359 30.0683L44.8833 25.0116ZM41.4589 19.0767L44.4315 24.2375L41.7796 29.2987L38.807 24.2103L41.4589 19.0767ZM38.3913 25.0116L41.3595 30.0954L38.7528 35.0796L35.7846 30.0637L38.3913 25.0116ZM34.9262 19.0767L37.9396 24.242L35.3283 29.2987L32.315 24.2058L34.9262 19.0767ZM31.9039 25.0116L34.9127 30.0999L32.3421 35.0796L29.3378 30.0592L31.9039 25.0116ZM28.3936 19.0767L31.4521 24.242L28.8815 29.2941L25.8275 24.1967L28.3936 19.0767ZM25.4164 25.0116L28.4659 30.1045L25.9359 35.0796L22.891 30.0547L25.4164 25.0116ZM19.331 24.1922L21.8564 19.0722L24.9556 24.242L22.4257 29.2896L19.331 24.1922ZM19.9906 35.8356L22.4799 30.8695L25.5248 35.8854L23.031 40.7882L19.9906 35.8356ZM23.6229 51.9744L20.6366 47.1667L23.0898 42.35L26.0805 47.221L23.6229 51.9744ZM24.0882 52.7259L26.5413 47.977L29.4869 52.7757L27.0338 57.4611L24.0882 52.7259ZM27.5578 68.2172L24.6619 63.6178L27.0789 59.0048L29.9748 63.6631L27.5578 68.2172ZM28.0231 68.9551L30.4401 64.41L33.2953 69.0004L30.8783 73.4866L28.0231 68.9551ZM28.5382 79.4306L30.919 75.0122L33.7245 79.4713L31.3437 83.8308L28.5382 79.4306ZM31.7954 93.9215L29.0396 89.639L31.3843 85.3474L34.1447 89.6842L31.7954 93.9215ZM32.2653 94.6503L34.61 90.4176L37.3297 94.6911L34.9804 98.874L32.2653 94.6503ZM32.7125 104.478L35.0211 100.363L37.6956 104.519L35.3825 108.584L32.7125 104.478ZM35.7801 118.059L33.1462 114.067L35.4232 110.065L38.057 114.107L35.7801 118.059ZM36.2499 118.775L38.5269 114.827L41.1246 118.811L38.8476 122.713L36.2499 118.775ZM39.191 131.849L36.6385 128.019L38.8793 124.18L41.4363 128.055L39.191 131.849ZM42.1817 136.335L39.6608 132.559L41.9016 128.77L44.4225 132.591L42.1817 136.335ZM44.8698 131.849L42.3489 128.023L44.6213 124.18L47.1467 128.055L44.8698 131.849ZM47.8289 136.335L45.3396 132.564L47.612 128.77L50.1013 132.591L47.8289 136.335ZM50.5531 131.849L48.0593 128.023L50.3633 124.175L52.8571 128.046L50.5531 131.849ZM53.4761 136.335L51.0184 132.564L53.3225 128.766L55.7801 132.582L53.4761 136.335ZM56.2319 131.849L53.7697 128.028L56.1054 124.175L58.5675 128.041L56.2319 131.849ZM59.1232 136.335L56.6972 132.568L59.0329 128.766L61.4589 132.577L59.1232 136.335ZM61.9107 131.849L59.4801 128.032L61.8474 124.175L64.278 128.037L61.9107 131.849ZM64.7659 136.335L62.3715 132.573L64.7388 128.766L67.1332 132.573L64.7659 136.335ZM65.1905 128.037L67.5895 124.175L69.9884 128.037L67.5895 131.849L65.1905 128.037ZM70.413 136.335L68.0458 132.577L70.4402 128.77L72.8074 132.577L70.413 136.335ZM70.9055 128.041L73.336 124.18L75.7033 128.037L73.2728 131.853L70.9055 128.041ZM76.0602 136.335L73.7245 132.577L76.1506 128.766L78.4862 132.568L76.0602 136.335ZM76.6159 128.041L79.0781 124.175L81.4137 128.028L78.9516 131.849L76.6159 128.041ZM81.7074 136.335L79.4033 132.582L81.861 128.766L84.165 132.564L81.7074 136.335ZM82.3263 128.046L84.8201 124.175L87.1242 128.023L84.6304 131.849L82.3263 128.046ZM87.3546 136.335L85.0821 132.587L87.5714 128.766L89.8438 132.559L87.3546 136.335ZM88.0367 128.05L90.5621 124.175L92.8346 128.019L90.3137 131.844L88.0367 128.05ZM93.0017 136.335L90.7564 132.591L93.2773 128.77L95.5181 132.559L93.0017 136.335ZM93.7471 128.055L96.3042 124.18L98.545 128.023L95.9925 131.853L93.7471 128.055Z" fill="#0C1732"/>
<path d="M98.5797 138.372H36.6009L14.0664 14.7988H121.114L98.5797 138.372ZM37.4457 137.358H97.7349L119.903 15.8129H15.2772L37.4457 137.358Z" fill="#0C1732"/>
<path d="M112.697 10.9727C102.867 12.9872 86.3364 14.3091 67.5923 14.3091C48.8482 14.3091 32.3178 12.9872 22.4872 10.9727C16.5012 12.1995 13 13.6798 13 15.2778C13 19.497 37.4409 22.9149 67.5878 22.9149C97.7347 22.9149 122.176 19.497 122.176 15.2778C122.18 13.6798 118.679 12.1995 112.697 10.9727Z" fill="#09122B"/>
<path d="M99.8023 133.443C99.8023 135.62 85.3817 137.381 67.5908 137.381C49.8 137.381 35.3794 135.616 35.3794 133.443C35.3794 133.28 34.0195 132.963 34.0195 132.963V141.754C34.0195 144.348 49.05 146.453 67.5953 146.453C86.1361 146.453 101.171 144.348 101.171 141.754V132.963C101.162 132.963 99.8023 133.28 99.8023 133.443Z" fill="#0C1732"/>
<path d="M119.966 7.63672C119.966 11.0772 96.5149 13.8613 67.5923 13.8613C38.6653 13.8659 15.2137 11.0772 15.2137 7.63672H13V15.2738H122.18V7.63672H119.966Z" fill="#0C1732"/>
<path d="M115.304 3.92969C115.191 4.38239 115.047 4.82151 114.861 5.25157C117.491 5.98494 118.95 6.79527 118.95 7.64182C118.95 11.0144 95.9547 13.7487 67.5923 13.7487C39.2255 13.7487 16.2347 11.0144 16.2347 7.64182C16.2347 6.87676 17.4274 6.14339 19.5914 5.46886C19.4107 5.02975 19.2345 4.59063 19.0628 4.14246C15.1956 5.18819 13 6.37879 13 7.63729C13 11.8565 37.4409 15.2743 67.5878 15.2743C97.7347 15.2743 122.176 11.8565 122.176 7.63729C122.18 6.29278 119.677 5.02522 115.304 3.92969Z" fill="#16213E"/>
<defs>
<filter id="filter0_f_5162_1275" x="0" y="133" width="137" height="21" filterUnits="userSpaceOnUse" color-interpolation-filters="sRGB">
<feFlood flood-opacity="0" result="BackgroundImageFix"/>
<feBlend mode="normal" in="SourceGraphic" in2="BackgroundImageFix" result="shape"/>
<feGaussianBlur stdDeviation="2" result="effect1_foregroundBlur_5162_1275"/>
</filter>
</defs>
</svg>
