<svg width="21" height="20" viewBox="0 0 21 20" fill="none" xmlns="http://www.w3.org/2000/svg">
<path d="M1.54175 1L5.13091 4.58916M19.5417 19L15.9529 15.4112M12.4166 16.8246C11.8095 16.9398 11.1829 17 10.5422 17C6.06455 17 2.27425 14.0571 1 9.99997C1.3469 8.8955 1.88026 7.87361 2.56318 6.97118M8.42043 7.87868C8.96332 7.33579 9.71332 7 10.5417 7C12.1986 7 13.5417 8.34315 13.5417 10C13.5417 10.8284 13.206 11.5784 12.6631 12.1213M8.42043 7.87868L12.6631 12.1213M8.42043 7.87868L5.13091 4.58916M12.6631 12.1213L5.13091 4.58916M12.6631 12.1213L15.9529 15.4112M5.13091 4.58916C6.69073 3.58354 8.54831 3 10.5422 3C15.0198 3 18.8101 5.94291 20.0844 10C19.3775 12.2507 17.8963 14.1585 15.9529 15.4112" stroke="#000" stroke-linecap="round" stroke-linejoin="round"/>
</svg>
