<svg width="19" height="28" viewBox="0 0 19 28" fill="none" xmlns="http://www.w3.org/2000/svg">
<path d="M19 6V27.5H0V0.5H13.5L19 6Z" fill="#D22630"/>
<path d="M15.5307 15.181C15.2869 15.1101 15.0287 15.0448 14.7774 15.0555C14.0789 15.0838 13.3832 15.159 12.6853 15.1973C12.5559 15.2067 12.4271 15.1715 12.319 15.0973C11.4852 14.4226 10.7195 13.6621 10.0338 12.8275C9.9821 12.7768 9.94693 12.7107 9.93318 12.6384C9.91944 12.566 9.92779 12.4911 9.95709 12.4239C10.0591 12.1324 10.1475 11.8344 10.231 11.5358C10.4241 10.83 10.6748 10.1363 10.6809 9.38159C10.6351 9.05601 10.6083 8.72618 10.5405 8.40556C10.4036 7.74944 10.0386 7.31887 9.36886 7.19545C8.39028 7.01528 7.62332 7.43024 7.34255 8.3701C7.10082 9.18014 7.05357 10.0214 7.41103 10.8045C7.71029 11.4656 8.11021 12.077 8.45809 12.7154C8.51014 12.8112 8.56765 12.9516 8.53821 13.0417C8.16066 14.2007 7.7726 15.3565 7.37405 16.5089C7.31925 16.633 7.2243 16.7333 7.10562 16.7926C6.22497 17.2444 5.32513 17.6608 4.45818 18.1325C3.96298 18.3907 3.49638 18.7039 3.06665 19.0667C2.14628 19.8732 2.38188 21.0776 3.50769 21.5181C4.36916 21.8551 5.07518 21.5245 5.7278 20.9833C6.73513 20.1484 7.448 19.0681 8.03076 17.8949C8.06887 17.8059 8.12613 17.727 8.19818 17.6645C8.27023 17.6019 8.35514 17.5572 8.44642 17.5338C9.63249 17.2104 10.8151 16.8756 12.0026 16.5578C12.1145 16.542 12.2281 16.5701 12.321 16.6366C12.7394 16.9203 13.1428 17.2288 13.5598 17.5147C14.1638 17.9275 14.7959 18.1829 15.5389 17.9204C16.1518 17.7076 16.5051 17.1863 16.4976 16.4429C16.4935 15.8031 16.1662 15.3619 15.5307 15.181ZM4.64239 20.3087C4.54007 20.38 4.42315 20.4258 4.30086 20.4423C4.17857 20.4587 4.05426 20.4456 3.93773 20.4038C3.64121 20.3016 3.61587 20.2116 3.822 19.9782C3.85651 19.9342 3.89711 19.8957 3.94251 19.864C4.69578 19.4195 5.44906 18.9764 6.20234 18.5347L6.25577 18.622C5.8086 19.2717 5.31416 19.8789 4.64442 20.3116L4.64239 20.3087ZM8.40877 8.87158C8.49163 8.52118 8.63339 8.38712 8.91485 8.37506C9.28327 8.36371 9.43459 8.46728 9.4476 8.85102C9.46599 9.30008 9.44306 9.74992 9.37912 10.1945C9.31544 10.6059 9.16341 11.0024 9.03673 11.4464C8.50532 10.6435 8.18484 9.82846 8.40877 8.87158ZM8.79226 16.118C9.01893 15.4087 9.23737 14.7271 9.46198 14.0234C9.94271 14.5582 10.4022 15.0701 10.8405 15.5591L8.79226 16.118ZM15.0383 16.8103C14.8266 16.7858 14.6192 16.7311 14.422 16.6479C14.2337 16.5649 14.0686 16.4252 13.8933 16.3103L13.9159 16.2173C14.3021 16.2457 14.6897 16.2599 15.0732 16.3131C15.1289 16.3288 15.1801 16.3585 15.2222 16.3994C15.2644 16.4403 15.2962 16.4913 15.315 16.5479C15.3444 16.7273 15.1972 16.8302 15.0383 16.8103Z" fill="white"/>
</svg>
