<svg width="10" height="14" viewBox="0 0 10 14" fill="none" xmlns="http://www.w3.org/2000/svg">
<path d="M10 2.9596V13.8182H0V0.181824H7.10526L10 2.9596Z" fill="#F8FAFF"/>
<path d="M8.17517 7.59651C8.04686 7.56068 7.91098 7.52772 7.7787 7.5331C7.41108 7.54743 7.0449 7.5854 6.67763 7.60475C6.60951 7.60945 6.54173 7.5917 6.4848 7.55423C6.04595 7.21348 5.64298 6.82939 5.28208 6.40785C5.25487 6.38226 5.23636 6.34887 5.22912 6.31234C5.22189 6.27581 5.22628 6.23794 5.2417 6.20401C5.29541 6.05677 5.3419 5.90631 5.38587 5.75549C5.48751 5.39903 5.61944 5.04867 5.62268 4.6675C5.59853 4.50307 5.58446 4.33648 5.54878 4.17455C5.4767 3.84318 5.2846 3.62572 4.93211 3.56339C4.41707 3.47239 4.0134 3.68197 3.86563 4.15664C3.7384 4.56576 3.71354 4.99063 3.90167 5.38614C4.05918 5.72002 4.26966 6.02883 4.45276 6.35125C4.48015 6.39961 4.51042 6.47054 4.49492 6.51604C4.29621 7.10141 4.09197 7.68511 3.88221 8.26714C3.85337 8.32982 3.80339 8.38051 3.74093 8.41044C3.27743 8.63864 2.80383 8.84893 2.34754 9.08716C2.08691 9.21754 1.84133 9.37574 1.61516 9.55897C1.13075 9.96629 1.25475 10.5746 1.84728 10.7971C2.30069 10.9672 2.67228 10.8003 3.01576 10.5269C3.54594 10.1053 3.92113 9.55969 4.22785 8.96715C4.2479 8.92218 4.27804 8.88237 4.31596 8.85076C4.35388 8.81916 4.39857 8.79659 4.44662 8.7848C5.07086 8.62144 5.69331 8.45235 6.31828 8.29186C6.37718 8.28386 6.43696 8.29805 6.48587 8.33162C6.70609 8.47492 6.91839 8.63075 7.13789 8.77513C7.45578 8.98363 7.78844 9.1126 8.17949 8.98005C8.50207 8.87257 8.68805 8.60926 8.68408 8.23382C8.68192 7.91068 8.50963 7.68786 8.17517 7.59651ZM2.44449 10.1863C2.39064 10.2223 2.3291 10.2454 2.26474 10.2537C2.20038 10.262 2.13495 10.2554 2.07362 10.2343C1.91756 10.1827 1.90422 10.1372 2.01271 10.0193C2.03087 9.99708 2.05224 9.97764 2.07613 9.96163C2.4726 9.73713 2.86906 9.51335 3.26552 9.29028L3.29364 9.33435C3.05829 9.6625 2.79806 9.96916 2.44556 10.1877L2.44449 10.1863ZM4.4268 4.40992C4.47041 4.23295 4.54502 4.16524 4.69316 4.15915C4.88706 4.15342 4.96671 4.20572 4.97355 4.39953C4.98323 4.62633 4.97116 4.85352 4.93751 5.07805C4.90399 5.28583 4.82398 5.48609 4.7573 5.71035C4.47762 5.30482 4.30894 4.89319 4.4268 4.40992ZM4.62864 8.06975C4.74794 7.7115 4.8629 7.36723 4.98112 7.01185C5.23414 7.28197 5.47597 7.5405 5.70664 7.78745L4.62864 8.06975ZM7.91603 8.41939C7.80462 8.407 7.69547 8.37939 7.59165 8.33735C7.49253 8.29544 7.40566 8.22486 7.3134 8.16683L7.32529 8.1199C7.52857 8.13423 7.73256 8.1414 7.9344 8.16826C7.96373 8.17621 7.99066 8.19118 8.01284 8.21185C8.03501 8.23251 8.05177 8.25826 8.06164 8.28684C8.07714 8.37748 7.99964 8.42942 7.91603 8.41939Z" fill="#D22630"/>
</svg>
