<svg width="38" height="38" viewBox="0 0 38 38" fill="none" xmlns="http://www.w3.org/2000/svg">
<circle cx="19" cy="19" r="19" fill="#F8F8F8"/>
<path d="M29 24C29 21.24 26.76 19 24 19C21.24 19 19 21.24 19 24C19 24.34 19.03 24.68 19.1 25H9V11V9H17L19 12H29V15V24Z" stroke="#0C1732" stroke-miterlimit="10" stroke-linecap="round" stroke-linejoin="round"/>
<path d="M24 29C26.7614 29 29 26.7614 29 24C29 21.2386 26.7614 19 24 19C21.2386 19 19 21.2386 19 24C19 26.7614 21.2386 29 24 29Z" stroke="#0C1732" stroke-miterlimit="10" stroke-linecap="round" stroke-linejoin="round"/>
<path d="M21 24H27" stroke="#0C1732" stroke-miterlimit="10" stroke-linejoin="round"/>
<path d="M24 21V27" stroke="#0C1732" stroke-miterlimit="10" stroke-linejoin="round"/>
</svg>
