<svg width="22" height="18" viewBox="0 0 22 18" fill="none" xmlns="http://www.w3.org/2000/svg">
<path d="M7.51189 2.59797L7.33175 1.24329C7.31431 1.10506 7.19228 1 7.0412 1H5.23396C5.08869 1 4.96085 1.10506 4.94341 1.24329L4.78652 2.43209C4.77489 2.53162 4.69935 2.62009 4.60056 2.65327C4.11244 2.82468 3.64755 3.09008 3.24659 3.4329L1.92168 2.90209C1.78802 2.84679 1.63112 2.89656 1.55558 3.0182L0.64906 4.51112C0.579328 4.63277 0.614194 4.78759 0.730415 4.87053L1.87519 5.69439C1.75316 6.25286 1.75316 6.82238 1.86938 7.36425H1.87519L0.730415 8.18812C0.614194 8.27106 0.579328 8.42588 0.654871 8.54752L1.56139 10.0404C1.63694 10.1621 1.79383 10.2119 1.92749 10.1566L3.2524 9.62574L3.24659 9.63127C3.4616 9.81374 3.70566 9.97962 3.96716 10.1234C4.22866 10.2671 4.49596 10.3833 4.77489 10.4717V10.4607L4.95504 11.8154C4.96085 11.9536 5.08869 12.0586 5.23396 12.0586H7.04701C7.19228 12.0586 7.31431 11.9536 7.33756 11.8154L7.49446 10.6266C7.50608 10.527 7.58162 10.4386 7.68041 10.4054C8.16854 10.234 8.63342 9.96856 9.03438 9.62574L10.3593 10.1566C10.4929 10.2119 10.6498 10.1621 10.7254 10.0404L11.6319 8.54752C11.7075 8.42588 11.6726 8.27106 11.5564 8.18812L10.4116 7.36425C10.5336 6.80579 10.5336 6.23627 10.4174 5.69439H10.4116L11.5447 4.87053C11.661 4.78759 11.6958 4.63277 11.6203 4.51112L10.7138 3.0182C10.6382 2.89656 10.4813 2.84679 10.3477 2.90209L9.02857 3.4329L9.03438 3.42737C8.81937 3.2449 8.57531 3.07903 8.31381 2.93526C8.05232 2.7915 7.78501 2.67538 7.50608 2.58692" stroke="#F8FAFF" stroke-miterlimit="10" stroke-linecap="round" stroke-linejoin="round"/>
<path d="M16.3897 5.05647L16.1733 3.34621C16.1523 3.1717 16.0057 3.03906 15.8242 3.03906H13.6533C13.4787 3.03906 13.3252 3.1717 13.3042 3.34621L13.1157 4.84705C13.1018 4.9727 13.011 5.08439 12.8924 5.12628C12.306 5.34268 11.7475 5.67775 11.2659 6.11055L9.67428 5.44041C9.51373 5.3706 9.32525 5.43343 9.2345 5.587L8.14552 7.47178C8.06175 7.62535 8.10364 7.82081 8.24325 7.92552L9.61844 8.96564C9.47184 9.67069 9.47184 10.3897 9.61146 11.0738H9.61844L8.24325 12.1139C8.10364 12.2186 8.06175 12.4141 8.1525 12.5677L9.24148 14.4524C9.33223 14.606 9.52071 14.6688 9.68126 14.599L11.2729 13.9289L11.2659 13.9359C11.5242 14.1662 11.8173 14.3757 12.1315 14.5571C12.4456 14.7386 12.7667 14.8852 13.1018 14.9969V14.983L13.3182 16.6932C13.3252 16.8677 13.4787 17.0004 13.6533 17.0004H15.8312C16.0057 17.0004 16.1523 16.8677 16.1803 16.6932L16.3687 15.1924C16.3827 15.0667 16.4734 14.955 16.5921 14.9132C17.1785 14.6968 17.7369 14.3617 18.2186 13.9289L19.8102 14.599C19.9708 14.6688 20.1592 14.606 20.25 14.4524L21.339 12.5677C21.4297 12.4141 21.3878 12.2186 21.2482 12.1139L19.873 11.0738C20.0196 10.3688 20.0196 9.64975 19.88 8.96564H19.873L21.2343 7.92552C21.3739 7.82081 21.4158 7.62535 21.325 7.47178L20.236 5.587C20.1453 5.43343 19.9568 5.3706 19.7962 5.44041L18.2116 6.11055L18.2186 6.10357C17.9603 5.87321 17.6671 5.66379 17.353 5.48229C17.0389 5.3008 16.7178 5.1542 16.3827 5.04251" fill="#003594"/>
<path d="M16.3897 5.05647L16.1733 3.34621C16.1523 3.1717 16.0057 3.03906 15.8242 3.03906H13.6533C13.4787 3.03906 13.3252 3.1717 13.3042 3.34621L13.1157 4.84705C13.1018 4.9727 13.011 5.08439 12.8924 5.12628C12.306 5.34268 11.7475 5.67775 11.2659 6.11055L9.67428 5.44041C9.51373 5.3706 9.32525 5.43343 9.2345 5.587L8.14552 7.47178C8.06175 7.62535 8.10364 7.82081 8.24325 7.92552L9.61844 8.96564C9.47184 9.67069 9.47184 10.3897 9.61146 11.0738H9.61844L8.24325 12.1139C8.10364 12.2186 8.06175 12.4141 8.1525 12.5677L9.24148 14.4524C9.33223 14.606 9.52071 14.6688 9.68126 14.599L11.2729 13.9289L11.2659 13.9359C11.5242 14.1662 11.8173 14.3757 12.1315 14.5571C12.4456 14.7386 12.7667 14.8852 13.1018 14.9969V14.983L13.3182 16.6932C13.3252 16.8677 13.4787 17.0004 13.6533 17.0004H15.8312C16.0057 17.0004 16.1523 16.8677 16.1803 16.6932L16.3687 15.1924C16.3827 15.0667 16.4734 14.955 16.5921 14.9132C17.1785 14.6968 17.7369 14.3617 18.2186 13.9289L19.8102 14.599C19.9708 14.6688 20.1592 14.606 20.25 14.4524L21.339 12.5677C21.4297 12.4141 21.3878 12.2186 21.2482 12.1139L19.873 11.0738C20.0196 10.3688 20.0196 9.64975 19.88 8.96564H19.873L21.2343 7.92552C21.3739 7.82081 21.4158 7.62535 21.325 7.47178L20.236 5.587C20.1453 5.43343 19.9568 5.3706 19.7962 5.44041L18.2116 6.11055L18.2186 6.10357C17.9603 5.87321 17.6671 5.66379 17.353 5.48229C17.0389 5.3008 16.7178 5.1542 16.3827 5.04251" stroke="#F8FAFF" stroke-miterlimit="10" stroke-linecap="round" stroke-linejoin="round"/>
</svg>
