<svg width="16" height="19" viewBox="0 0 16 19" fill="none" xmlns="http://www.w3.org/2000/svg">
<path d="M13.5744 10.6733H2.62646V11.4277H13.5744V10.6733Z" fill="#999999"/>
<path d="M1.39202 16.0207L0 15.2302H1.39202V16.0207Z" fill="#6B230D"/>
<path d="M15.0002 18H1.34082V15.2301H1.4437V17.8982H14.8974V4.05338L11.9132 1.1018H1.4437V11.0509H1.34082V1H11.9559L15.0002 4.01165V18Z" fill="black" stroke="black" stroke-width="0.2"/>
<mask id="path-4-inside-1_1418_6560" fill="white">
<path d="M14.9487 4.08637H11.8833V1.05029H11.9862V3.98457H14.9487V4.08637Z"/>
</mask>
<path d="M14.9487 4.08637H11.8833V1.05029H11.9862V3.98457H14.9487V4.08637Z" fill="black"/>
<path d="M14.9487 4.08637V4.28637H15.1487V4.08637H14.9487ZM11.8833 4.08637H11.6833V4.28637H11.8833V4.08637ZM11.8833 1.05029V0.850293H11.6833V1.05029H11.8833ZM11.9862 1.05029H12.1862V0.850293H11.9862V1.05029ZM11.9862 3.98457H11.7862V4.18457H11.9862V3.98457ZM14.9487 3.98457H15.1487V3.78457H14.9487V3.98457ZM14.9487 3.88637H11.8833V4.28637H14.9487V3.88637ZM12.0833 4.08637V1.05029H11.6833V4.08637H12.0833ZM11.8833 1.25029H11.9862V0.850293H11.8833V1.25029ZM11.7862 1.05029V3.98457H12.1862V1.05029H11.7862ZM11.9862 4.18457H14.9487V3.78457H11.9862V4.18457ZM14.7487 3.98457V4.08637H15.1487V3.98457H14.7487Z" fill="black" mask="url(#path-4-inside-1_1418_6560)"/>
<path d="M7.25025 11.0508H0V15.2305H7.25025V11.0508Z" fill="#F15A24"/>
<path d="M1.04102 12.1951H1.71491C1.97212 12.1951 2.15268 12.2215 2.24785 12.2745C2.41932 12.3725 2.50506 12.5342 2.50506 12.7595C2.50506 13.0547 2.37319 13.2373 2.10947 13.3072C1.98737 13.3348 1.86224 13.3471 1.73703 13.3438H1.3615V14.0844H1.04307L1.04102 12.1951ZM1.71748 13.0746C1.86666 13.0746 1.97383 13.0556 2.03899 13.0176C2.08445 12.993 2.12166 12.9558 2.14606 12.9106C2.17046 12.8654 2.18098 12.8141 2.17634 12.7631C2.17634 12.6362 2.12953 12.5514 2.0359 12.5086C1.97263 12.4765 1.86203 12.4602 1.70308 12.4602H1.35635V13.071L1.71748 13.0746Z" fill="white"/>
<path d="M2.81836 12.1951H3.50099C3.71705 12.1951 3.87858 12.2215 3.98558 12.2745C4.07429 12.3204 4.15159 12.3853 4.21192 12.4643C4.34362 12.6367 4.40963 12.8608 4.40998 13.1367C4.40998 13.551 4.28 13.8328 4.02005 13.9821C3.90121 14.0503 3.73711 14.0839 3.52671 14.0839H2.81836V12.1951ZM3.48711 13.8177C3.65858 13.8177 3.78084 13.795 3.85389 13.7495C3.92321 13.7052 3.97709 13.6409 4.00822 13.5652C4.06425 13.4255 4.08967 13.2756 4.0828 13.1255C4.0828 12.8021 3.99295 12.5985 3.81325 12.5147C3.73711 12.4784 3.6092 12.4604 3.42949 12.4608H3.13421V13.8167L3.48711 13.8177Z" fill="white"/>
<path d="M4.73682 12.1951H6.0383V12.4618H5.05524V12.9835H5.90352V13.2502H5.05524V14.0844H4.73682V12.1951Z" fill="white"/>
<path d="M13.5744 5.23022H2.62646V5.98454H13.5744V5.23022Z" fill="#999999"/>
<path d="M13.5744 7.04468H2.62646V7.79899H13.5744V7.04468Z" fill="#999999"/>
<path d="M13.5744 8.85913H2.62646V9.61344H13.5744V8.85913Z" fill="#999999"/>
</svg>
