<svg width="24" height="26" viewBox="0 0 24 26" fill="none" xmlns="http://www.w3.org/2000/svg">
<path d="M12.7865 8.13052C14.8035 8.13052 16.4386 6.49538 16.4386 4.47835C16.4386 2.46131 14.8035 0.826172 12.7865 0.826172C10.7694 0.826172 9.13428 2.46131 9.13428 4.47835C9.13428 6.49538 10.7694 8.13052 12.7865 8.13052Z" stroke="#F8FAFF" stroke-miterlimit="10" stroke-linecap="round" stroke-linejoin="round"/>
<path d="M18.4677 16.2464H7.10537C6.21261 16.2464 5.48218 15.516 5.48218 14.6232C5.48218 11.9369 7.66537 9.75366 10.3517 9.75366H15.2213C17.9077 9.75366 20.0909 11.9369 20.0909 14.6232C20.0909 15.516 19.3604 16.2464 18.4677 16.2464Z" stroke="#F8FAFF" stroke-miterlimit="10" stroke-linecap="round" stroke-linejoin="round"/>
<path d="M7.35698 14.6419L7.18086 13.25C7.16382 13.1079 7.04451 13 6.8968 13H5.12996C4.98793 13 4.86295 13.1079 4.8459 13.25L4.69251 14.4714C4.68115 14.5737 4.6073 14.6646 4.51072 14.6987C4.0335 14.8748 3.57901 15.1475 3.18701 15.4997L1.8917 14.9543C1.76104 14.8975 1.60764 14.9486 1.53379 15.0736L0.647528 16.6075C0.579354 16.7325 0.613441 16.8916 0.727064 16.9768L1.84625 17.8233C1.72695 18.3971 1.72695 18.9823 1.84057 19.539H1.84625L0.727064 20.3855C0.613441 20.4707 0.579354 20.6298 0.653209 20.7548L1.53947 22.2887C1.61333 22.4137 1.76672 22.4648 1.89738 22.408L3.19269 21.8626L3.18701 21.8683C3.39721 22.0558 3.63582 22.2262 3.89147 22.3739C4.14712 22.5216 4.40846 22.6409 4.68115 22.7318V22.7205L4.85727 24.1123C4.86295 24.2544 4.98793 24.3623 5.12996 24.3623H6.90248C7.04451 24.3623 7.16382 24.2544 7.18654 24.1123L7.33993 22.8909C7.3513 22.7886 7.42515 22.6977 7.52173 22.6637C7.99895 22.4875 8.45344 22.2148 8.84544 21.8626L10.1407 22.408C10.2714 22.4648 10.4248 22.4137 10.4987 22.2887L11.3849 20.7548C11.4588 20.6298 11.4247 20.4707 11.3111 20.3855L10.1919 19.539C10.3112 18.9652 10.3112 18.3801 10.1976 17.8233H10.1919L11.2997 16.9768C11.4133 16.8916 11.4474 16.7325 11.3736 16.6075L10.4873 15.0736C10.4134 14.9486 10.26 14.8975 10.1294 14.9543L8.83976 15.4997L8.84544 15.494C8.63524 15.3066 8.39663 15.1361 8.14098 14.9884C7.88532 14.8407 7.62399 14.7214 7.3513 14.6305" fill="#008EAA"/>
<path d="M7.35698 14.6419L7.18086 13.25C7.16382 13.1079 7.04451 13 6.8968 13H5.12996C4.98793 13 4.86295 13.1079 4.8459 13.25L4.69251 14.4714C4.68115 14.5737 4.6073 14.6646 4.51072 14.6987C4.0335 14.8748 3.57901 15.1475 3.18701 15.4997L1.8917 14.9543C1.76104 14.8975 1.60764 14.9486 1.53379 15.0736L0.647528 16.6075C0.579354 16.7325 0.613441 16.8916 0.727064 16.9768L1.84625 17.8233C1.72695 18.3971 1.72695 18.9823 1.84057 19.539H1.84625L0.727064 20.3855C0.613441 20.4707 0.579354 20.6298 0.653209 20.7548L1.53947 22.2887C1.61333 22.4137 1.76672 22.4648 1.89738 22.408L3.19269 21.8626L3.18701 21.8683C3.39721 22.0558 3.63582 22.2262 3.89147 22.3739C4.14712 22.5216 4.40846 22.6409 4.68115 22.7318V22.7205L4.85727 24.1123C4.86295 24.2544 4.98793 24.3623 5.12996 24.3623H6.90248C7.04451 24.3623 7.16382 24.2544 7.18654 24.1123L7.33993 22.8909C7.3513 22.7886 7.42515 22.6977 7.52173 22.6637C7.99895 22.4875 8.45344 22.2148 8.84544 21.8626L10.1407 22.408C10.2714 22.4648 10.4248 22.4137 10.4987 22.2887L11.3849 20.7548C11.4588 20.6298 11.4247 20.4707 11.3111 20.3855L10.1919 19.539C10.3112 18.9652 10.3112 18.3801 10.1976 17.8233H10.1919L11.2997 16.9768C11.4133 16.8916 11.4474 16.7325 11.3736 16.6075L10.4873 15.0736C10.4134 14.9486 10.26 14.8975 10.1294 14.9543L8.83976 15.4997L8.84544 15.494C8.63524 15.3066 8.39663 15.1361 8.14098 14.9884C7.88532 14.8407 7.62399 14.7214 7.3513 14.6305" stroke="#F8FAFF" stroke-miterlimit="10" stroke-linecap="round" stroke-linejoin="round"/>
<path d="M22.9313 13.8117C23.0125 14.6233 23.0125 15.6638 23.0125 16.8057C23.0125 19.5327 20.5752 21.7654 17.604 21.7654L12.7864 21.7654" stroke="#F8FAFF" stroke-miterlimit="10" stroke-linecap="round" stroke-linejoin="round"/>
<path d="M16.1951 25.1741L12.7864 21.7654L16.1951 18.3567" stroke="#F8FAFF" stroke-miterlimit="10" stroke-linecap="round" stroke-linejoin="round"/>
</svg>
