<svg width="22" height="21" viewBox="0 0 22 21" fill="none" xmlns="http://www.w3.org/2000/svg">
<path d="M13 3C13 3.66667 12.3333 5 11 5C9.6667 5 9 3.98157 9 3C9 1.66667 10.1076 1 11 1C11.8924 1 13 1.66667 13 3Z" stroke="#B8B8B8" stroke-linecap="round" stroke-linejoin="round"/>
<path d="M14 9L13.6646 7.21146C13.4242 5.92919 12.3046 5 11 5C9.6954 5 8.57578 5.92919 8.33535 7.21146L8 9H14Z" stroke="#B8B8B8"/>
<path d="M20 11C20 11.6667 19.3333 13 18 13C16.6667 13 16 11.9816 16 11C16 9.6667 17.1076 9 18 9C18.8924 9 20 9.6667 20 11Z" stroke="#B8B8B8" stroke-linecap="round" stroke-linejoin="round"/>
<path d="M21 17L20.6646 15.2115C20.4242 13.9292 19.3046 13 18 13C16.6954 13 15.5758 13.9292 15.3354 15.2115L15 17H21Z" stroke="#B8B8B8"/>
<path d="M6 11C6 11.6667 5.33333 13 4 13C2.66667 13 2 11.9816 2 11C2 9.6667 3.10756 9 4 9C4.89245 9 6 9.6667 6 11Z" stroke="#B8B8B8" stroke-linecap="round" stroke-linejoin="round"/>
<path d="M7 17L6.66465 15.2115C6.42422 13.9292 5.30461 13 4 13C2.69539 13 1.57578 13.9292 1.33535 15.2115L1 17H7Z" stroke="#B8B8B8"/>
<path d="M10 19H14M12 18L10 19L12 18ZM10 19L12 20L10 19Z" stroke="#B8B8B8" stroke-linecap="round" stroke-linejoin="round"/>
<path d="M4.85034 4.81885L1.57373 7.11316M3.78561 6.78516L4.85034 4.81885L3.78561 6.78516ZM4.85034 4.81885L2.63846 5.14685L4.85034 4.81885Z" stroke="#B8B8B8" stroke-linecap="round" stroke-linejoin="round"/>
<path d="M18.8503 6.11365L15.5737 3.81934M16.6384 5.78564L18.8503 6.11365L16.6384 5.78564ZM18.8503 6.11365L17.7856 4.14734L18.8503 6.11365Z" stroke="#B8B8B8" stroke-linecap="round" stroke-linejoin="round"/>
</svg>
