<svg width="32" height="41" viewBox="0 0 32 41" fill="none" xmlns="http://www.w3.org/2000/svg">
<path d="M30.5592 12.0267C27.0038 12.0352 23.4495 12.032 19.894 12.032C19.2708 12.032 19.2697 12.031 19.2697 11.4197C19.2697 7.61276 19.2708 3.80691 19.2719 0C14.5234 0.00107056 9.77484 0.00107056 5.02521 0.00107056C4.76418 0.0588808 4.50424 0.117762 4.24322 0.173431C1.75148 0.70657 0.00476959 2.80487 0.00368197 5.30463C-0.000668501 15.4418 -0.00175612 25.5789 0.00368197 35.716C0.00476959 38.4331 2.04188 40.6417 4.79572 40.9339C5.15899 40.9725 5.52552 40.996 5.88987 40.996C12.4439 40.9993 18.9967 41.0025 25.5507 40.9971C28.1817 40.995 30.3156 39.357 30.917 36.8829C30.9953 36.5618 31.0443 36.2256 31.0454 35.8959C31.053 28.0958 31.0497 20.2968 31.0606 12.4967C31.0617 12.1102 30.9149 12.0267 30.5592 12.0267ZM11.0735 26.3037C10.9462 27.9309 9.70088 29.1535 7.99332 29.2745C7.10256 29.3376 6.20528 29.3173 5.31126 29.3462C5.01216 29.3558 4.90884 29.2402 4.91319 28.9458C4.92624 27.9181 4.91863 26.8893 4.91863 25.8605C4.91863 24.8584 4.9295 23.8574 4.9121 22.8554C4.90666 22.5224 5.02195 22.4004 5.35694 22.4197C6.4228 22.4796 7.51477 22.4025 8.55127 22.6027C10.3241 22.9464 11.2246 24.3745 11.0735 26.3037ZM15.2401 29.4115C13.1562 29.4393 11.5901 27.9127 11.589 25.8808C11.589 23.8489 13.1519 22.333 15.2379 22.3447C17.2892 22.3554 18.814 23.8542 18.8162 25.8594C18.9337 27.5337 17.6144 29.3794 15.2401 29.4115ZM25.5018 24.9515C25.1962 25.0072 24.8862 25.05 24.5882 25.1314C24.3783 25.1892 24.3011 25.1132 24.2238 24.9387C23.9073 24.2139 23.3777 23.8628 22.7403 23.9377C21.9453 24.0309 21.3732 24.5308 21.2623 25.3038C21.2068 25.6913 21.2035 26.1013 21.2655 26.4878C21.4232 27.4588 22.389 28.0358 23.3374 27.7564C23.7203 27.644 24.0085 27.3999 24.1379 27.0199C24.2217 26.7758 24.3446 26.7297 24.5925 26.8015C24.9667 26.9107 25.3528 26.9899 25.7389 27.0531C26.0467 27.1034 26.1141 27.2308 26.0075 27.5177C25.7411 28.235 25.2593 28.7585 24.5588 29.0604C23.4049 29.556 22.2335 29.5528 21.1078 28.9908C19.8179 28.3463 19.3426 27.2201 19.3263 26.1003C19.3328 23.5994 21.1056 22.1081 23.406 22.394C24.5295 22.5332 25.418 22.9828 25.9227 24.0255C25.9401 24.0619 25.9553 24.0983 25.9695 24.1358C26.2218 24.7781 26.1935 24.8252 25.5018 24.9515Z" fill="#0263D1"/>
<path d="M7.08175 23.988C6.83051 23.9944 6.75112 24.0779 6.75655 24.3166C6.76852 24.8358 6.75982 25.3561 6.75982 25.8764C6.75982 26.1965 6.75547 26.5166 6.75982 26.8367C6.77613 27.964 6.56948 27.8323 7.79849 27.6846C8.45759 27.6054 8.94593 27.2189 9.133 26.5541C9.55934 25.0478 8.66859 23.9462 7.08175 23.988Z" fill="#0263D1"/>
<path d="M15.3298 23.9302C14.5892 23.8424 13.8191 24.3541 13.5559 25.1249C13.3732 25.6602 13.3743 26.2008 13.5951 26.7265C13.8376 27.3057 14.2477 27.7071 14.9057 27.7874C16.1292 27.9373 16.9656 27.1708 16.9645 25.9097C16.9645 25.8026 16.9711 25.6955 16.9634 25.5896C16.9015 24.7096 16.2391 24.0372 15.3298 23.9302Z" fill="#0263D1"/>
<path d="M19.2559 12.3548V0C19.2559 0 31.0589 10.5015 31.0598 12.4968L19.2559 12.3548Z" fill="#4E92DF"/>
</svg>
