<svg width="37" height="37" viewBox="0 0 37 37" fill="none" xmlns="http://www.w3.org/2000/svg">
<circle cx="18.5" cy="18.5" r="18.5" fill="#EA6CC8"/>
<path fill-rule="evenodd" clip-rule="evenodd" d="M18.95 30.5714C24.3744 30.5714 21.7897 24.9504 23.4214 22.9761C25.2773 20.7307 26.8 18.8781 26.8 16.0215C26.8 11.5199 23.4661 8 18.95 8C14.434 8 11 11.5726 11 16.0741C11 18.9802 12.7227 20.7165 14.5953 23.0509C16.1286 24.9622 13.5258 30.5714 18.95 30.5714Z" stroke="white" stroke-linejoin="round"/>
<path d="M18.9 22.6714V27.1857" stroke="white" stroke-linecap="round" stroke-linejoin="round"/>
<path fill-rule="evenodd" clip-rule="evenodd" d="M18.9 17.0284C20.1466 17.0284 21.1571 16.0179 21.1571 14.7713C21.1571 13.5247 20.1466 12.5142 18.9 12.5142C17.6535 12.5142 16.6428 13.5247 16.6428 14.7713C16.6428 16.0179 17.6535 17.0284 18.9 17.0284Z" stroke="white"/>
<path d="M20.5311 13.1754L21.7091 11.9738M18.9 12.5141V10.8213V12.5141ZM17.2688 13.1754L15.9335 11.8133L17.2688 13.1754ZM16.6428 14.7713H14.95H16.6428ZM17.2688 16.4024L16.0785 17.5927L17.2688 16.4024ZM18.9 17.0284V18.7213V17.0284ZM20.5311 16.4024L21.8448 17.7162L20.5311 16.4024ZM21.1571 14.7713H22.85H21.1571Z" stroke="white" stroke-linecap="round"/>
</svg>
