<svg width="145" height="138" viewBox="0 0 145 138" fill="none" xmlns="http://www.w3.org/2000/svg">
<g opacity="0.15">
<path fill-rule="evenodd" clip-rule="evenodd" d="M136.694 127.68C160.921 103.454 124.272 89.8921 122.742 73.7871C121.003 55.4694 119.529 40.3943 106.771 27.6361C86.6654 7.5309 56.0542 6.70002 35.8842 26.8701C15.7144 47.0399 16.3334 78.333 36.4386 98.4382C49.4179 111.418 64.8667 111.478 83.6563 113.54C99.041 115.229 112.468 151.906 136.694 127.68Z" stroke="#F8FAFF" stroke-width="6" stroke-linejoin="round"/>
<path d="M101.187 92.6196L121.349 112.782" stroke="#F8FAFF" stroke-width="6" stroke-linecap="round" stroke-linejoin="round"/>
<path fill-rule="evenodd" clip-rule="evenodd" d="M75.9841 67.4165C81.5519 61.8487 81.5517 52.822 75.9841 47.2544C70.4165 41.6868 61.3898 41.6867 55.8221 47.2544C50.2549 52.8217 50.2545 61.8489 55.8221 67.4165C61.3897 72.9841 70.4169 72.9837 75.9841 67.4165Z" stroke="#F8FAFF" stroke-width="6"/>
<path d="M66.0608 42.9238L65.9551 32.2956M55.8223 47.2554L48.2615 39.6947L55.8223 47.2554ZM51.4907 57.4939L39.4434 57.3741L51.4907 57.4939ZM55.8223 67.4174L48.2615 74.9782L55.8223 67.4174ZM65.9033 71.9066L65.9033 82.539L65.9033 71.9066ZM75.9843 67.4174L83.5451 74.9782L75.9843 67.4174ZM80.4734 57.3365L92.2087 57.3364L80.4734 57.3365ZM75.9843 47.2554L83.5451 39.6947L75.9843 47.2554Z" stroke="#F8FAFF" stroke-width="6" stroke-linecap="round"/>
</g>
</svg>
