<svg width="22" height="16" viewBox="0 0 22 16" fill="none" xmlns="http://www.w3.org/2000/svg">
<path fill-rule="evenodd" clip-rule="evenodd" d="M13.8771 4.45971L10.3871 10.0498C10.0671 10.5598 9.37715 10.6698 8.91715 10.2998L5.71718 7.73975C5.23718 7.34975 4.52718 7.48975 4.21718 8.02975L1.13718 13.5098C0.747176 14.1798 1.23718 14.9998 1.99718 14.9998H19.6071C20.3671 14.9998 20.8471 14.1898 20.4871 13.5198L15.6071 4.50971C15.2371 3.83971 14.2871 3.80971 13.8771 4.45971Z" stroke="#B8B8B8" stroke-miterlimit="10" stroke-linecap="round" stroke-linejoin="round"/>
<path d="M7.78711 5C8.88712 5 9.78712 4.1 9.78712 3C9.78712 1.9 8.88712 1 7.78711 1C6.68711 1 5.78711 1.9 5.78711 3C5.78711 4.1 6.68711 5 7.78711 5Z" stroke="#B8B8B8" stroke-miterlimit="10" stroke-linecap="round" stroke-linejoin="round"/>
</svg>
