<svg width="40" height="40" viewBox="0 0 40 40" fill="none" xmlns="http://www.w3.org/2000/svg">
    <rect width="40" height="40" fill="#E7FFE3" />
    <mask id="path-2-inside-1_0_1" fill="white">
        <path
            d="M20.58 13.22C20.85 12.88 21 12.46 21 12C21 10.9 20.1 10 19 10C17.9 10 17 10.9 17 12C17 12.46 17.15 12.88 17.42 13.22" />
    </mask>
    <path
        d="M21.3631 13.8419C21.7745 13.3238 22 12.6843 22 12H20C20 12.2357 19.9255 12.4362 19.7969 12.5981L21.3631 13.8419ZM22 12C22 10.3477 20.6523 9 19 9V11C19.5477 11 20 11.4523 20 12H22ZM19 9C17.3477 9 16 10.3477 16 12H18C18 11.4523 18.4523 11 19 11V9ZM16 12C16 12.6843 16.2255 13.3238 16.6369 13.8419L18.2031 12.5981C18.0745 12.4362 18 12.2357 18 12H16Z"
        fill="#2DBE20" mask="url(#path-2-inside-1_0_1)" />
    <path
        d="M20.58 13.22C20.85 12.88 21 12.46 21 12C21 10.9 20.1 10 19 10C17.9 10 17 10.9 17 12C17 12.46 17.15 12.88 17.42 13.22"
        stroke="#2DBE20" stroke-miterlimit="10" stroke-linecap="round" stroke-linejoin="round" />
    <path
        d="M20.2724 29.0432C19.9259 29.3302 19.485 29.5 19 29.5C17.8961 29.5 17 28.6039 17 27.5H19.0954C19.3946 28.0793 19.7941 28.602 20.2724 29.0432Z"
        stroke="#2DBE20" />
    <path
        d="M19.41 27H16.55M19.41 27H16.55C16.52 27.16 16.5 27.33 16.5 27.5C16.5 28.88 17.62 30 19 30C19.82 30 20.54 29.61 21 29C20.31 28.48 19.76 27.79 19.41 27Z"
        stroke="#2DBE20" stroke-miterlimit="10" stroke-linecap="round" stroke-linejoin="round" />
    <path
        d="M25 20.1C24.68 20.03 24.34 20 24 20C21.24 20 19 22.24 19 25C19 25.71 19.15 26.39 19.41 27H16.55H11L12.64 22.89C12.88 22.3 13 21.67 13 21.04V19C13 15.62 15.79 12.9 19.18 13C22.47 13.1 25 15.97 25 19.25V20.1Z"
        stroke="#2DBE20" stroke-miterlimit="10" stroke-linecap="round" stroke-linejoin="round" />
    <path
        d="M24 30C26.7614 30 29 27.7614 29 25C29 22.2386 26.7614 20 24 20C21.2386 20 19 22.2386 19 25C19 27.7614 21.2386 30 24 30Z"
        stroke="#2DBE20" stroke-miterlimit="10" stroke-linecap="round" stroke-linejoin="round" />
    <path d="M21.5996 24.3499L23.3996 26.1499L26.3996 23.1499" stroke="#2DBE20" stroke-miterlimit="10" />
</svg>