<svg width="19" height="15" viewBox="0 0 19 15" fill="none" xmlns="http://www.w3.org/2000/svg">
<path d="M18.5 7C18.5 6.72386 18.2761 6.5 18 6.5C17.7239 6.5 17.5 6.72386 17.5 7H18.5ZM1.5 7C1.5 6.72386 1.27614 6.5 1 6.5C0.723858 6.5 0.5 6.72386 0.5 7H1.5ZM17.5 7V13.125H18.5V7H17.5ZM17.5 13.125C17.5 13.3439 17.3278 13.5 17.15 13.5V14.5C17.9072 14.5 18.5 13.8686 18.5 13.125H17.5ZM17.15 13.5H1.85V14.5H17.15V13.5ZM1.85 13.5C1.67221 13.5 1.5 13.3439 1.5 13.125H0.5C0.5 13.8686 1.09279 14.5 1.85 14.5V13.5ZM1.5 13.125V7H0.5V13.125H1.5Z" fill="black"/>
<path d="M9.5 1L9.5 12" stroke="black" stroke-linecap="round" stroke-linejoin="round"/>
<path d="M14.2223 7L9.50005 12L4.77783 7" stroke="black" stroke-linecap="round" stroke-linejoin="round"/>
</svg>
