<svg width="14" height="20" viewBox="0 0 14 20" fill="none" xmlns="http://www.w3.org/2000/svg">
<path d="M7.00858 1.43115H7.00001H6.99144C3.82088 1.43115 1.1045 3.95902 1.00167 7.0096C0.975961 7.94363 1.25017 8.96334 1.63578 9.75169C1.63578 9.75169 1.64435 9.76026 1.64435 9.76883L6.24593 18.1322C6.40017 18.4236 6.70009 18.5692 7.00001 18.5692C7.29992 18.5692 7.59984 18.4236 7.75408 18.1322L12.3557 9.76883C12.3557 9.76026 12.3642 9.75169 12.3642 9.75169C12.7498 8.96334 13.024 7.94363 12.9983 7.0096C12.8955 3.95902 10.1791 1.43115 7.00858 1.43115Z" stroke="#B8B8B8" stroke-miterlimit="10" stroke-linecap="round" stroke-linejoin="round"/>
<path d="M6.99993 9.57163C8.18305 9.57163 9.14219 8.6125 9.14219 7.42937C9.14219 6.24623 8.18305 5.28711 6.99993 5.28711C5.8168 5.28711 4.85767 6.24623 4.85767 7.42937C4.85767 8.6125 5.8168 9.57163 6.99993 9.57163Z" stroke="#B8B8B8" stroke-miterlimit="10" stroke-linecap="round" stroke-linejoin="round"/>
</svg>
