<svg width="22" height="22" viewBox="0 0 22 22" fill="none" xmlns="http://www.w3.org/2000/svg">
<path d="M21 16H9V19C9 20.1046 8.10457 21 7 21H19C20.1046 21 21 20.1046 21 19V16Z" stroke="#0C1732" stroke-linecap="round" stroke-linejoin="round"/>
<path d="M9 16H19V3C19 1.89543 18.1046 1 17 1H3C4.10457 1 5 1.89543 5 3V19C5 20.1046 5.89543 21 7 21C8.10457 21 9 20.1046 9 19V16Z" stroke="#0C1732" stroke-linecap="round" stroke-linejoin="round"/>
<path d="M1 3C1 1.89543 1.89543 1 3 1C4.10457 1 5 1.89543 5 3V5H1V3Z" stroke="#0C1732" stroke-linecap="round" stroke-linejoin="round"/>
<path d="M9 5H15" stroke="#0C1732" stroke-linecap="round"/>
<path d="M9 9H13" stroke="#0C1732" stroke-linecap="round"/>
</svg>
