<svg width="24" height="24" viewBox="0 0 24 24" fill="none" xmlns="http://www.w3.org/2000/svg">
<path d="M20 12.01V5C20 3.34 18.66 2 17 2H5C3.34 2 2 3.34 2 5V17C2 18.07 2.55 19 3.39 19.53C3.48 19.59 3.58 19.64 3.68 19.69C3.73 19.72 3.77 19.73 3.82 19.75C3.88 19.79 3.95 19.81 4.02 19.83C4.05 19.85 4.08 19.86 4.11 19.86C4.16 19.88 4.21 19.89 4.26 19.9C4.49 19.97 4.74 20 5 20H12.01" stroke="black" stroke-miterlimit="10" stroke-linecap="round" stroke-linejoin="round"/>
<path d="M12.0097 20H4.99965C4.73965 20 4.48965 19.97 4.25965 19.9C4.20965 19.89 4.15965 19.88 4.10965 19.86C4.07965 19.86 4.04965 19.85 4.01965 19.83C3.94965 19.81 3.87965 19.79 3.81965 19.75C3.76965 19.73 3.72965 19.72 3.67965 19.69C3.57965 19.65 3.48965 19.59 3.38965 19.53C4.42965 16.32 7.43965 14 10.9997 14C11.7997 14 12.5597 14.12 13.2897 14.34" stroke="black" stroke-miterlimit="10" stroke-linecap="round" stroke-linejoin="round"/>
<path d="M11 11C12.6569 11 14 9.65685 14 8C14 6.34315 12.6569 5 11 5C9.34315 5 8 6.34315 8 8C8 9.65685 9.34315 11 11 11Z" stroke="black" stroke-miterlimit="10" stroke-linecap="round" stroke-linejoin="round"/>
<path d="M18.5 23V21" stroke="black" stroke-miterlimit="10" stroke-linejoin="round"/>
<path d="M18.5 16V14" stroke="black" stroke-miterlimit="10" stroke-linejoin="round"/>
<path d="M16 18.5H14" stroke="black" stroke-miterlimit="10" stroke-linejoin="round"/>
<path d="M23 18.5H21" stroke="black" stroke-miterlimit="10" stroke-linejoin="round"/>
<path d="M21.68 21.68L20.27 20.27" stroke="black" stroke-miterlimit="10" stroke-linejoin="round"/>
<path d="M16.7303 16.7301L15.3203 15.3201" stroke="black" stroke-miterlimit="10" stroke-linejoin="round"/>
<path d="M16.7303 20.27L15.3203 21.68" stroke="black" stroke-miterlimit="10" stroke-linejoin="round"/>
<path d="M21.68 15.3201L20.27 16.7301" stroke="black" stroke-miterlimit="10" stroke-linejoin="round"/>
<path d="M18.5 21C19.8807 21 21 19.8807 21 18.5C21 17.1193 19.8807 16 18.5 16C17.1193 16 16 17.1193 16 18.5C16 19.8807 17.1193 21 18.5 21Z" stroke="black" stroke-miterlimit="10" stroke-linecap="round" stroke-linejoin="round"/>
</svg>
