<svg width="18" height="22" viewBox="0 0 18 22" fill="none" xmlns="http://www.w3.org/2000/svg">
<path d="M5 3V4C5 4.55 5.45 5 6 5H12C12.55 5 13 4.55 13 4V3H16C16.55 3 17 3.45 17 4V20C17 20.55 16.55 21 16 21H2C1.45 21 1 20.55 1 20V4C1 3.45 1.45 3 2 3H5Z" stroke="#003594" stroke-linecap="round" stroke-linejoin="round"/>
<path d="M12 5H6C5.45 5 5 4.55 5 4V2C5 1.45 5.45 1 6 1H12C12.55 1 13 1.45 13 2V4C13 4.55 12.55 5 12 5Z" stroke="#003594" stroke-linecap="round" stroke-linejoin="round"/>
<path d="M9 17.5V15.5" stroke="#003594" stroke-miterlimit="10" stroke-linejoin="round"/>
<path d="M9 10.5V8.5" stroke="#003594" stroke-miterlimit="10" stroke-linejoin="round"/>
<path d="M6.5 13H4.5" stroke="#003594" stroke-miterlimit="10" stroke-linejoin="round"/>
<path d="M13.5 13H11.5" stroke="#003594" stroke-miterlimit="10" stroke-linejoin="round"/>
<path d="M12.18 16.1799L10.77 14.7699" stroke="#003594" stroke-miterlimit="10" stroke-linejoin="round"/>
<path d="M7.22977 11.2298L5.81982 9.81982" stroke="#003594" stroke-miterlimit="10" stroke-linejoin="round"/>
<path d="M7.22977 14.7699L5.81982 16.1799" stroke="#003594" stroke-miterlimit="10" stroke-linejoin="round"/>
<path d="M12.18 9.81982L10.77 11.2298" stroke="#003594" stroke-miterlimit="10" stroke-linejoin="round"/>
<path d="M9 15.5C10.3807 15.5 11.5 14.3807 11.5 13C11.5 11.6193 10.3807 10.5 9 10.5C7.6193 10.5 6.5 11.6193 6.5 13C6.5 14.3807 7.6193 15.5 9 15.5Z" stroke="#003594" stroke-miterlimit="10" stroke-linecap="round" stroke-linejoin="round"/>
</svg>
