<svg width="17" height="5" viewBox="0 0 17 5" fill="none" xmlns="http://www.w3.org/2000/svg">
<path d="M4.08494 2.50001C4.08494 1.66483 3.4079 0.987817 2.57274 0.987817C1.73758 0.987817 1.06055 1.66483 1.06055 2.50001C1.06055 3.3352 1.73758 4.01221 2.57274 4.01221C3.4079 4.01221 4.08494 3.3352 4.08494 2.50001Z" stroke="#0C1732" stroke-miterlimit="10" stroke-linecap="round" stroke-linejoin="round"/>
<path d="M10.1338 2.50001C10.1338 1.66483 9.45676 0.987817 8.62157 0.987817C7.78638 0.987817 7.10937 1.66483 7.10937 2.50001C7.10937 3.3352 7.78638 4.01221 8.62157 4.01221C9.45676 4.01221 10.1338 3.3352 10.1338 2.50001Z" stroke="#0C1732" stroke-miterlimit="10" stroke-linecap="round" stroke-linejoin="round"/>
<path d="M16.1826 2.50001C16.1826 1.66483 15.5056 0.987817 14.6704 0.987817C13.8352 0.987817 13.1582 1.66483 13.1582 2.50001C13.1582 3.3352 13.8352 4.01221 14.6704 4.01221C15.5056 4.01221 16.1826 3.3352 16.1826 2.50001Z" stroke="#0C1732" stroke-miterlimit="10" stroke-linecap="round" stroke-linejoin="round"/>
</svg>
