<svg width="6" height="22" viewBox="0 0 6 22" fill="none" xmlns="http://www.w3.org/2000/svg">
<path d="M3 5C4.1046 5 5 4.10457 5 3C5 1.89543 4.1046 1 3 1C1.8954 1 1 1.89543 1 3C1 4.10457 1.8954 5 3 5Z" stroke="white" stroke-miterlimit="10" stroke-linecap="round" stroke-linejoin="round"/>
<path d="M3 13C4.1046 13 5 12.1046 5 11C5 9.8954 4.1046 9 3 9C1.8954 9 1 9.8954 1 11C1 12.1046 1.8954 13 3 13Z" stroke="white" stroke-miterlimit="10" stroke-linecap="round" stroke-linejoin="round"/>
<path d="M3 21C4.1046 21 5 20.1046 5 19C5 17.8954 4.1046 17 3 17C1.8954 17 1 17.8954 1 19C1 20.1046 1.8954 21 3 21Z" stroke="white" stroke-miterlimit="10" stroke-linecap="round" stroke-linejoin="round"/>
</svg>
