<svg width="22" height="19" viewBox="0 0 22 19" fill="none" xmlns="http://www.w3.org/2000/svg">
<path d="M3 1C1.89543 1 1 1.89543 1 3V12C1 13.1046 1.89543 14 3 14H8L10.1425 17.5708C10.5309 18.2182 11.4691 18.2182 11.8575 17.5708L14 14H19C20.1046 14 21 13.1046 21 12V3C21 1.89543 20.1046 1 19 1H3Z" stroke="#2DBE20" stroke-miterlimit="10" stroke-linecap="round" stroke-linejoin="round"/>
<path d="M15.9951 7.5H16.0051" stroke="#2DBE20" stroke-miterlimit="10" stroke-linecap="round"/>
<path d="M10.9951 7.5H11.0051" stroke="#2DBE20" stroke-miterlimit="10" stroke-linecap="round"/>
<path d="M5.99512 7.5H6.00512" stroke="#2DBE20" stroke-miterlimit="10" stroke-linecap="round"/>
<path d="M16 8C16.2761 8 16.5 7.7761 16.5 7.5C16.5 7.2239 16.2761 7 16 7C15.7239 7 15.5 7.2239 15.5 7.5C15.5 7.7761 15.7239 8 16 8Z" stroke="#2DBE20" stroke-miterlimit="10" stroke-linecap="round" stroke-linejoin="round"/>
<path d="M11 8C11.2761 8 11.5 7.7761 11.5 7.5C11.5 7.2239 11.2761 7 11 7C10.7239 7 10.5 7.2239 10.5 7.5C10.5 7.7761 10.7239 8 11 8Z" stroke="#2DBE20" stroke-miterlimit="10" stroke-linecap="round" stroke-linejoin="round"/>
<path d="M6 8C6.27614 8 6.5 7.7761 6.5 7.5C6.5 7.2239 6.27614 7 6 7C5.72386 7 5.5 7.2239 5.5 7.5C5.5 7.7761 5.72386 8 6 8Z" stroke="#2DBE20" stroke-miterlimit="10" stroke-linecap="round" stroke-linejoin="round"/>
</svg>
