<svg width="22" height="22" viewBox="0 0 22 22" fill="none" xmlns="http://www.w3.org/2000/svg">
<path d="M11 6V1" stroke="#B8B8B8" stroke-linecap="round" stroke-linejoin="round"/>
<path d="M13.5 3.5L11 1L8.5 3.5" stroke="#B8B8B8" stroke-linecap="round" stroke-linejoin="round"/>
<path d="M11 16V21" stroke="#B8B8B8" stroke-linecap="round" stroke-linejoin="round"/>
<path d="M8.5 18.5L11 21L13.5 18.5" stroke="#B8B8B8" stroke-linecap="round" stroke-linejoin="round"/>
<path d="M16 11H21" stroke="#B8B8B8" stroke-linecap="round" stroke-linejoin="round"/>
<path d="M18.5 13.5L21 11L18.5 8.5" stroke="#B8B8B8" stroke-linecap="round" stroke-linejoin="round"/>
<path d="M6 11H1" stroke="#B8B8B8" stroke-linecap="round" stroke-linejoin="round"/>
<path d="M3.5 8.5L1 11L3.5 13.5" stroke="#B8B8B8" stroke-linecap="round" stroke-linejoin="round"/>
<path d="M11 13C12.1046 13 13 12.1046 13 11C13 9.8954 12.1046 9 11 9C9.8954 9 9 9.8954 9 11C9 12.1046 9.8954 13 11 13Z" stroke="#B8B8B8" stroke-linecap="round" stroke-linejoin="round"/>
</svg>
