<svg width="193" height="103" viewBox="0 0 193 103" fill="none" xmlns="http://www.w3.org/2000/svg">
<path d="M91.7731 50.5904C87.0581 59.6264 79.7572 79.0974 93.2659 83.2255C97.9942 84.7267 102.23 83.7472 106.055 81.3615C111.232 78.2018 114.874 73.2648 119.555 69.5241C123.135 66.4393 127.207 67.6259 129.52 71.1351C130.626 72.9962 130.267 76.0527 128.064 76.8794C126.751 77.3335 125.202 76.6234 124.594 75.3389C122.825 71.8044 126.073 66.6746 127.956 64.3957C133.204 58.0822 142.46 53.7775 149.852 53.707C167.253 53.5408 166.889 65.2075 158.03 70.6884C155.399 72.2512 151.762 73.3598 149.312 72.6563C148.203 72.3528 147.323 71.4431 147.498 70.2379C148.027 67.3847 151.834 65.4962 153.705 64.5938C168.471 58.3553 175.89 76.6264 190.145 62.9947C190.414 62.7379 190.665 62.4878 190.845 62.2482C190.924 62.142 191.057 62.2341 190.962 62.3439C188.419 65.3032 184.564 68.0771 180.385 68.4466C174.681 68.9505 169.941 65.5006 164.56 64.2131C154.04 61.0557 143.465 71.0023 149.831 72.3395C153.966 72.8901 158.635 70.2676 160.909 67.6845C168.455 58.2811 158.052 54.038 149.846 54.3489C140.74 54.6947 129.739 60.9533 126.099 68.7241C125.456 70.143 124.857 71.6835 124.913 73.2789C124.936 74.9241 126.088 76.5796 127.791 76.0624C129.19 75.5236 129.51 73.5861 129.057 72.2675C128.653 71.0861 127.716 70.1897 126.666 69.5382C122.867 67.1955 120.37 70.0376 117.844 72.2816C113.32 76.6152 109.187 81.59 103.269 83.9676C98.6297 85.8569 93.0663 85.2142 89.086 82.4649C80.9027 76.5054 84.9991 63.0496 87.8924 55.7462C88.6632 53.8243 89.4547 52.0582 90.3955 50.2178C90.5234 49.9744 90.6032 49.7355 90.887 49.6042C91.4693 49.3177 92.1012 50.0212 91.7731 50.5904Z" fill="#8EAEED"/>
<path d="M51.9616 30.1182C51.6615 17.9476 54.9827 3.50709 68.4056 0.905416C75.7604 -0.94603 82.4708 0.0757903 88.6113 3.66069C97.3289 8.73863 103.212 17.2189 110.92 23.542C119.123 30.2807 127.932 31.675 136.009 24.621C140.169 21.2223 146.284 12.4526 141.342 7.90677C139.94 6.8857 138.538 7.70419 137.92 9.00502C134.178 18.0322 146.122 23.145 152.74 24.7879C157.639 25.9767 162.837 26.2765 167.718 24.8495C174.616 23.2407 185.566 19.1639 192.376 20.8246C192.476 20.8491 192.482 20.9604 192.348 20.9359C187.609 20.0714 183.535 21.0227 179.187 22.1247C172.141 23.824 165.151 26.7099 158.961 26.1622C150.455 25.8298 133.547 20.1159 137.144 9.34934C139.107 4.44728 143.534 7.5298 143.737 11.4553C144.083 14.6692 142.562 17.702 140.826 20.3007C137.748 24.7353 133.143 28.4953 128.107 29.7145C109.72 33.338 99.8216 7.80511 83.6968 2.53573C79.6595 1.0657 75.2431 0.786686 71.0092 1.54582C67.9637 2.13872 64.9965 2.87336 62.4173 4.58753C56.1792 8.85958 54.152 16.9785 53.4899 23.9383C53.2652 26.1162 53.3147 28.1487 53.3177 30.2837C53.1484 31.0213 51.9778 30.8818 51.9616 30.1182Z" fill="#CAD7FF"/>
<path d="M47.4004 32.3613C44.5795 29.8235 39.7847 28.7616 37.9032 30.9388L31.6096 37.1684C29.8434 39.212 31.3495 43.4284 34.9729 46.5859C38.5971 49.7434 42.9662 50.6457 44.7325 48.6021L50.202 41.6675C52.0836 39.4903 50.4998 35.15 47.4004 32.3613Z" fill="#86A0E2"/>
<path d="M58.7603 102.998C57.8225 102.956 57.096 102.159 57.1374 101.217L60.616 28.2029L63.4775 28.3298L60.534 101.368C60.4919 102.31 59.6982 103.039 58.7603 102.998Z" fill="#86A0E2"/>
<path d="M41.2678 96.1409C40.3669 95.876 39.8511 94.9276 40.1149 94.0231L62.1408 19.7278L64.8893 20.5366L43.377 94.9833C43.1131 95.8879 42.1687 96.4066 41.2678 96.1409Z" fill="#86A0E2"/>
<path d="M86.8026 96.6819C85.9165 96.9921 84.9477 96.5216 84.6388 95.6319L58.7559 22.6798L61.4607 21.7336L87.8491 94.5092C88.1572 95.3989 87.6887 96.3717 86.8026 96.6819Z" fill="#86A0E2"/>
<path d="M89.5835 39.397C84.6838 44.8563 82.6145 54.1551 86.7937 57.8172L98.7489 70.0627C102.673 73.5014 110.796 70.6022 116.892 63.5875C122.988 56.5728 124.749 48.0992 120.825 44.6612L107.509 34.0104C103.329 30.3475 94.9681 33.3974 89.5835 39.397Z" fill="#ABBAF4"/>
<path d="M115.29 62.0411C120.99 55.4818 122.753 47.6599 119.227 44.5705C115.701 41.4811 108.222 44.2941 102.521 50.8534C96.8212 57.4128 95.0586 65.2347 98.5845 68.3241C102.111 71.4135 109.59 68.6005 115.29 62.0411Z" fill="#86A0E2"/>
<path d="M109.744 57.3907C112.541 54.1726 113.349 50.2851 111.548 48.7077C109.748 47.1302 106.021 48.4602 103.225 51.6783C100.428 54.8964 99.6206 58.7839 101.421 60.3613C103.221 61.9388 106.948 60.6088 109.744 57.3907Z" fill="#0C1732"/>
<path d="M103.056 33.2363C98.8923 29.8591 76.6307 12.4912 65.58 12.0088C54.5294 11.5265 40.4354 32.1506 40.4354 32.1506C40.4354 32.1506 38.7312 34.9497 41.7169 37.7792C45.2805 41.1563 48.0828 40.1508 48.0828 40.1508C48.0828 40.1508 56.4508 29.376 62.2167 30.9841C67.9826 32.5921 87.3613 53.8196 87.3613 53.8196L103.056 33.2363Z" fill="#ABBAF4"/>
<path d="M65.2857 32.6732C63.1233 31.3063 58.5857 27.3934 61.2328 19.7279C62.5557 15.8966 66.3536 11.7322 69.1559 12.6167C71.9583 13.5013 74.0919 14.4088 74.0919 14.4088C74.0919 14.4088 74.2441 10.8343 69.102 9.11494C66.4563 8.22966 60.2935 8.22966 56.2902 17.691C52.8567 25.8039 56.424 30.5561 59.2264 32.3252C62.0288 34.0942 65.2857 32.6732 65.2857 32.6732Z" fill="#86A0E2"/>
<path d="M10.0056 38.0606C10.6943 38.7522 12.7917 39.6011 14.1737 40.1094C14.5897 40.263 14.5897 40.853 14.1737 41.0058C12.7917 41.5149 10.6943 42.3638 10.0056 43.0547C9.31678 43.7463 8.47134 45.8522 7.96511 47.2399C7.81213 47.6577 7.2246 47.6577 7.07236 47.2399C6.56539 45.8522 5.71995 43.7463 5.03192 43.0547C4.34314 42.3631 2.24579 41.5141 0.863811 41.0058C0.44774 40.8522 0.44774 40.2623 0.863811 40.1094C2.24579 39.6004 4.34314 38.7514 5.03192 38.0606C5.72069 37.369 6.56613 35.263 7.07236 33.8753C7.22534 33.4576 7.81287 33.4576 7.96511 33.8753C8.47134 35.263 9.31752 37.3697 10.0056 38.0606Z" fill="#FFD19F"/>
<path d="M135.687 43.2065C136.235 43.7572 137.907 44.4339 139.008 44.8391C139.34 44.9615 139.34 45.4312 139.008 45.5537C137.907 45.9589 136.236 46.6356 135.687 47.1862C135.138 47.7368 134.464 49.4154 134.061 50.5211C133.939 50.8542 133.471 50.8542 133.349 50.5211C132.946 49.4154 132.272 47.7376 131.723 47.1862C131.175 46.6356 129.503 45.9589 128.402 45.5537C128.07 45.4312 128.07 44.9615 128.402 44.8391C129.503 44.4339 131.174 43.7572 131.723 43.2065C132.272 42.6559 132.946 40.9774 133.349 39.8717C133.471 39.5385 133.939 39.5385 134.061 39.8717C134.464 40.9774 135.138 42.6559 135.687 43.2065Z" fill="#FFD19F"/>
<path d="M36.5341 69.423C36.8955 69.7859 37.9974 70.2319 38.7231 70.499C38.9419 70.5792 38.9419 70.8893 38.7231 70.9695C37.9974 71.2366 36.8962 71.6826 36.5341 72.0455C36.1727 72.4083 35.7286 73.5148 35.4625 74.2435C35.3827 74.4631 35.0738 74.4631 34.994 74.2435C34.7279 73.5148 34.2838 72.4091 33.9224 72.0455C33.561 71.6826 32.4591 71.2366 31.7334 70.9695C31.5146 70.8893 31.5146 70.5792 31.7334 70.499C32.4591 70.2319 33.5603 69.7859 33.9224 69.423C34.2838 69.0602 34.7279 67.9537 34.994 67.225C35.0738 67.0054 35.3827 67.0054 35.4625 67.225C35.7286 67.9537 36.1727 69.0594 36.5341 69.423Z" fill="#FFB27D"/>
</svg>
