<svg width="16" height="20" viewBox="0 0 16 20" fill="none" xmlns="http://www.w3.org/2000/svg">
<path d="M2.53528 18.6641C2.35979 18.6095 2.17617 18.5726 2.01038 18.4973C1.36161 18.2037 0.999687 17.7166 1 16.9889C1.00156 13.0272 1 9.06551 1.00125 5.10379C1.00156 4.11352 1.77796 3.33004 2.78021 3.31175C3.3073 3.30214 3.8347 3.3102 4.39182 3.3102C4.39182 3.10867 4.3915 2.91614 4.39182 2.72391C4.39244 2.40023 4.50787 2.27404 4.8382 2.26567C5.20919 2.25637 5.58081 2.2604 5.95181 2.26288C6.04158 2.2635 6.09476 2.2449 6.13824 2.15344C6.50329 1.38608 7.11922 0.993569 7.97445 1.00008C8.82467 1.00659 9.47 1.35539 9.83004 2.15219C9.85288 2.20273 9.93671 2.25513 9.99333 2.25668C10.3412 2.26629 10.6893 2.25947 11.0375 2.26288C11.1351 2.26381 11.2361 2.26877 11.3297 2.29326C11.5283 2.34535 11.6068 2.45201 11.6096 2.65446C11.6128 2.86591 11.6103 3.07767 11.6103 3.30927C11.8158 3.30927 12.0053 3.30648 12.1949 3.30989C12.6294 3.31795 13.0683 3.29346 13.4971 3.34617C14.3442 3.45065 14.9986 4.20498 14.9993 5.05171C15.003 9.05372 15.0027 13.0557 14.9993 17.0578C14.9986 17.8313 14.414 18.4734 13.5972 18.6278C13.5531 18.6362 13.5103 18.6517 13.4668 18.6641C9.82347 18.6641 6.17922 18.6641 2.53528 18.6641Z" stroke="#989898" stroke-miterlimit="10"/>
<path d="M7.99149 6.00256C9.37872 6.00256 10.7665 6.00182 12.1537 6.00329C12.5806 6.00366 12.8747 6.13789 12.972 6.36748C13.0889 6.64364 12.8282 6.93044 12.4041 6.98289C12.2756 6.99866 12.1423 6.99939 12.0111 6.99939C9.33773 7.00013 6.66383 7.00013 3.99048 6.99976C3.87953 6.99976 3.76693 7.00013 3.65706 6.99096C3.25587 6.95685 2.99515 6.7577 3.00007 6.49401C3.00444 6.23581 3.28047 6.02933 3.67838 6.00806C3.9402 5.99376 4.20474 6.00292 4.46765 6.00256C5.64172 6.00219 6.81633 6.00256 7.99149 6.00256Z" fill="#989898"/>
<path d="M7.99149 9.00256C9.37872 9.00256 10.7665 9.00182 12.1537 9.00329C12.5806 9.00366 12.8747 9.13789 12.972 9.36748C13.0889 9.64364 12.8282 9.93044 12.4041 9.98289C12.2756 9.99866 12.1423 9.99939 12.0111 9.99939C9.33773 10.0001 6.66383 10.0001 3.99048 9.99976C3.87953 9.99976 3.76693 10.0001 3.65706 9.99096C3.25587 9.95685 2.99515 9.7577 3.00007 9.49401C3.00444 9.23581 3.28047 9.02933 3.67838 9.00806C3.9402 8.99376 4.20474 9.00292 4.46765 9.00256C5.64172 9.00219 6.81633 9.00256 7.99149 9.00256Z" fill="#989898"/>
<path d="M7.99149 12.0026C9.37872 12.0026 10.7665 12.0018 12.1537 12.0033C12.5806 12.0037 12.8747 12.1379 12.972 12.3675C13.0889 12.6436 12.8282 12.9304 12.4041 12.9829C12.2756 12.9987 12.1423 12.9994 12.0111 12.9994C9.33773 13.0001 6.66383 13.0001 3.99048 12.9998C3.87953 12.9998 3.76693 13.0001 3.65706 12.991C3.25587 12.9568 2.99515 12.7577 3.00007 12.494C3.00444 12.2358 3.28047 12.0293 3.67838 12.0081C3.9402 11.9938 4.20474 12.0029 4.46765 12.0026C5.64172 12.0022 6.81633 12.0026 7.99149 12.0026Z" fill="#989898"/>
<path d="M8.00709 15.0012C9.39467 15.0012 10.7828 14.9998 12.1704 15.0023C12.6296 15.0031 12.9298 15.1588 12.9899 15.4134C13.0604 15.7105 12.7537 15.9733 12.3032 15.9954C12.1419 16.0032 11.979 15.9987 11.8172 15.9987C9.16341 15.9987 6.50907 15.9991 3.85528 15.9984C3.33754 15.9984 3.01825 15.8183 3.00076 15.5234C2.98272 15.2171 3.28833 15.006 3.78312 15.0031C4.77596 14.9975 5.76826 15.0012 6.76111 15.0009C7.17662 15.0009 7.59213 15.0009 8.00709 15.0012Z" fill="#989898"/>
</svg>
