<svg width="18" height="22" viewBox="0 0 18 22" fill="none" xmlns="http://www.w3.org/2000/svg">
<path d="M7 17H11C11.31 17.41 11.5 17.94 11.5 18.5C11.5 19.88 10.38 21 9 21C7.62 21 6.5 19.88 6.5 18.5C6.5 17.94 6.69 17.41 7 17Z" stroke="white" stroke-miterlimit="10" stroke-linecap="round" stroke-linejoin="round"/>
<path d="M7.414 4.21245C7.9193 4.07396 8.4512 4 9 4C9.5488 4 10.0807 4.07396 10.586 4.21245C10.8522 3.87379 11 3.4566 11 3C11 1.9 10.1 1 9 1C7.9 1 7 1.9 7 3C7 3.4566 7.1478 3.87379 7.414 4.21245Z" stroke="white" stroke-miterlimit="10" stroke-linecap="round" stroke-linejoin="round"/>
<path d="M3 13L1 17H17L15 13V10C15 6.69 12.31 4 9 4C5.69 4 3 6.69 3 10V13Z" stroke="white" stroke-miterlimit="10" stroke-linecap="round" stroke-linejoin="round"/>
</svg>
