<svg width="17" height="22" viewBox="0 0 17 22" fill="none" xmlns="http://www.w3.org/2000/svg">
<path d="M6.71875 16.7188H10.5312C10.8267 17.1095 11.0078 17.6147 11.0078 18.1484C11.0078 19.4637 9.94031 20.5312 8.625 20.5312C7.30969 20.5312 6.24219 19.4637 6.24219 18.1484C6.24219 17.6147 6.42328 17.1095 6.71875 16.7188Z" stroke="#D22630" stroke-miterlimit="10" stroke-linecap="round" stroke-linejoin="round"/>
<path d="M7.11334 4.53062C7.59496 4.39862 8.10193 4.32812 8.625 4.32812C9.14807 4.32812 9.65504 4.39862 10.1367 4.53062C10.3904 4.20783 10.5312 3.8102 10.5312 3.375C10.5312 2.32656 9.67344 1.46875 8.625 1.46875C7.57656 1.46875 6.71875 2.32656 6.71875 3.375C6.71875 3.8102 6.85962 4.20783 7.11334 4.53062Z" stroke="#D22630" stroke-miterlimit="10" stroke-linecap="round" stroke-linejoin="round"/>
<path d="M2.90625 12.9062L1 16.7188H16.25L14.3438 12.9062V10.0469C14.3438 6.89203 11.7798 4.32812 8.625 4.32812C5.47016 4.32812 2.90625 6.89203 2.90625 10.0469V12.9062Z" stroke="#D22630" stroke-miterlimit="10" stroke-linecap="round" stroke-linejoin="round"/>
</svg>
