<svg width="15" height="19" viewBox="0 0 15 19" fill="none" xmlns="http://www.w3.org/2000/svg">
<path d="M5.8125 14.5625H9.1875C9.44906 14.9084 9.60938 15.3556 9.60938 15.8281C9.60938 16.9925 8.66437 17.9375 7.5 17.9375C6.33563 17.9375 5.39062 16.9925 5.39062 15.8281C5.39062 15.3556 5.55094 14.9084 5.8125 14.5625Z" stroke="#B8B8B8" stroke-miterlimit="10" stroke-linecap="round" stroke-linejoin="round"/>
<path d="M6.16181 3.773C6.58816 3.65615 7.03695 3.59375 7.5 3.59375C7.96305 3.59375 8.41184 3.65615 8.83819 3.773C9.06279 3.48726 9.1875 3.13526 9.1875 2.75C9.1875 1.82187 8.42813 1.0625 7.5 1.0625C6.57187 1.0625 5.8125 1.82187 5.8125 2.75C5.8125 3.13526 5.93721 3.48726 6.16181 3.773Z" stroke="#B8B8B8" stroke-miterlimit="10" stroke-linecap="round" stroke-linejoin="round"/>
<path d="M2.4375 11.1875L0.75 14.5625H14.25L12.5625 11.1875V8.65625C12.5625 5.86344 10.2928 3.59375 7.5 3.59375C4.70719 3.59375 2.4375 5.86344 2.4375 8.65625V11.1875Z" stroke="#B8B8B8" stroke-miterlimit="10" stroke-linecap="round" stroke-linejoin="round"/>
</svg>
