<svg width="17" height="24" viewBox="0 0 17 24" fill="none" xmlns="http://www.w3.org/2000/svg">
<path fill-rule="evenodd" clip-rule="evenodd" d="M8.55009 23.2858C13.9745 23.2858 11.3898 17.6647 13.0215 15.6905C14.8774 13.4451 16.4001 11.5924 16.4001 8.73587C16.4001 4.2343 13.0662 0.714355 8.55009 0.714355C4.03408 0.714355 0.600098 4.28693 0.600098 8.78849C0.600098 11.6946 2.32277 13.4309 4.19544 15.7652C5.72874 17.6766 3.12585 23.2858 8.55009 23.2858Z" stroke="white" stroke-linejoin="round"/>
<path d="M8.5 15.3857V19.9" stroke="white" stroke-linecap="round" stroke-linejoin="round"/>
<path fill-rule="evenodd" clip-rule="evenodd" d="M8.50006 9.7428C9.74668 9.7428 10.7572 8.73224 10.7572 7.48566C10.7572 6.23907 9.74668 5.22852 8.50006 5.22852C7.25356 5.22852 6.24292 6.23907 6.24292 7.48566C6.24292 8.73224 7.25356 9.7428 8.50006 9.7428Z" stroke="white"/>
<path d="M10.1312 5.89002L11.3092 4.68836M8.50005 5.22875V3.53589V5.22875ZM6.86892 5.89002L5.53364 4.52791L6.86892 5.89002ZM6.24291 7.48589H4.55005H6.24291ZM6.86892 9.11702L5.67862 10.3073L6.86892 9.11702ZM8.50005 9.74303V11.4359V9.74303ZM10.1312 9.11702L11.4449 10.4308L10.1312 9.11702ZM10.7572 7.48589H12.45H10.7572Z" stroke="white" stroke-linecap="round"/>
</svg>
