<svg width="21" height="22" viewBox="0 0 21 22" fill="none" xmlns="http://www.w3.org/2000/svg">
<path d="M10.5 21C15.4706 21 19.5 16.9706 19.5 12C19.5 7.02944 15.4706 3 10.5 3C5.52944 3 1.5 7.02944 1.5 12C1.5 16.9706 5.52944 21 10.5 21Z" stroke="white" stroke-linecap="round" stroke-linejoin="round"/>
<path d="M17.1699 1L20.4999 4.33" stroke="white" stroke-miterlimit="10" stroke-linecap="round" stroke-linejoin="round"/>
<path d="M0.5 4.33L3.83 1" stroke="white" stroke-miterlimit="10" stroke-linecap="round" stroke-linejoin="round"/>
<path d="M11.5 12H15.5" stroke="white" stroke-linecap="round" stroke-linejoin="round"/>
<path d="M10.5 6V11" stroke="white" stroke-linecap="round" stroke-linejoin="round"/>
<path d="M10.5 13C11.0523 13 11.5 12.5523 11.5 12C11.5 11.4477 11.0523 11 10.5 11C9.9477 11 9.5 11.4477 9.5 12C9.5 12.5523 9.9477 13 10.5 13Z" stroke="white" stroke-linecap="round" stroke-linejoin="round"/>
</svg>
