<svg width="20" height="20" viewBox="0 0 20 20" fill="none" xmlns="http://www.w3.org/2000/svg">
<path d="M19.0384 14.772C19.0384 14.5732 18.9192 14.4496 18.7488 14.448C18.5785 14.4465 18.4624 14.5701 18.4541 14.7663C18.4541 14.8122 18.4541 14.8576 18.4541 14.903C18.4541 15.5217 18.4541 16.1399 18.4541 16.7581C18.4541 17.2564 18.1796 17.5323 17.6816 17.5323C12.5425 17.5323 7.40344 17.5323 2.26435 17.5323C1.76693 17.5323 1.49504 17.2558 1.494 16.7561C1.494 16.0403 1.494 15.3243 1.494 14.6082V14.4053H2.68051C2.68051 14.6776 2.68051 14.9421 2.68051 15.2066C2.67597 15.3951 2.68188 15.5837 2.69822 15.7716C2.71679 15.9151 2.78287 16.0481 2.8859 16.1495C2.98892 16.2509 3.12293 16.3148 3.26647 16.3309C3.35684 16.3418 3.44787 16.3465 3.53889 16.345C7.83072 16.345 12.1224 16.345 16.4139 16.345C17.0181 16.345 17.2644 16.0971 17.2644 15.4904V11.2646H18.4509V11.4733C18.4509 12.1108 18.4509 12.7487 18.4509 13.3869C18.4509 13.6227 18.5514 13.749 18.7353 13.7521C18.9192 13.7552 19.0364 13.6243 19.0364 13.3812C19.0364 9.35187 19.0364 5.32276 19.0364 1.29382C19.0364 0.548833 18.4822 0.00156511 17.7342 0.00156511C12.5632 -0.000521703 7.39232 -0.000521703 2.22163 0.00156511C1.46066 0.00156511 0.910124 0.547266 0.909082 1.30582C0.905957 3.64896 0.905957 5.99211 0.909082 8.33525C0.909082 8.36133 0.909082 8.38742 0.909082 8.4135C0.922624 8.59558 1.03929 8.71453 1.20336 8.714C1.36743 8.71348 1.48775 8.59349 1.49244 8.41089C1.49869 8.16413 1.49244 7.91632 1.49244 7.66903V7.46765H2.6654V10.6568H1.49244C1.49244 10.3652 1.49244 10.0746 1.49244 9.78454C1.49244 9.53986 1.38462 9.40891 1.19347 9.41309C1.01065 9.41674 0.907518 9.54508 0.906997 9.77828C0.906997 12.128 0.906997 14.4778 0.906997 16.8275C0.906997 17.5621 1.45494 18.1083 2.18935 18.1229C2.3456 18.126 2.50185 18.1229 2.67842 18.1229C2.67842 18.4709 2.69196 18.8011 2.67529 19.1298C2.65342 19.5508 2.80655 19.8482 3.21021 20H5.24155C5.64834 19.855 5.80667 19.5602 5.78687 19.1387C5.77125 18.809 5.78375 18.4777 5.78375 18.1354H14.156V18.7615C14.156 18.9044 14.1617 19.0479 14.156 19.1903C14.1362 19.5957 14.3247 19.8565 14.6997 19.9932H16.7311C17.1373 19.843 17.2863 19.5419 17.266 19.123C17.2504 18.7985 17.2629 18.473 17.2629 18.1167H17.6743C18.4978 18.113 19.0337 17.5803 19.0353 16.7602C19.0398 16.0987 19.0409 15.436 19.0384 14.772ZM18.4442 10.6506H17.2816V7.46139H18.4442V10.6506ZM1.49609 3.70044V2.82032C1.49609 2.31896 1.49609 1.81761 1.49609 1.31678C1.49609 0.867068 1.77943 0.582743 2.22528 0.582743C7.38903 0.582743 12.5531 0.582743 17.7176 0.582743C18.1488 0.582743 18.4468 0.860807 18.4468 1.27713C18.4502 3.09926 18.4502 4.92175 18.4468 6.74458C18.4468 6.77588 18.441 6.80718 18.4369 6.84892H17.2608V6.61623C17.2608 5.28206 17.2608 3.94772 17.2608 2.61321C17.2608 2.01116 17.0123 1.76544 16.404 1.76544H8.9271C8.84283 1.76205 8.75844 1.76818 8.67553 1.7837C8.60984 1.79439 8.55076 1.82987 8.51037 1.88284C8.46998 1.93581 8.45135 2.00227 8.45834 2.06855C8.45646 2.1382 8.48173 2.20585 8.52878 2.25717C8.57584 2.30849 8.64097 2.33945 8.71042 2.34349C8.78833 2.35072 8.86661 2.35298 8.94481 2.35027H16.3878C16.6805 2.35027 16.6811 2.35027 16.6811 2.64086V15.4747C16.6811 15.7601 16.6811 15.7606 16.4029 15.7606H3.54774C3.2696 15.7606 3.26907 15.7606 3.26907 15.4758C3.26907 15.1257 3.26907 14.7751 3.26907 14.3938C3.39095 14.3938 3.48105 14.3938 3.57116 14.3938C4.00503 14.3807 4.27798 14.1136 4.2811 13.6801C4.28701 12.9184 4.28701 12.1569 4.2811 11.3956C4.2785 10.9427 3.99984 10.6714 3.54565 10.6652C3.46179 10.6652 3.37793 10.6652 3.28105 10.6652V7.452C3.38939 7.452 3.48939 7.45565 3.59357 7.452C3.99098 7.43635 4.27484 7.16715 4.27953 6.77379C4.28855 5.98636 4.28855 5.19894 4.27953 4.41151C4.27536 4.01293 4.00399 3.74687 3.60242 3.72339C3.49824 3.71765 3.39408 3.72339 3.27168 3.72339C3.27168 3.29507 3.26751 2.88867 3.27792 2.47861C3.27792 2.43739 3.36648 2.37427 3.42065 2.36435C3.54378 2.35338 3.66754 2.35129 3.79097 2.35809H7.30724C7.37891 2.36099 7.4507 2.35785 7.52184 2.34871C7.58568 2.33737 7.64375 2.30457 7.68646 2.25572C7.72918 2.20687 7.75397 2.14488 7.75676 2.08C7.75955 2.01512 7.74018 1.95123 7.70183 1.89888C7.66347 1.84652 7.60843 1.80884 7.5458 1.79205C7.47603 1.77689 7.40463 1.77059 7.33329 1.77327C6.0506 1.77327 4.76775 1.77327 3.48471 1.77327C2.94615 1.77327 2.68468 2.03777 2.68311 2.57878C2.68311 2.94919 2.68311 3.3196 2.68311 3.7067L1.49609 3.70044ZM1.57109 6.86144C1.54913 6.85794 1.52765 6.852 1.50702 6.8437V4.31552C1.56275 4.31187 1.619 4.30405 1.67526 4.30405C2.27424 4.30405 2.87322 4.3077 3.4722 4.30091C3.63992 4.30091 3.70189 4.35309 3.70033 4.52368C3.69252 5.2332 3.69616 5.94219 3.70033 6.65171C3.70033 6.77535 3.68836 6.86717 3.52637 6.86613C2.87322 6.86143 2.22215 6.86352 1.57109 6.86248V6.86144ZM1.50181 11.2641C1.55065 11.2565 1.59985 11.2514 1.64921 11.249C2.26122 11.249 2.87323 11.2521 3.48471 11.2453C3.64722 11.2453 3.70085 11.2975 3.69929 11.4602C3.69356 12.176 3.69929 12.8918 3.69929 13.6076C3.69929 13.7119 3.69668 13.8058 3.55292 13.8053C2.87581 13.8053 2.19871 13.8053 1.50389 13.8053L1.50181 11.2641ZM5.19415 19.2926C5.19415 19.3322 5.10039 19.4021 5.04987 19.4027C4.50402 19.411 3.95798 19.411 3.41177 19.4027C3.36438 19.4027 3.27845 19.3254 3.2774 19.2827C3.26647 18.9008 3.27116 18.5189 3.27116 18.1276H5.19832C5.2004 18.5189 5.20509 18.9065 5.19415 19.2936V19.2926ZM16.6722 19.2827C16.6722 19.3254 16.5852 19.4016 16.5378 19.4027C15.992 19.411 15.444 19.412 14.8997 19.4027C14.8649 19.3926 14.8333 19.3737 14.8078 19.3479C14.7824 19.322 14.764 19.29 14.7544 19.255C14.7414 18.8862 14.7476 18.5168 14.7476 18.1292H16.6784C16.6784 18.5199 16.6832 18.9018 16.6722 19.2832V19.2827Z" fill="black"/>
<path d="M7.02808 5.77376C6.91036 5.89844 6.9239 6.07269 7.07703 6.22085C7.20725 6.34606 7.34997 6.45875 7.49008 6.57926C6.93693 7.2413 6.64316 7.95134 6.56399 8.76363C6.3744 8.76363 6.19941 8.7605 6.02492 8.76363C5.79158 8.76885 5.66866 8.8758 5.67335 9.06361C5.67803 9.25142 5.7947 9.34272 6.02075 9.34742C6.20045 9.35159 6.38065 9.34742 6.56607 9.34742C6.63394 10.1348 6.94321 10.8819 7.45152 11.4864C7.44526 11.5049 7.43649 11.5225 7.42548 11.5386C7.3161 11.6502 7.20569 11.7608 7.09631 11.8719C6.92755 12.0436 6.90671 12.2204 7.03901 12.3482C7.17131 12.4761 7.34735 12.4526 7.51559 12.2783C7.6333 12.1573 7.74061 12.0269 7.85572 11.8965C8.46844 12.4215 9.22925 12.7422 10.0324 12.8141C10.0324 13.0072 10.0282 13.1877 10.0324 13.3687C10.0386 13.5863 10.149 13.7083 10.3282 13.7068C10.5074 13.7052 10.611 13.5842 10.6162 13.3624C10.6199 13.1819 10.6162 13.0014 10.6162 12.8136C11.4193 12.7436 12.1805 12.424 12.7934 11.8996C12.9247 12.0436 13.0471 12.1876 13.1799 12.3206C13.3127 12.4536 13.4966 12.4625 13.6143 12.3467C13.732 12.2309 13.7289 12.0488 13.5945 11.9121C13.4601 11.7754 13.3195 11.6549 13.1731 11.5203C13.6954 10.9089 14.0142 10.1495 14.0851 9.34794C14.2674 9.34794 14.4299 9.35055 14.5919 9.34794C14.6628 9.34794 14.7612 9.3589 14.8003 9.31925C14.8768 9.23682 14.9612 9.12674 14.9685 9.02292C14.98 8.86954 14.8576 8.77667 14.7029 8.76937C14.4976 8.75998 14.2919 8.76937 14.0856 8.76937C14.0155 7.9691 13.699 7.21039 13.1799 6.59804C13.3257 6.46083 13.4622 6.33719 13.5893 6.21042C13.7268 6.07113 13.7362 5.89479 13.6231 5.77532C13.5101 5.65585 13.3189 5.65376 13.1757 5.80192C13.0465 5.936 12.9319 6.08469 12.8111 6.2292C12.1418 5.67046 11.4309 5.37882 10.6199 5.30005C10.6199 5.12371 10.6199 4.96198 10.6199 4.80026C10.6199 4.72878 10.6324 4.6307 10.5928 4.59158C10.5126 4.51332 10.4043 4.4288 10.3006 4.41837C10.1443 4.40272 10.0506 4.52271 10.0402 4.67922C10.0292 4.88425 10.0376 5.09032 10.0376 5.30161C9.2499 5.36796 8.50176 5.67561 7.89478 6.18277C7.88153 6.17911 7.86876 6.17385 7.85676 6.16712C7.7354 6.04921 7.61509 5.93079 7.49216 5.81341C7.33122 5.65794 7.151 5.64385 7.02808 5.77376ZM10.3193 5.8781C10.9461 5.87851 11.5588 6.06498 12.0798 6.41395C12.6009 6.76292 13.007 7.25874 13.2468 7.83877C13.4867 8.41881 13.5496 9.05704 13.4275 9.67283C13.3054 10.2886 13.0039 10.8544 12.5609 11.2986C12.118 11.7428 11.5536 12.0456 10.939 12.1687C10.3243 12.2918 9.68705 12.2297 9.10765 11.9902C8.52825 11.7507 8.03268 11.3446 7.68359 10.8231C7.33451 10.3017 7.14755 9.68831 7.14631 9.06048C7.14576 8.64286 7.22746 8.22923 7.3867 7.84326C7.54594 7.4573 7.77961 7.10658 8.07434 6.81118C8.36906 6.51578 8.71904 6.2815 9.10427 6.12175C9.4895 5.96199 9.90241 5.8799 10.3193 5.88018V5.8781Z" fill="black"/>
<path d="M9.62298 10.4018C10.2365 10.7232 10.9829 10.6027 11.4387 10.0747C11.6127 9.87333 11.7226 9.61665 11.8861 9.34432C12.0038 9.34432 12.1788 9.35215 12.3549 9.34432C12.3912 9.34488 12.4272 9.33794 12.4607 9.32395C12.4943 9.30995 12.5245 9.28918 12.5497 9.26295C12.5749 9.23672 12.5944 9.20558 12.607 9.17147C12.6196 9.13736 12.6251 9.10101 12.6231 9.06469C12.6268 8.90192 12.5309 8.79445 12.3653 8.77411C12.2554 8.76072 12.1443 8.7588 12.034 8.76836C11.883 8.78193 11.8116 8.73863 11.7611 8.57847C11.6568 8.25999 11.4497 7.98534 11.1723 7.79784C10.8949 7.61033 10.5631 7.52063 10.2293 7.54288C9.89864 7.5635 9.58388 7.69207 9.33315 7.90892C9.08243 8.12577 8.90955 8.41895 8.84101 8.74358C8.77247 9.0682 8.81205 9.40637 8.95365 9.70633C9.09526 10.0063 9.33108 10.2515 9.62507 10.4044L9.62298 10.4018ZM10.3246 8.12354C10.5093 8.12375 10.6898 8.17888 10.8431 8.28193C10.9965 8.38498 11.1159 8.53132 11.1862 8.7024C11.2565 8.87349 11.2745 9.06162 11.2379 9.24296C11.2013 9.42429 11.1118 9.59067 10.9807 9.721C10.8497 9.85134 10.6829 9.93978 10.5016 9.97509C10.3203 10.0104 10.1326 9.99103 9.96232 9.91939C9.79203 9.84776 9.6468 9.72711 9.54503 9.57272C9.44327 9.41834 9.38955 9.23717 9.39068 9.05217C9.39435 8.80586 9.49414 8.57077 9.66868 8.39721C9.84322 8.22365 10.0786 8.12542 10.3246 8.12354Z" fill="black"/>
</svg>
