<svg width="8" height="11" viewBox="0 0 8 11" fill="none" xmlns="http://www.w3.org/2000/svg">
<path d="M3.22656 8.53223C3.22201 8.36816 3.21973 8.24512 3.21973 8.16309C3.21973 7.68001 3.28809 7.26302 3.4248 6.91211C3.52507 6.64779 3.68685 6.38118 3.91016 6.1123C4.07422 5.91634 4.36816 5.63151 4.79199 5.25781C5.22038 4.87956 5.49837 4.57878 5.62598 4.35547C5.75358 4.13216 5.81738 3.88835 5.81738 3.62402C5.81738 3.14551 5.63053 2.72624 5.25684 2.36621C4.88314 2.00163 4.42513 1.81934 3.88281 1.81934C3.35872 1.81934 2.92122 1.9834 2.57031 2.31152C2.2194 2.63965 1.98926 3.15234 1.87988 3.84961L0.615234 3.69922C0.729167 2.76497 1.06641 2.04948 1.62695 1.55273C2.19206 1.05599 2.93717 0.807617 3.8623 0.807617C4.84212 0.807617 5.6237 1.07422 6.20703 1.60742C6.79036 2.14062 7.08203 2.78548 7.08203 3.54199C7.08203 3.97949 6.97949 4.38281 6.77441 4.75195C6.56934 5.12109 6.16829 5.56999 5.57129 6.09863C5.17025 6.4541 4.9082 6.71615 4.78516 6.88477C4.66211 7.05339 4.57096 7.24707 4.51172 7.46582C4.45247 7.68457 4.41829 8.04004 4.40918 8.53223H3.22656ZM3.15137 11V9.59863H4.55273V11H3.15137Z" fill="#FE5000"/>
</svg>
