<svg width="18" height="20" viewBox="0 0 18 20" fill="none" xmlns="http://www.w3.org/2000/svg">
<path d="M12.0989 18.8379C12.0989 18.8379 12.0905 18.8469 12.0989 18.8379C10.3097 18.3159 8.9993 16.5699 8.9993 14.4999C8.9993 13.4829 9.3101 12.5469 9.8393 11.7999C10.6037 10.7109 11.8301 9.9999 13.1993 9.9999C13.3169 9.9999 13.4345 10.0089 13.5521 10.0179L14.0393 6.3999H2.2793L3.8585 18.2259C3.9173 18.6669 4.2701 18.9999 4.6901 18.9999H11.6285C11.8049 18.9999 11.9645 18.9459 12.0989 18.8379Z" stroke="white" stroke-miterlimit="10" stroke-linecap="round" stroke-linejoin="round"/>
<path d="M1.01953 6.3999H15.2995" stroke="white" stroke-miterlimit="10" stroke-linecap="round" stroke-linejoin="round"/>
<path d="M6.47949 10V15.4" stroke="white" stroke-miterlimit="10" stroke-linecap="round" stroke-linejoin="round"/>
<path d="M9.83984 11.8V10" stroke="white" stroke-miterlimit="10" stroke-linecap="round" stroke-linejoin="round"/>
<path d="M11.5198 3.7H4.7998L6.2278 1.405C6.3874 1.153 6.6478 1 6.9334 1H9.39461C9.67181 1 9.94061 1.153 10.0918 1.405L11.5198 3.7Z" stroke="white" stroke-miterlimit="10" stroke-linecap="round" stroke-linejoin="round"/>
<path d="M0.599609 3.69995H15.7196" stroke="white" stroke-miterlimit="10" stroke-linecap="round" stroke-linejoin="round"/>
<path d="M13.2 19C15.5196 19 17.4 16.9853 17.4 14.5C17.4 12.0147 15.5196 10 13.2 10C10.8804 10 9 12.0147 9 14.5C9 16.9853 10.8804 19 13.2 19Z" stroke="white" stroke-miterlimit="10" stroke-linecap="round" stroke-linejoin="round"/>
<path d="M11.4189 12.5918L14.9805 16.4078" stroke="white" stroke-miterlimit="10" stroke-linejoin="round"/>
<path d="M14.9805 12.5918L11.4189 16.4078" stroke="white" stroke-miterlimit="10" stroke-linejoin="round"/>
</svg>
