<svg width="21" height="22" viewBox="0 0 21 22" fill="none" xmlns="http://www.w3.org/2000/svg">
<path d="M13.9773 20.82C13.9773 20.82 13.968 20.83 13.9773 20.82C11.9893 20.24 10.5333 18.3 10.5333 16C10.5333 14.87 10.8787 13.83 11.4667 13C12.316 11.79 13.6787 11 15.2 11C15.3307 11 15.4613 11.01 15.592 11.02L16.1333 7H3.06665L4.82132 20.14C4.88665 20.63 5.27865 21 5.74532 21H13.4547C13.6507 21 13.828 20.94 13.9773 20.82Z" stroke="#D22630" stroke-miterlimit="10" stroke-linecap="round" stroke-linejoin="round"/>
<path d="M1.6665 7H17.5332" stroke="#D22630" stroke-miterlimit="10" stroke-linecap="round" stroke-linejoin="round"/>
<path d="M7.73315 11V17" stroke="#D22630" stroke-miterlimit="10" stroke-linecap="round" stroke-linejoin="round"/>
<path d="M11.4666 13V11" stroke="#D22630" stroke-miterlimit="10" stroke-linecap="round" stroke-linejoin="round"/>
<path d="M13.3331 4H5.86646L7.45312 1.45C7.63045 1.17 7.91979 1 8.23712 1H10.9718C11.2798 1 11.5785 1.17 11.7465 1.45L13.3331 4Z" stroke="#D22630" stroke-miterlimit="10" stroke-linecap="round" stroke-linejoin="round"/>
<path d="M1.19995 4H18" stroke="#D22630" stroke-miterlimit="10" stroke-linecap="round" stroke-linejoin="round"/>
<path d="M15.1999 21C17.7772 21 19.8665 18.7614 19.8665 16C19.8665 13.2386 17.7772 11 15.1999 11C12.6226 11 10.5332 13.2386 10.5332 16C10.5332 18.7614 12.6226 21 15.1999 21Z" stroke="#D22630" stroke-miterlimit="10" stroke-linecap="round" stroke-linejoin="round"/>
<path d="M13.2212 13.8799L17.1785 18.1199" stroke="#D22630" stroke-miterlimit="10" stroke-linejoin="round"/>
<path d="M17.1785 13.8799L13.2212 18.1199" stroke="#D22630" stroke-miterlimit="10" stroke-linejoin="round"/>
</svg>
