<svg width="19" height="20" viewBox="0 0 19 20" fill="none" xmlns="http://www.w3.org/2000/svg">
<path d="M12.4329 18.8379C12.4329 18.8379 12.4245 18.8469 12.4329 18.8379C10.6437 18.3159 9.33328 16.5699 9.33328 14.4999C9.33328 13.4829 9.64408 12.5469 10.1733 11.7999C10.9377 10.7109 12.1641 9.9999 13.5333 9.9999C13.6509 9.9999 13.7685 10.0089 13.8861 10.0179L14.3733 6.3999H2.61328L4.19248 18.2259C4.25128 18.6669 4.60408 18.9999 5.02408 18.9999H11.9625C12.1389 18.9999 12.2985 18.9459 12.4329 18.8379Z" stroke="#D22630" stroke-miterlimit="10" stroke-linecap="round" stroke-linejoin="round"/>
<path d="M1.35303 6.3999H15.633" stroke="#D22630" stroke-miterlimit="10" stroke-linecap="round" stroke-linejoin="round"/>
<path d="M6.81299 10V15.4" stroke="#D22630" stroke-miterlimit="10" stroke-linecap="round" stroke-linejoin="round"/>
<path d="M10.1729 11.8V10" stroke="#D22630" stroke-miterlimit="10" stroke-linecap="round" stroke-linejoin="round"/>
<path d="M11.8528 3.7H5.13281L6.56081 1.405C6.72041 1.153 6.98081 1 7.26641 1H9.72761C10.0048 1 10.2736 1.153 10.4248 1.405L11.8528 3.7Z" stroke="#D22630" stroke-miterlimit="10" stroke-linecap="round" stroke-linejoin="round"/>
<path d="M0.933105 3.69995H16.0531" stroke="#D22630" stroke-miterlimit="10" stroke-linecap="round" stroke-linejoin="round"/>
<path d="M13.533 19C15.8526 19 17.733 16.9853 17.733 14.5C17.733 12.0147 15.8526 10 13.533 10C11.2134 10 9.33301 12.0147 9.33301 14.5C9.33301 16.9853 11.2134 19 13.533 19Z" stroke="#D22630" stroke-miterlimit="10" stroke-linecap="round" stroke-linejoin="round"/>
<path d="M11.7524 12.5918L15.314 16.4078" stroke="#D22630" stroke-miterlimit="10" stroke-linejoin="round"/>
<path d="M15.314 12.5918L11.7524 16.4078" stroke="#D22630" stroke-miterlimit="10" stroke-linejoin="round"/>
</svg>
