<svg width="22" height="16" viewBox="0 0 22 16" fill="none" xmlns="http://www.w3.org/2000/svg">
<path d="M8.49 10.69C7.76 10.26 6.91 10 6 10C3.24 10 1 12.24 1 15H7C7 13.37 7.56 11.88 8.49 10.69Z" stroke="#B8B8B8" stroke-miterlimit="10" stroke-linecap="round" stroke-linejoin="round"/>
<path d="M6 10C7.38071 10 8.5 8.8807 8.5 7.5C8.5 6.1193 7.38071 5 6 5C4.61929 5 3.5 6.1193 3.5 7.5C3.5 8.8807 4.61929 10 6 10Z" stroke="#B8B8B8" stroke-miterlimit="10" stroke-linecap="round" stroke-linejoin="round"/>
<path d="M14 8C10.13 8 7 11.13 7 15C7.01 15 21 15 21 15C21 11.13 17.87 8 14 8Z" stroke="#B8B8B8" stroke-miterlimit="10" stroke-linecap="round" stroke-linejoin="round"/>
<path d="M14 8C15.933 8 17.5 6.433 17.5 4.5C17.5 2.567 15.933 1 14 1C12.067 1 10.5 2.567 10.5 4.5C10.5 6.433 12.067 8 14 8Z" stroke="#B8B8B8" stroke-miterlimit="10" stroke-linecap="round" stroke-linejoin="round"/>
</svg>
