<svg width="24" height="24" viewBox="0 0 24 24" fill="none" xmlns="http://www.w3.org/2000/svg">
<path d="M1.375 12C1.375 13.3953 1.64982 14.7769 2.18378 16.066C2.71774 17.3551 3.50037 18.5264 4.48699 19.513C5.47361 20.4996 6.6449 21.2823 7.93399 21.8162C9.22307 22.3502 10.6047 22.625 12 22.625C13.3953 22.625 14.7769 22.3502 16.066 21.8162C17.3551 21.2823 18.5264 20.4996 19.513 19.513C20.4996 18.5264 21.2823 17.3551 21.8162 16.066C22.3502 14.7769 22.625 13.3953 22.625 12C22.625 10.6047 22.3502 9.22307 21.8162 7.93399C21.2823 6.6449 20.4996 5.47361 19.513 4.48699C18.5264 3.50037 17.3551 2.71774 16.066 2.18378C14.7769 1.64982 13.3953 1.375 12 1.375C10.6047 1.375 9.22307 1.64982 7.93399 2.18378C6.6449 2.71774 5.47361 3.50037 4.48699 4.48699C3.50037 5.47361 2.71774 6.6449 2.18378 7.93399C1.64982 9.22307 1.375 10.6047 1.375 12Z" stroke="#0C1732" stroke-linecap="round" stroke-linejoin="round"/>
<path d="M6 18.1875C6 16.5306 7.34315 15.1875 9 15.1875H15C16.6569 15.1875 18 16.5306 18 18.1875V21L12.7276 22.3181C12.2499 22.4375 11.7501 22.4375 11.2724 22.3181L6 21V18.1875Z" fill="#0C1732"/>
<path d="M8.45801 9.63883C8.45801 10.5781 8.83115 11.479 9.49534 12.1432C10.1595 12.8074 11.0604 13.1805 11.9997 13.1805C12.939 13.1805 13.8398 12.8074 14.504 12.1432C15.1682 11.479 15.5413 10.5781 15.5413 9.63883C15.5413 8.69953 15.1682 7.79869 14.504 7.1345C13.8398 6.47031 12.939 6.09717 11.9997 6.09717C11.0604 6.09717 10.1595 6.47031 9.49534 7.1345C8.83115 7.79869 8.45801 8.69953 8.45801 9.63883Z" fill="#0C1732"/>
</svg>
